<svg width="20" height="13" fill="none" xmlns="http://www.w3.org/2000/svg"><path d="M4.634.818V11H3.4V2.11h-.06L.855 3.762V2.51L3.401.819h1.233ZM11.18.341 7.9 12.53H6.826L10.107.341h1.074Zm4.553 10.798a3.496 3.496 0 0 1-1.576-.348 2.927 2.927 0 0 1-1.124-.954 2.6 2.6 0 0 1-.462-1.382h1.193c.046.46.255.841.627 1.143.374.298.822.447 1.342.447.417 0 .789-.097 1.114-.293a2.07 2.07 0 0 0 .77-.805 2.39 2.39 0 0 0 .284-1.169c0-.444-.098-.84-.294-1.188a2.153 2.153 0 0 0-.795-.83 2.248 2.248 0 0 0-1.159-.308 3.182 3.182 0 0 0-.96.144c-.327.096-.598.22-.81.373l-1.153-.14.617-5.01h5.29v1.093h-4.256l-.358 3.003h.06c.208-.166.47-.303.785-.413.315-.11.643-.164.984-.164.623 0 1.178.15 1.666.448.49.294.875.699 1.153 1.213.282.513.423 1.1.423 1.76 0 .65-.146 1.23-.438 1.74a3.198 3.198 0 0 1-1.193 1.203c-.507.291-1.084.437-1.73.437Z" fill="#05C2DF"/></svg>