<svg width="51" height="334" fill="none" xmlns="http://www.w3.org/2000/svg"><mask id="path-1-outside-1_1_396" maskUnits="userSpaceOnUse" x="-1" y="-1.449" width="53.786" height="336.412" fill="#000"><path fill="#fff" d="M-1-1.449h53.786v336.412H-1z"/><path d="M1.125 14.048 1.012.412l46.672 14.977.143 17.272L1.411 48.41l-.114-13.637L34.94 24.313l-.003-.364-33.81-9.901Zm18.342-2.698.213 25.635-9.454.079-.213-25.636 9.454-.078ZM1.447 52.893l46.545-.386.167 20.18c.03 3.546-.423 6.527-1.358 8.944-.934 2.432-2.267 4.27-4 5.51-1.732 1.258-3.78 1.896-6.143 1.916-1.712.014-3.276-.352-4.691-1.098-1.415-.73-2.606-1.766-3.571-3.107-.95-1.34-1.616-2.91-1.994-4.71l-.455.003c-.059 2-.551 3.823-1.477 5.467a10.448 10.448 0 0 1-3.808 3.94c-1.613.984-3.518 1.485-5.715 1.503-2.546.021-4.816-.627-6.812-1.944-1.996-1.301-3.572-3.167-4.729-5.597-1.156-2.43-1.748-5.334-1.776-8.713l-.182-21.908Zm10.196 12.552.05 5.909c.017 2.121.424 3.709 1.22 4.763.812 1.054 1.998 1.574 3.56 1.561 1.09-.009 2.012-.266 2.765-.773.754-.506 1.324-1.223 1.71-2.15.386-.913.574-2.013.564-3.3l-.051-6.091-9.818.081ZM29.28 65.3l.043 5.181c.01 1.106.191 2.082.547 2.928.355.845.86 1.5 1.516 1.965.671.479 1.484.715 2.438.707 1.44-.012 2.534-.537 3.283-1.573.764-1.037 1.14-2.343 1.126-3.919l-.044-5.363-8.91.074Zm-3.83 75.239c-5.182.043-9.562-.929-13.139-2.914-3.562-1.986-6.274-4.683-8.135-8.092-1.847-3.409-2.788-7.22-2.823-11.432-.035-4.242.85-8.083 2.655-11.522 1.82-3.424 4.494-6.159 8.023-8.203 3.544-2.03 7.892-3.066 13.043-3.109 5.181-.043 9.553.921 13.115 2.892 3.577 1.985 6.29 4.675 8.136 8.069 1.861 3.409 2.81 7.234 2.845 11.477.035 4.212-.85 8.037-2.655 11.477-1.79 3.439-4.456 6.181-8 8.225-3.529 2.045-7.884 3.089-13.066 3.132Zm-.108-13c2.787-.023 5.133-.414 7.036-1.172 1.918-.743 3.363-1.838 4.336-3.286.988-1.432 1.474-3.194 1.456-5.285-.017-2.091-.532-3.852-1.544-5.283-.996-1.416-2.46-2.487-4.39-3.214-1.915-.711-4.267-1.055-7.054-1.032-2.788.023-5.141.406-7.06 1.15-1.902.758-3.348 1.853-4.336 3.286-.973 1.447-1.45 3.216-1.433 5.307.017 2.091.524 3.844 1.521 5.26 1.012 1.432 2.475 2.503 4.39 3.214 1.93.727 4.29 1.078 7.078 1.055Zm23.656 46.198.105 12.635-29.817.248c-3.545.029-6.62-.794-9.225-2.469-2.59-1.661-4.602-3.992-6.036-6.996-1.419-3.003-2.145-6.497-2.178-10.482-.033-4.015.635-7.536 2.004-10.563 1.384-3.026 3.357-5.391 5.918-7.094 2.577-1.688 5.638-2.547 9.184-2.577l29.817-.247.105 12.636-28.727.238c-1.439.012-2.724.341-3.855.987a6.885 6.885 0 0 0-2.615 2.658c-.627 1.142-.934 2.432-.922 3.871.012 1.455.34 2.74.987 3.856a6.884 6.884 0 0 0 2.658 2.614c1.141.627 2.432.935 3.871.923l28.726-.238ZM38.96 191.189l10.181-.085.336 40.453-10.181.085-.117-14-36.362.302-.103-12.454 36.362-.302-.116-13.999Zm10.89 85.418.106 12.636-29.817.247c-3.546.03-6.62-.793-9.226-2.469-2.59-1.66-4.601-3.992-6.035-6.995-1.42-3.004-2.145-6.498-2.178-10.483-.034-4.015.634-7.535 2.003-10.562 1.384-3.027 3.357-5.392 5.919-7.095 2.577-1.688 5.638-2.547 9.183-2.576l29.817-.248.105 12.636-28.726.239c-1.44.012-2.725.341-3.856.986a6.892 6.892 0 0 0-2.614 2.658c-.627 1.142-.934 2.433-.923 3.872.012 1.454.341 2.74.987 3.855a6.887 6.887 0 0 0 2.658 2.615c1.142.627 2.432.934 3.872.922l28.726-.238ZM35.67 320.459c1.514-.134 2.69-.712 3.531-1.734.84-1.007 1.252-2.533 1.235-4.578-.011-1.303-.179-2.37-.504-3.201-.31-.816-.732-1.418-1.265-1.808a3.09 3.09 0 0 0-1.823-.598 2.983 2.983 0 0 0-1.52.308c-.438.246-.836.628-1.196 1.146-.344.518-.657 1.18-.938 1.985-.281.806-.53 1.762-.749 2.87l-.786 3.825c-.524 2.58-1.226 4.791-2.104 6.631-.879 1.841-1.92 3.35-3.122 4.527-1.187 1.176-2.529 2.043-4.024 2.601-1.495.573-3.13.875-4.902.905-3.06.01-5.657-.734-7.791-2.231-2.134-1.498-3.766-3.651-4.895-6.46-1.13-2.794-1.71-6.16-1.743-10.1-.033-4.045.536-7.58 1.708-10.605 1.172-3.01 2.993-5.358 5.464-7.046 2.486-1.672 5.676-2.532 9.57-2.579l.1 12c-1.424.087-2.618.453-3.582 1.098-.965.644-1.692 1.544-2.183 2.7-.49 1.17-.728 2.559-.715 4.165.011 1.348.187 2.476.528 3.382.34.906.809 1.592 1.404 2.056a3.272 3.272 0 0 0 2.028.711 2.872 2.872 0 0 0 1.858-.72c.542-.444 1.02-1.175 1.436-2.194.431-1.019.829-2.393 1.193-4.124l.962-4.644c.86-4.129 2.325-7.391 4.396-9.787 2.087-2.381 4.948-3.579 8.584-3.594 2.955-.04 5.544.727 7.77 2.299 2.24 1.588 3.993 3.793 5.26 6.616 1.265 2.838 1.913 6.098 1.944 9.78.031 3.757-.57 7.012-1.805 9.765-1.235 2.753-2.99 4.881-5.266 6.385-2.26 1.519-4.913 2.298-7.958 2.339l-.1-12.091Z"/></mask><path d="m1.125 14.048-1 .008.007.743.712.208.281-.96ZM1.012.412l.306-.952L0-.963.012.42l1-.008Zm46.672 14.977 1-.009-.006-.723-.689-.22-.305.952Zm.143 17.272.321.947.685-.232-.006-.723-1 .008ZM1.411 48.41l-1 .007.011 1.383 1.31-.444-.321-.947Zm-.114-13.637-.296-.955-.71.22.006.743 1-.008ZM34.94 24.313l.297.955.71-.22-.007-.743-1 .008Zm-.003-.364 1-.008-.006-.743-.713-.208-.28.96Zm-15.469-12.6 1-.007-.008-1-1 .008.008 1Zm.213 25.636.008 1 1-.008-.008-1-1 .008Zm-9.454.079-1 .008.008 1 1-.008-.008-1Zm-.213-25.636-.008-1-1 .009.008 1 1-.009ZM2.125 14.04 2.012.403l-2 .017.114 13.636 2-.017ZM.707 1.364 47.378 16.34l.611-1.905L1.318-.54.707 1.364Zm45.977 14.033.143 17.272 2-.016-.143-17.273-2 .017Zm.822 16.317L1.089 47.464l.643 1.893 46.416-15.75-.642-1.893ZM2.41 48.402l-.114-13.636-2 .017.114 13.635 2-.016Zm-.817-12.673 33.642-10.461-.594-1.91L1.001 33.819l.593 1.91ZM35.94 24.305l-.003-.364-2 .017.003.363 2-.016Zm-.722-1.315-33.81-9.902-.563 1.92 33.811 9.901.562-1.92Zm-16.75-11.632.213 25.636 2-.017-.213-25.635-2 .016Zm1.205 24.627-9.455.079.017 2 9.454-.079-.016-2Zm-8.446 1.07-.213-25.635-2 .017.213 25.635 2-.017ZM10.02 12.429l9.455-.078-.017-2-9.454.078.016 2ZM1.448 52.893l-.009-1-1 .008.009 1 1-.008Zm46.544-.386 1-.009-.009-1-1 .009.009 1Zm-1.19 29.124-.933-.36-.001.002.933.358Zm-4 5.51-.583-.812-.005.004.587.809Zm-10.835.818.466-.885-.007-.004-.459.89Zm-3.571-3.107-.816.579.004.006.812-.585Zm-1.994-4.71.979-.206-.169-.801-.818.006.008 1Zm-.455.003-.008-1-.963.008-.028.962 1 .03Zm-1.477 5.467-.871-.49-.004.005.875.485Zm-3.808 3.94-.517-.855-.004.002.52.854Zm-12.527-.44.55-.835-.004-.003-.546.837Zm-4.729-5.598.903-.43-.903.43Zm8.237-18.069-.008-1-1 .008.008 1 1-.008Zm1.27 10.672-.797.603.005.007.793-.61Zm8.035-1.362-.92-.39-.003.005.923.385Zm.513-9.391 1-.009-.008-1-1 .009.008 1Zm7.818-.065-.008-1-1 .008.008 1 1-.008Zm.59 8.109-.922.387.922-.387Zm1.516 1.965.582-.814-.004-.002-.578.816Zm5.72-.866-.804-.594-.006.008.81.586Zm1.083-9.282 1-.008-.009-1-1 .008.009 1ZM1.456 53.893 48 53.507l-.017-2-46.544.386.017 2Zm45.536-1.378.167 20.181 2-.016-.167-20.182-2 .017Zm.167 20.181c.029 3.463-.415 6.31-1.29 8.575l1.865.72c.993-2.568 1.455-5.683 1.425-9.311l-2 .016Zm-1.291 8.577c-.88 2.29-2.108 3.951-3.65 5.056l1.166 1.626c1.923-1.379 3.362-3.391 4.35-5.965l-1.866-.717Zm-3.654 5.06c-1.546 1.121-3.386 1.706-5.564 1.724l.016 2c2.55-.022 4.805-.714 6.723-2.106l-1.175-1.618Zm-5.564 1.724c-1.559.013-2.958-.32-4.217-.983l-.932 1.77c1.571.828 3.3 1.228 5.165 1.213l-.016-2Zm-4.224-.987c-1.27-.655-2.342-1.584-3.219-2.802l-1.623 1.169c1.054 1.463 2.364 2.605 3.924 3.41l.918-1.776Zm-3.215-2.796c-.862-1.216-1.477-2.657-1.83-4.338l-1.958.411c.404 1.918 1.118 3.619 2.157 5.084l1.631-1.157Zm-2.817-5.133-.455.004.017 2 .454-.004-.016-2Zm-1.446.974c-.055 1.85-.508 3.512-1.35 5.006l1.743.982c1.01-1.794 1.542-3.776 1.606-5.928l-2-.06Zm-1.353 5.013a9.448 9.448 0 0 1-3.45 3.569l1.034 1.712a11.448 11.448 0 0 0 4.166-4.312l-1.75-.97Zm-3.454 3.571c-1.435.875-3.157 1.339-5.203 1.356l.017 2c2.348-.02 4.436-.557 6.227-1.648l-1.04-1.708Zm-5.203 1.356c-2.36.02-4.433-.578-6.252-1.778l-1.102 1.67c2.173 1.432 4.64 2.13 7.371 2.108l-.017-2Zm-6.257-1.781c-1.822-1.189-3.284-2.904-4.372-5.19l-1.806.86c1.226 2.574 2.916 4.59 5.086 6.005l1.092-1.675Zm-4.372-5.19c-1.08-2.269-1.652-5.022-1.68-8.291l-2 .016c.03 3.489.641 6.544 1.874 9.135l1.806-.86Zm-1.68-8.291-.181-21.908-2 .016L.63 74.81l2-.016Zm8.014-9.34.05 5.91 2-.017-.05-5.91-2 .017Zm.05 5.91c.018 2.215.44 4.055 1.423 5.357l1.595-1.206c-.61-.807-1.002-2.142-1.019-4.168l-2 .016Zm1.428 5.364c1.038 1.347 2.547 1.966 4.36 1.951l-.017-2c-1.309.011-2.172-.41-2.758-1.171l-1.585 1.22Zm4.36 1.951c1.246-.01 2.369-.307 3.315-.943l-1.115-1.66c-.56.377-1.282.595-2.217.603l.016 2Zm3.315-.943c.934-.627 1.622-1.507 2.075-2.596l-1.846-.769c-.32.767-.77 1.32-1.344 1.705l1.115 1.66Zm2.073-2.59c.453-1.07.654-2.314.643-3.699l-2 .017c.01 1.19-.165 2.147-.485 2.902l1.842.78Zm.643-3.699-.051-6.09-2 .016.05 6.09 2-.016Zm-1.06-7.082-9.817.081.017 2 9.817-.081-.016-2Zm6.827.943.043 5.182 2-.017-.043-5.181-2 .016Zm.043 5.182c.01 1.21.21 2.319.625 3.306l1.844-.775c-.296-.703-.46-1.546-.47-2.548l-2 .017Zm.625 3.306c.418.993 1.032 1.807 1.86 2.394l1.156-1.632c-.482-.342-.879-.838-1.172-1.537l-1.844.775Zm1.857 2.391c.869.621 1.896.903 3.027.894l-.016-2c-.778.006-1.376-.183-1.848-.521l-1.163 1.627Zm3.027.894c1.712-.015 3.124-.658 4.085-1.987l-1.621-1.172c-.537.744-1.313 1.149-2.48 1.159l.016 2Zm4.08-1.98c.919-1.247 1.336-2.777 1.321-4.52l-2 .017c.012 1.408-.322 2.49-.931 3.317l1.61 1.186Zm1.321-4.52-.044-5.363-2 .016.044 5.364 2-.017Zm-1.053-6.355-8.908.074.016 2 8.909-.074-.017-2ZM12.31 137.624l-.487.873.002.001.485-.874Zm-8.135-8.092-.88.476.002.003.878-.479Zm-.168-22.954-.883-.469-.003.004.886.465Zm8.023-8.203-.497-.868-.004.003.501.865Zm26.158-.217.485-.874v-.001l-.485.875Zm8.136 8.069-.879.478.001.001.878-.479Zm.19 22.954-.885-.465-.002.003.887.462Zm-8 8.225-.5-.866-.002.001.502.865Zm-6.137-11.04-.362-.932-.009.003.37.929Zm4.336-3.286-.823-.568-.007.01.83.558Zm-.088-10.568-.817.576v.002l.817-.578Zm-4.39-3.214.352-.935-.004-.002-.348.937Zm-14.113.118-.361-.933-.01.004.37.929Zm-4.337 3.286-.823-.568-.007.01.83.558Zm.088 10.567-.818.576.002.002.816-.578Zm4.39 3.214.353-.936-.004-.001-.349.937Zm7.177 13.055c-5.054.042-9.253-.906-12.645-2.788l-.97 1.748c3.763 2.089 8.323 3.084 13.632 3.04l-.017-2Zm-12.643-2.788c-3.406-1.898-5.978-4.462-7.745-7.697l-1.755.958c1.957 3.583 4.808 6.414 8.526 8.486l.974-1.747Zm-7.743-7.694c-1.762-3.253-2.668-6.901-2.702-10.964l-2 .017c.037 4.361 1.012 8.334 2.943 11.899l1.759-.952Zm-2.702-10.964c-.034-4.093.819-7.769 2.54-11.049l-1.77-.93c-1.889 3.599-2.806 7.604-2.77 11.996l2-.017Zm2.538-11.045c1.728-3.25 4.266-5.851 7.641-7.807l-1.002-1.73c-3.682 2.133-6.493 5.001-8.405 8.599l1.766.938Zm7.637-7.804c3.36-1.925 7.53-2.935 12.554-2.977l-.016-2c-5.28.044-9.805 1.107-13.532 3.241l.994 1.736Zm12.554-2.977c5.056-.041 9.248.9 12.623 2.767l.968-1.75c-3.748-2.074-8.3-3.06-13.607-3.016l.016 2Zm12.622 2.766c3.421 1.899 5.992 4.456 7.742 7.673l1.757-.956c-1.943-3.571-4.795-6.393-8.529-8.465l-.97 1.748Zm7.743 7.674c1.776 3.252 2.689 6.913 2.723 11.006l2-.017c-.036-4.391-1.02-8.381-2.968-11.947l-1.755.958Zm2.723 11.006c.034 4.062-.819 7.723-2.54 11.004l1.77.929c1.888-3.597 2.806-7.587 2.77-11.95l-2 .017Zm-2.542 11.007c-1.697 3.261-4.225 5.866-7.613 7.821l1 1.733c3.699-2.135 6.505-5.013 8.387-8.631l-1.774-.923Zm-7.614 7.822c-3.344 1.937-7.518 2.955-12.573 2.997l.017 2c5.309-.044 9.844-1.114 13.558-3.266l-1.002-1.731Zm-12.664-8.003c2.87-.024 5.346-.426 7.398-1.243l-.74-1.858c-1.755.699-3.969 1.079-6.675 1.101l.017 2Zm7.389-1.239c2.074-.804 3.699-2.015 4.805-3.661l-1.66-1.116c-.84 1.249-2.105 2.229-3.868 2.912l.723 1.865Zm4.798-3.651c1.127-1.634 1.652-3.607 1.633-5.861l-2 .016c.016 1.928-.43 3.478-1.28 4.709l1.647 1.136Zm1.633-5.861c-.018-2.255-.576-4.225-1.727-5.852l-1.633 1.155c.873 1.234 1.344 2.786 1.36 4.713l2-.016Zm-1.726-5.85c-1.133-1.61-2.774-2.791-4.856-3.574l-.704 1.871c1.779.67 3.064 1.631 3.925 2.854l1.635-1.151Zm-4.86-3.576c-2.062-.766-4.543-1.119-7.41-1.095l.016 2c2.707-.022 4.93.313 6.698.97l.696-1.875Zm-7.41-1.095c-2.869.024-5.35.418-7.412 1.217l.722 1.865c1.773-.687 3.999-1.06 6.706-1.082l-.017-2Zm-7.421 1.221c-2.053.818-3.671 2.025-4.79 3.647l1.646 1.135c.858-1.242 2.131-2.226 3.884-2.924l-.74-1.858Zm-4.797 3.657c-1.106 1.646-1.622 3.622-1.603 5.873l2-.016c-.016-1.93.424-3.492 1.263-4.742l-1.66-1.115Zm-1.603 5.873c.019 2.252.567 4.214 1.703 5.828l1.636-1.151c-.857-1.218-1.323-2.763-1.339-4.693l-2 .016Zm1.704 5.83c1.147 1.621 2.787 2.804 4.86 3.574l.696-1.875c-1.759-.653-3.045-1.613-3.922-2.854l-1.633 1.155Zm4.855 3.572c2.078.782 4.568 1.143 7.438 1.119l-.017-2c-2.705.023-4.934-.32-6.716-.991l-.705 1.872Zm31.086 46.317 1-.009-.008-1-1 .009.008 1Zm.105 12.635.009 1 1-.008-.009-1-1 .008ZM10.06 184.15l.54-.841v-.001l-.54.842Zm-6.036-6.996-.904.427.002.004.902-.431Zm-.174-21.045-.91-.415-.002.003.912.412Zm5.918-7.094-.548-.837-.005.004.553.833Zm39-2.824 1-.008-.007-1-1 .008.008 1Zm.106 12.636.008 1 1-.008-.008-1-1 .008Zm-32.582 1.225-.496-.869-.005.003.5.866Zm-2.615 2.658-.873-.486-.003.005.877.481Zm.065 7.727-.866.501.866-.501Zm2.658 2.614-.487.874.005.003.482-.877Zm31.597.693.105 12.636 2-.017-.105-12.636-2 .017Zm1.097 11.627-29.817.248.016 2 29.818-.248-.017-2Zm-29.817.248c-3.38.028-6.258-.755-8.676-2.31l-1.082 1.682c2.791 1.795 6.063 2.659 9.774 2.628l-.016-2Zm-8.678-2.311c-2.42-1.552-4.312-3.735-5.672-6.585l-1.805.862c1.507 3.157 3.639 5.637 6.398 7.407l1.08-1.684Zm-5.67-6.581c-1.346-2.849-2.05-6.195-2.083-10.063l-2 .016c.034 4.101.782 7.743 2.274 10.901l1.808-.854Zm-2.083-10.063c-.032-3.9.617-7.273 1.915-10.142l-1.823-.825C1.498 158.881.812 162.55.846 166.68l2-.016Zm1.913-10.139c1.313-2.871 3.169-5.086 5.563-6.678l-1.107-1.665c-2.73 1.815-4.82 4.33-6.275 7.512l1.82.831Zm5.557-6.674c2.394-1.568 5.26-2.385 8.644-2.413l-.017-2c-3.707.031-6.962.932-9.723 2.74l1.096 1.673Zm8.644-2.413 29.817-.247-.016-2-29.818.247.017 2Zm28.809-1.239.105 12.636 2-.016-.105-12.636-2 .016Zm1.096 11.628-28.726.238.017 2 28.726-.238-.017-2Zm-28.726.238c-1.592.014-3.048.379-4.343 1.118l.992 1.737c.967-.552 2.081-.844 3.368-.855l-.017-2Zm-4.348 1.121a7.882 7.882 0 0 0-2.987 3.038l1.747.972a5.896 5.896 0 0 1 2.242-2.279l-1.002-1.731Zm-2.99 3.043c-.718 1.307-1.06 2.769-1.046 4.361l2-.017c-.01-1.287.263-2.405.799-3.382l-1.753-.962Zm-1.046 4.361c.013 1.605.378 3.064 1.121 4.348l1.731-1.002c-.548-.948-.841-2.059-.852-3.363l-2 .017Zm1.121 4.348a7.887 7.887 0 0 0 3.037 2.987l.973-1.747a5.891 5.891 0 0 1-2.279-2.242l-1.731 1.002Zm3.042 2.99c1.307.718 2.77 1.059 4.361 1.046l-.016-2c-1.287.011-2.406-.263-3.382-.799l-.963 1.753Zm4.361 1.046 28.727-.239-.017-1.999-28.726.238.016 2Zm18.681 16.215-.008-1-1 .008.008 1 1-.008Zm10.181-.085 1-.008-.008-1-1 .008.008 1Zm.336 40.453.008 1 1-.008-.008-1-1 .008Zm-10.181.085-1 .008.008 1 1-.008-.008-1Zm-.117-14 1-.008-.008-1-1 .008.008 1Zm-36.362.302-1 .008.008 1 1-.008-.008-1Zm-.103-12.454-.008-1-1 .008.008 1 1-.008Zm36.362-.302.008 1 1-.008-.008-1-1 .008Zm-.108-12.999 10.182-.085-.017-2-10.181.085.016 2Zm9.173-1.076.336 40.453 2-.017-.335-40.453-2 .017Zm1.328 39.444-10.182.085.017 2 10.181-.085-.016-2Zm-9.173 1.077-.117-14-2 .017.117 13.999 2-.016Zm-1.125-14.992-36.362.302.016 2 36.363-.302-.017-2Zm-35.354 1.294-.103-12.454-2 .016.103 12.454 2-.016ZM2.722 206.49l36.363-.302-.017-2-36.362.302.016 2Zm37.354-1.31-.116-14-2 .017.116 14 2-.017Zm9.775 71.427 1-.008-.008-1-1 .008.008 1Zm.105 12.636.008 1 1-.008-.008-1-1 .008Zm-39.043-2.222.541-.841-.001-.001-.54.842Zm-6.035-6.995-.904.427.001.004.903-.431Zm-.175-21.045-.91-.416-.001.004.911.412Zm5.919-7.095-.548-.836-.006.003.554.833Zm39-2.824 1-.008-.008-1-1 .008.008 1Zm.105 12.636.009 1 1-.008-.009-1-1 .008Zm-32.582 1.225-.495-.868-.005.003.5.865Zm-2.614 2.658-.874-.486-.003.005.877.481Zm.064 7.727-.866.501.866-.501Zm2.658 2.615-.486.874.005.002.481-.876Zm31.598.692.105 12.636 2-.016-.105-12.636-2 .016Zm1.096 11.628-29.817.247.017 2 29.817-.247-.017-2Zm-29.817.247c-3.38.028-6.257-.754-8.676-2.31l-1.082 1.682c2.792 1.796 6.064 2.659 9.775 2.628l-.017-2Zm-8.677-2.311c-2.42-1.551-4.312-3.735-5.673-6.584l-1.805.862c1.508 3.157 3.64 5.637 6.399 7.406l1.079-1.684Zm-5.671-6.581c-1.346-2.848-2.05-6.195-2.082-10.063l-2 .017c.034 4.101.782 7.743 2.274 10.901l1.808-.855ZM3.7 269.535c-.033-3.9.616-7.272 1.914-10.142l-1.822-.824c-1.44 3.183-2.126 6.852-2.092 10.983l2-.017Zm1.913-10.138c1.313-2.872 3.168-5.087 5.562-6.678l-1.107-1.666c-2.73 1.815-4.82 4.33-6.274 7.512l1.819.832Zm5.557-6.674c2.393-1.568 5.26-2.385 8.644-2.413l-.017-2c-3.708.031-6.963.931-9.723 2.74l1.096 1.673Zm8.644-2.413 29.817-.248-.017-2-29.817.248.017 2Zm28.808-1.239.105 12.636 2-.017-.105-12.636-2 .017Zm1.097 11.627-28.726.239.016 2 28.727-.239-.017-2Zm-28.726.239c-1.592.013-3.049.379-4.343 1.118l.991 1.737c.967-.553 2.082-.845 3.368-.855l-.016-2Zm-4.348 1.121a7.886 7.886 0 0 0-2.988 3.037l1.748.973a5.883 5.883 0 0 1 2.241-2.279l-1.002-1.731Zm-2.99 3.042c-.718 1.307-1.06 2.769-1.046 4.361l2-.016c-.011-1.287.262-2.406.799-3.382l-1.754-.963Zm-1.046 4.361c.013 1.605.377 3.064 1.12 4.348l1.732-1.001c-.549-.948-.842-2.059-.853-3.363l-2 .016Zm1.12 4.348a7.89 7.89 0 0 0 3.038 2.988l.973-1.748a5.888 5.888 0 0 1-2.28-2.241l-1.73 1.001Zm3.043 2.99c1.307.718 2.769 1.059 4.36 1.046l-.016-2c-1.286.011-2.405-.263-3.381-.799l-.963 1.753Zm4.36 1.046 28.727-.238-.016-2-28.727.238.017 2Zm14.537 42.614-.088-.996-.92.081.008.923 1-.008Zm3.531-1.734-.768-.64-.005.005.773.635Zm.73-7.779-.934.355.004.01.93-.365Zm-1.264-1.808.59-.807-.59.807Zm-1.823-.598-.046.999.016.001h.016l.014-1Zm-1.52.308-.455-.891-.018.009-.018.01.49.872Zm-1.196 1.146-.821-.57-.006.009-.006.008.833.553Zm-1.687 4.855.98.202.002-.009-.982-.193Zm-.786 3.825-.98-.201v.002l.98.199Zm-2.104 6.631-.903-.43.903.43Zm-3.122 4.527-.7-.715-.004.004.704.711Zm-4.024 2.601-.35-.937-.008.003.358.934Zm-4.902.905.004 1 .013-.001-.017-.999Zm-7.791-2.231-.575.818.575-.818Zm-4.895-6.46.928-.373v-.002l-.928.375Zm-.035-20.705-.932-.363v.002l.932.361Zm5.464-7.046-.558-.829-.006.004.564.825Zm9.57-2.579 1-.008-.008-1.004-1.004.012.012 1Zm.1 12 .06.998.947-.059-.008-.948-1 .009Zm-3.582 1.098-.556-.832.556.832Zm-2.183 2.7-.92-.391-.002.004.922.387Zm-.187 7.547-.936.352.936-.352Zm1.404 2.056-.616.788.616-.788Zm2.028.711-.011 1h.02l.02-.001-.029-.999Zm1.858-.72-.634-.774-.012.01-.011.01.657.754Zm1.436-2.194-.92-.39-.006.012.926.378Zm1.193-4.124.979.206v-.003l-.979-.203Zm.962-4.644-.98-.204v.001l.98.203Zm4.396-9.787-.752-.659-.004.005.756.654Zm8.584-3.594.004 1h.01l-.014-1Zm7.77 2.299.578-.816h-.001l-.577.816Zm5.26 6.616.912-.407v-.002l-.913.409Zm.139 19.545-.913-.409.913.409Zm-5.266 6.385-.551-.835-.007.005.558.83Zm-7.958 2.339-1 .008.008 1.005 1.005-.014-.013-.999Zm-.012-11.095c1.738-.153 3.18-.834 4.215-2.095l-1.545-1.27c-.643.784-1.556 1.259-2.846 1.373l.176 1.992Zm4.21-2.089c1.058-1.267 1.486-3.071 1.468-5.228l-2 .017c.016 1.934-.38 3.182-1.003 3.93l1.536 1.281Zm1.468-5.228c-.012-1.373-.188-2.573-.573-3.556l-1.862.729c.265.677.425 1.612.435 2.844l2-.017Zm-.57-3.547c-.356-.94-.877-1.725-1.61-2.26l-1.179 1.615c.334.244.657.664.92 1.355l1.87-.71Zm-1.61-2.26a4.086 4.086 0 0 0-2.398-.791l-.028 2c.482.006.887.143 1.247.406l1.18-1.615Zm-2.367-.79a3.981 3.981 0 0 0-2.02.416l.909 1.782a1.986 1.986 0 0 1 1.02-.2l.091-1.998Zm-2.056.435c-.599.337-1.102.837-1.526 1.448l1.643 1.14c.295-.425.588-.689.864-.845l-.98-1.743Zm-1.538 1.465c-.404.608-.75 1.351-1.049 2.209l1.888.659c.263-.753.543-1.333.827-1.761l-1.666-1.107Zm-1.049 2.209c-.3.861-.561 1.866-.786 3.006l1.963.386c.211-1.075.45-1.984.711-2.733l-1.888-.659Zm-.784 2.998-.787 3.825 1.96.403.786-3.825-1.96-.403Zm-.787 3.827c-.512 2.522-1.192 4.651-2.027 6.4l1.805.861c.922-1.932 1.646-4.224 2.182-6.863l-1.96-.398Zm-2.027 6.4c-.838 1.756-1.816 3.162-2.918 4.242l1.398 1.429c1.302-1.274 2.406-2.885 3.325-4.81l-1.805-.861Zm-2.923 4.246c-1.091 1.082-2.313 1.869-3.67 2.375l.7 1.874c1.634-.61 3.095-1.557 4.378-2.828l-1.408-1.421Zm-3.678 2.378c-1.375.527-2.892.811-4.56.839l.033 1.999c1.877-.031 3.628-.351 5.243-.97l-.716-1.868Zm-4.547.839c-2.891.009-5.277-.691-7.214-2.05l-1.149 1.637c2.331 1.636 5.14 2.423 8.37 2.413l-.007-2Zm-7.214-2.05c-1.95-1.369-3.472-3.355-4.541-6.014l-1.856.746c1.19 2.959 2.932 5.279 5.248 6.905l1.15-1.637Zm-4.542-6.016c-1.07-2.647-1.638-5.883-1.67-9.733l-2 .017c.034 4.028.628 7.526 1.816 10.466l1.854-.75Zm-1.67-9.733c-.033-3.949.524-7.354 1.64-10.236l-1.865-.722c-1.227 3.168-1.81 6.833-1.775 10.975l2-.017Zm1.64-10.234c1.104-2.838 2.805-5.018 5.096-6.583l-1.128-1.651c-2.65 1.81-4.593 4.326-5.832 7.508l1.864.726Zm5.09-6.579c2.283-1.535 5.268-2.363 9.024-2.409l-.024-2c-4.031.049-7.426.941-10.116 2.75l1.116 1.659Zm8.012-3.401.1 12 2-.017-.1-11.999-2 .016Zm1.038 10.993c-1.56.096-2.934.502-4.076 1.265l1.111 1.663c.787-.526 1.8-.852 3.088-.931l-.123-1.997Zm-4.076 1.265c-1.14.762-1.987 1.821-2.547 3.141l1.84.781c.422-.991 1.03-1.732 1.818-2.259l-1.111-1.663Zm-2.549 3.145c-.554 1.324-.807 2.853-.793 4.56l2-.017c-.013-1.505.212-2.753.638-3.77l-1.845-.773Zm-.793 4.56c.012 1.423.197 2.676.592 3.726l1.872-.704c-.287-.763-.454-1.765-.464-3.039l-2 .017Zm.592 3.726c.388 1.03.949 1.887 1.724 2.492l1.231-1.576c-.414-.323-.789-.838-1.083-1.62l-1.872.704Zm1.724 2.492a4.271 4.271 0 0 0 2.633.923l.023-2a2.267 2.267 0 0 1-1.425-.499l-1.231 1.576Zm2.674.922a3.869 3.869 0 0 0 2.485-.965l-1.314-1.508a1.87 1.87 0 0 1-1.23.474l.059 1.999Zm2.462-.946c.723-.593 1.282-1.496 1.728-2.589l-1.852-.756c-.385.944-.784 1.504-1.144 1.798l1.268 1.547Zm1.723-2.577c.466-1.103.88-2.547 1.25-4.308l-1.956-.412c-.358 1.7-.74 3.005-1.136 3.941l1.842.779Zm1.252-4.311.961-4.644-1.958-.406-.962 4.645 1.959.405Zm.96-4.643c.837-4.015 2.246-7.105 4.175-9.337l-1.513-1.308c-2.214 2.561-3.736 5.995-4.62 10.237l1.959.408Zm4.17-9.332c1.869-2.132 4.44-3.239 7.836-3.253l-.008-2c-3.876.016-7.028 1.305-9.332 3.935l1.504 1.318Zm7.846-3.253c2.761-.037 5.14.676 7.178 2.116l1.155-1.633c-2.413-1.705-5.213-2.525-8.36-2.483l.027 2Zm7.177 2.115c2.077 1.472 3.724 3.528 4.926 6.209l1.825-.818c-1.33-2.965-3.19-5.319-5.594-7.023l-1.157 1.632Zm4.925 6.207c1.2 2.692 1.828 5.812 1.858 9.381l2-.017c-.032-3.794-.7-7.194-2.032-10.178l-1.826.814Zm1.858 9.381c.03 3.648-.555 6.754-1.718 9.348l1.825.818c1.306-2.912 1.925-6.316 1.893-10.183l-2 .017Zm-1.718 9.348c-1.166 2.598-2.803 4.571-4.904 5.959l1.103 1.669c2.45-1.619 4.322-3.903 5.626-6.81l-1.825-.818Zm-4.91 5.964c-2.08 1.398-4.54 2.131-7.414 2.169l.026 1.999c3.216-.042 6.063-.869 8.503-2.508l-1.115-1.66Zm-6.401 3.16-.1-12.09-2 .016.1 12.091 2-.017Z" fill="#05C2DF" mask="url('#path-1-outside-1_1_396')"/></svg>