<svg width="39" height="251" fill="none" xmlns="http://www.w3.org/2000/svg"><mask id="path-1-outside-1_1_5917" maskUnits="userSpaceOnUse" x="-1.008" y="-1.498" width="41.098" height="253.315" fill="#000"><path fill="#fff" d="M-1.008-1.498H40.09v253.315H-1.008z"/><path d="M1.095 11.127 1.01.9l35.003 11.233.108 12.954L1.308 36.899l-.084-10.227 25.23-7.846-.002-.273-25.357-7.426ZM14.85 9.104l.16 19.227-7.091.058-.16-19.226 7.091-.06ZM1.336 40.26l34.908-.29.126 15.136c.022 2.66-.318 4.895-1.018 6.708-.701 1.824-1.701 3.202-3 4.133-1.3.943-2.835 1.421-4.608 1.436-1.284.01-2.457-.264-3.518-.823a7.524 7.524 0 0 1-2.679-2.33c-.713-1.006-1.211-2.184-1.495-3.534l-.341.003c-.044 1.5-.414 2.867-1.108 4.1a7.836 7.836 0 0 1-2.856 2.956c-1.21.737-2.639 1.113-4.287 1.127-1.909.016-3.612-.47-5.108-1.458-1.497-.976-2.68-2.376-3.547-4.198-.867-1.822-1.311-4-1.332-6.535l-.137-16.43Zm7.647 9.414.037 4.432c.013 1.59.318 2.782.916 3.572.608.79 1.498 1.18 2.668 1.171.819-.007 1.51-.2 2.075-.58.565-.38.993-.917 1.282-1.613.29-.684.431-1.509.423-2.475l-.038-4.568-7.363.061Zm13.227-.11.032 3.887c.007.83.143 1.561.41 2.195.267.635.646 1.126 1.137 1.474.503.36 1.113.536 1.829.53 1.08-.009 1.9-.402 2.462-1.18.573-.777.854-1.757.845-2.938l-.034-4.023-6.681.056Zm-2.873 56.43c-3.886.032-7.171-.697-9.854-2.186-2.671-1.489-4.705-3.512-6.102-6.069-1.384-2.556-2.09-5.414-2.116-8.573-.027-3.182.637-6.063 1.99-8.642 1.366-2.568 3.372-4.62 6.018-6.152 2.658-1.523 5.919-2.3 9.782-2.332 3.886-.032 7.165.69 9.837 2.169 2.683 1.489 4.716 3.506 6.101 6.052 1.396 2.556 2.108 5.425 2.134 8.607.026 3.16-.637 6.028-1.991 8.608-1.342 2.579-3.342 4.636-6 6.169-2.647 1.534-5.913 2.316-9.8 2.349Zm-.081-9.75c2.09-.017 3.85-.31 5.277-.879 1.438-.557 2.523-1.379 3.252-2.465.741-1.074 1.105-2.395 1.092-3.963-.013-1.568-.398-2.89-1.157-3.962-.748-1.063-1.846-1.866-3.293-2.41-1.437-.534-3.2-.792-5.291-.775-2.09.017-3.856.305-5.294.862-1.427.569-2.511 1.39-3.253 2.465-.73 1.085-1.088 2.412-1.075 3.98.013 1.569.394 2.883 1.141 3.946.76 1.073 1.857 1.876 3.293 2.41 1.448.545 3.217.808 5.308.791Zm17.742 34.648.08 9.477-22.364.186c-2.659.022-4.965-.596-6.919-1.852-1.942-1.246-3.45-2.994-4.526-5.247-1.065-2.253-1.609-4.873-1.634-7.862-.025-3.011.476-5.652 1.503-7.921 1.038-2.271 2.517-4.044 4.439-5.322 1.932-1.266 4.228-1.91 6.887-1.932l22.363-.185.079 9.477-21.545.178c-1.08.009-2.043.256-2.892.74a5.17 5.17 0 0 0-1.96 1.994c-.47.856-.701 1.824-.692 2.903.009 1.091.255 2.055.74 2.892a5.163 5.163 0 0 0 1.993 1.961c.856.47 1.824.701 2.904.692l21.544-.179Zm-7.527 13.09 7.636-.063.251 30.339-7.636.064-.087-10.5-27.272.226-.077-9.34 27.272-.226-.087-10.5Zm8.168 64.064.078 9.477-22.363.185c-2.659.022-4.965-.595-6.919-1.852-1.942-1.245-3.45-2.994-4.526-5.246-1.064-2.253-1.609-4.874-1.634-7.862-.025-3.011.476-5.652 1.503-7.922 1.038-2.27 2.517-4.044 4.439-5.321 1.932-1.266 4.228-1.91 6.887-1.932l22.363-.186.079 9.477-21.545.179c-1.08.009-2.043.256-2.892.74a5.162 5.162 0 0 0-1.96 1.994c-.47.856-.701 1.824-.692 2.903.009 1.091.255 2.055.74 2.892a5.17 5.17 0 0 0 1.993 1.961c.857.47 1.824.7 2.904.691l21.545-.178Zm-10.637 32.889c1.136-.101 2.018-.534 2.648-1.301.63-.755.94-1.9.927-3.434-.009-.977-.135-1.777-.378-2.4-.233-.612-.549-1.064-.95-1.356a2.318 2.318 0 0 0-1.367-.449c-.42-.019-.8.058-1.14.231-.328.185-.627.472-.896.86-.258.389-.493.885-.704 1.489-.21.604-.398 1.321-.561 2.152l-.59 2.869c-.393 1.935-.92 3.593-1.578 4.974-.66 1.38-1.44 2.512-2.341 3.394a8.44 8.44 0 0 1-3.018 1.951c-1.122.43-2.347.656-3.677.679-2.295.007-4.243-.55-5.843-1.674-1.6-1.123-2.824-2.738-3.671-4.844-.847-2.096-1.283-4.621-1.308-7.575-.025-3.034.402-5.685 1.281-7.954.879-2.257 2.245-4.019 4.098-5.284 1.865-1.254 4.257-1.899 7.178-1.935l.074 9c-1.067.066-1.963.34-2.686.823-.723.484-1.269 1.159-1.637 2.025-.367.878-.546 1.92-.536 3.124.008 1.012.14 1.857.396 2.537.255.68.606 1.194 1.052 1.542.446.349.954.526 1.522.533a2.157 2.157 0 0 0 1.393-.54c.407-.333.766-.881 1.077-1.645.324-.764.622-1.795.895-3.093l.721-3.483c.645-3.097 1.744-5.543 3.297-7.34 1.565-1.786 3.711-2.685 6.439-2.696 2.215-.03 4.158.545 5.827 1.724 1.68 1.191 2.995 2.845 3.944 4.962.95 2.129 1.436 4.574 1.459 7.335.023 2.818-.428 5.259-1.354 7.324-.926 2.064-2.242 3.661-3.95 4.788-1.694 1.14-3.684 1.724-5.968 1.755l-.075-9.068Z"/></mask><path d="m1.095 11.127-1 .008.006.743.713.209.28-.96ZM1.01.9l.305-.952-1.317-.423L.01.91l1-.009Zm35.003 11.233 1-.008-.006-.723-.688-.221-.306.952Zm.108 12.954.321.947.685-.232-.006-.723-1 .008ZM1.308 36.899l-1 .008.012 1.383 1.31-.444-.322-.947Zm-.084-10.227-.297-.955-.71.22.007.743 1-.008Zm25.23-7.846.298.955.709-.22-.006-.743-1 .008Zm-.002-.273 1-.008-.006-.743-.712-.208-.282.96Zm-11.601-9.45 1-.007-.008-1-1 .008.008 1Zm.16 19.228.008 1 1-.009-.008-1-1 .009Zm-7.091.058-1 .009.008 1 1-.009-.008-1ZM7.76 9.163l-.008-1-1 .008.008 1 1-.008Zm-5.665 1.956L2.01.892l-2 .017.085 10.226 2-.016ZM.705 1.852l35.003 11.233.61-1.904L1.316-.052l-.61 1.904Zm34.308 10.29.108 12.953 2-.016-.108-12.954-2 .016ZM35.8 24.14.987 35.952l.643 1.894 34.812-11.812-.643-1.894ZM2.31 36.89l-.085-10.226-2 .016.084 10.227 2-.016Zm-.789-9.263 25.232-7.846-.594-1.91L.927 25.717l.593 1.91Zm25.935-8.81-.002-.272-2 .017.002.272 2-.016Zm-.721-1.223L1.376 10.167l-.562 1.92 25.358 7.426.562-1.92ZM13.85 9.112l.16 19.227 2-.017-.16-19.226-2 .016Zm1.151 18.218-7.09.06.016 2 7.09-.06-.016-2ZM8.92 28.381 8.76 9.154l-2 .017.16 19.227 2-.017ZM7.769 10.163l7.09-.06-.016-2-7.091.06.017 2ZM1.336 40.26l-.008-1-1 .008.008 1 1-.008Zm34.908-.29 1-.008-.008-1-1 .008.008 1Zm-.892 21.844-.933-.36-.001.001.934.359Zm-3 4.133-.583-.813-.005.003.588.81Zm-8.126.613.466-.885-.008-.004-.458.889Zm-2.679-2.33-.816.578.005.006.811-.584Zm-1.495-3.534.979-.205-.169-.801-.818.006.008 1Zm-.341.003-.008-1-.963.008-.028.963.999.03Zm-1.108 4.1-.871-.49-.004.006.875.484Zm-2.856 2.956-.517-.856-.004.002.52.854Zm-9.395-.331.55-.835-.004-.003-.546.838Zm-3.547-4.198.903-.43-.903.43Zm6.178-13.552-.008-1-1 .009.008 1 1-.009Zm.953 8.004-.798.603.005.007.793-.61Zm6.025-1.022-.92-.39-.003.006.923.384Zm.385-7.043 1-.008-.008-1-1 .008.008 1Zm5.864-.048-.009-1-1 .008.009 1 1-.008Zm.442 6.081-.922.388.922-.388Zm1.137 1.474.582-.814-.003-.002-.579.816Zm4.29-.65-.804-.593-.006.008.81.586Zm.812-6.96 1-.01-.008-1-1 .01.008 1ZM1.345 41.26l34.907-.29-.016-2-34.908.29.017 2Zm33.9-1.281.125 15.136 2-.017-.126-15.136-2 .017Zm.125 15.136c.021 2.576-.31 4.678-.951 6.338l1.865.721c.76-1.964 1.108-4.334 1.086-7.076l-2 .017Zm-.952 6.34c-.646 1.683-1.54 2.885-2.649 3.68l1.165 1.625c1.49-1.069 2.596-2.622 3.351-4.587l-1.867-.718Zm-2.654 3.682c-1.113.808-2.44 1.233-4.028 1.246l.016 2c1.958-.016 3.702-.55 5.187-1.627l-1.175-1.619Zm-4.028 1.246c-1.131.01-2.139-.231-3.044-.708l-.933 1.77c1.218.641 2.556.95 3.993.938l-.016-2Zm-3.052-.712a6.524 6.524 0 0 1-2.325-2.026l-1.623 1.17a8.524 8.524 0 0 0 3.03 2.633l.919-1.777Zm-2.321-2.02c-.625-.88-1.073-1.928-1.332-3.16l-1.958.411c.31 1.468.857 2.776 1.658 3.906l1.632-1.157Zm-2.32-3.955-.34.003.016 2 .341-.003-.016-2Zm-1.331.974c-.04 1.348-.37 2.555-.98 3.639l1.742.981c.779-1.383 1.188-2.91 1.237-4.561l-2-.06Zm-.984 3.645A6.837 6.837 0 0 1 15.23 66.9l1.034 1.712a8.836 8.836 0 0 0 3.214-3.327l-1.75-.969Zm-2.502 2.586c-1.032.629-2.277.968-3.774.98l.017 2c1.798-.014 3.41-.426 4.798-1.272l-1.04-1.708Zm-3.774.98c-1.724.015-3.23-.42-4.55-1.292l-1.101 1.67c1.673 1.104 3.574 1.64 5.668 1.623l-.017-2Zm-4.554-1.295c-1.324-.863-2.391-2.112-3.19-3.79l-1.806.86c.936 1.966 2.233 3.516 3.903 4.606l1.093-1.676Zm-3.19-3.79c-.79-1.661-1.215-3.689-1.235-6.113l-2 .017c.022 2.643.485 4.972 1.43 6.956l1.805-.86Zm-1.235-6.113-.137-16.431-2 .016.137 16.432 2-.017Zm5.51-7 .037 4.431 2-.016-.037-4.432-2 .017Zm.037 4.431c.014 1.686.333 3.13 1.118 4.167l1.595-1.206c-.41-.543-.701-1.481-.713-2.977l-2 .016Zm1.123 4.174c.835 1.084 2.047 1.573 3.47 1.561l-.017-2c-.918.008-1.485-.284-1.868-.781l-1.585 1.22Zm3.47 1.561c.974-.008 1.866-.24 2.624-.75l-1.115-1.66c-.373.25-.863.405-1.526.41l.017 2Zm2.624-.75c.745-.5 1.29-1.202 1.648-2.058l-1.847-.77c-.222.535-.531.91-.916 1.168l1.115 1.66Zm1.645-2.053c.357-.841.51-1.81.502-2.873l-2 .017c.007.868-.12 1.55-.343 2.076l1.841.78Zm.502-2.873-.038-4.568-2 .017.038 4.568 2-.017Zm-1.046-5.56-7.363.061.016 2 7.364-.06-.017-2Zm4.872.96.032 3.886 2-.017-.032-3.886-2 .017Zm.032 3.886c.008.934.162 1.799.488 2.575l1.844-.775c-.207-.492-.326-1.091-.332-1.817l-2 .017Zm.488 2.575c.329.781.817 1.431 1.481 1.902l1.157-1.632c-.319-.226-.59-.558-.794-1.045l-1.844.775Zm1.478 1.9c.701.5 1.525.723 2.418.716l-.017-2c-.539.005-.933-.126-1.238-.344l-1.163 1.627Zm2.418.716c1.352-.011 2.49-.523 3.264-1.594l-1.62-1.171c-.351.484-.853.758-1.66.765l.016 2Zm3.259-1.586c.728-.988 1.05-2.192 1.04-3.54l-2 .016c.008 1.015-.232 1.77-.65 2.337l1.61 1.187Zm1.04-3.54-.034-4.023-2 .016.034 4.023 2-.017Zm-1.042-5.015-6.682.056.017 2 6.681-.056-.016-2Zm-19.4 55.299-.487.874.002.001.485-.875ZM3.381 97.74l-.879.477.002.003.877-.48Zm-.125-17.215-.883-.47-.003.005.886.465Zm6.017-6.152-.497-.868-.004.002.501.866Zm19.619-.163.485-.875h-.001l-.484.875Zm6.101 6.052-.878.478.878-.478Zm.143 17.215-.886-.465-.001.003.887.462Zm-6 6.169-.5-.866-.002.001.502.865Zm-4.603-8.28-.361-.933-.01.004.37.929Zm3.252-2.465-.823-.567-.007.01.83.557Zm-.066-7.925-.817.575.001.002.817-.577Zm-3.292-2.41.352-.937-.004-.001-.348.937Zm-10.585.087-.362-.932-.008.003.37.93Zm-3.253 2.465-.823-.568-.007.01.83.558Zm.066 7.926-.818.575.002.002.816-.577Zm3.293 2.41.352-.936-.004-.002-.348.938Zm5.38 9.541c-3.758.031-6.863-.674-9.36-2.06l-.97 1.749c2.869 1.592 6.333 2.344 10.347 2.311l-.017-2Zm-9.358-2.059c-2.515-1.402-4.41-3.292-5.71-5.675l-1.756.959c1.491 2.73 3.664 4.886 6.492 6.463l.974-1.747Zm-5.71-5.672c-1.3-2.4-1.97-5.096-1.995-8.105l-2 .016c.027 3.308.768 6.329 2.237 9.042l1.759-.953ZM2.266 89.16c-.025-3.033.606-5.749 1.876-8.17l-1.77-.929C.932 82.8.236 85.844.264 89.175l2-.016Zm1.874-8.165C5.41 78.6 7.28 76.683 9.774 75.238l-1.002-1.73c-2.8 1.621-4.942 3.806-6.4 6.548l1.767.938Zm5.63-5.754c2.476-1.417 5.558-2.168 9.294-2.199l-.016-2c-3.991.034-7.43.837-10.271 2.464l.994 1.735Zm9.294-2.199c3.76-.03 6.86.669 9.345 2.044l.968-1.75c-2.858-1.581-6.317-2.327-10.33-2.294l.017 2Zm9.343 2.043c2.527 1.403 4.42 3.287 5.709 5.656l1.757-.956c-1.481-2.723-3.656-4.873-6.495-6.449l-.97 1.75Zm5.71 5.657c1.31 2.4 1.986 5.104 2.011 8.136l2-.016c-.028-3.33-.774-6.364-2.256-9.079l-1.756.959Zm2.011 8.136c.025 3.01-.606 5.714-1.877 8.135l1.772.93c1.436-2.738 2.133-5.772 2.105-9.081l-2 .016Zm-1.878 8.138c-1.25 2.401-3.11 4.321-5.613 5.765l1 1.732c2.813-1.623 4.952-3.815 6.387-6.573l-1.774-.924Zm-5.615 5.766c-2.46 1.426-5.547 2.183-9.306 2.214l.017 2c4.014-.034 7.46-.843 10.292-2.483l-1.003-1.731Zm-9.37-5.536c2.173-.018 4.063-.322 5.64-.95l-.741-1.858c-1.279.51-2.907.791-4.915.808l.016 2Zm5.63-.947c1.595-.617 2.858-1.554 3.721-2.839l-1.66-1.115c-.596.887-1.5 1.593-2.783 2.09l.722 1.864Zm3.714-2.829c.88-1.275 1.284-2.808 1.27-4.54l-2 .017c.011 1.405-.313 2.514-.916 3.388l1.646 1.135Zm1.27-4.54c-.015-1.731-.444-3.26-1.342-4.53l-1.633 1.154c.62.877.963 1.989.975 3.393l2-.017Zm-1.34-4.529c-.884-1.255-2.16-2.169-3.76-2.77l-.703 1.871c1.296.488 2.215 1.181 2.827 2.05l1.635-1.151Zm-3.763-2.772c-1.584-.588-3.476-.855-5.647-.837l.016 2c2.01-.017 3.646.233 4.934.712l.697-1.875Zm-5.647-.837c-2.172.018-4.064.316-5.648.93l.723 1.865c1.294-.502 2.931-.778 4.941-.795l-.016-2Zm-5.656.933c-1.578.629-2.834 1.562-3.706 2.826l1.647 1.136c.61-.885 1.522-1.595 2.799-2.104l-.74-1.858ZM9.759 84.56c-.862 1.284-1.259 2.818-1.245 4.547l2-.017c-.011-1.407.309-2.527.905-3.415L9.76 84.56Zm-1.245 4.547c.015 1.728.437 3.252 1.323 4.512l1.636-1.151c-.608-.864-.947-1.97-.959-3.378l-2 .017ZM9.84 93.62c.893 1.264 2.168 2.178 3.76 2.77l.697-1.875c-1.28-.475-2.2-1.167-2.824-2.05l-1.633 1.155Zm3.757 2.769c1.595.6 3.495.873 5.668.855l-.016-2c-2.009.017-3.648-.238-4.948-.727l-.704 1.872Zm23.402 34.503 1-.008-.008-1-1 .008.008 1Zm.08 9.477.007 1 1-.008-.008-1-1 .008Zm-29.283-1.666.541-.841-.001-.001-.54.842Zm-4.526-5.247-.905.427.002.004.903-.431Zm-.131-15.783-.91-.416-.001.003.91.413Zm4.439-5.322-.548-.836-.006.004.554.832Zm29.25-2.117 1-.009-.008-1-1 .009.008 1Zm.079 9.477.008 1 1-.009-.008-1-1 .009Zm-24.437.918-.495-.868-.005.003.5.865Zm-1.96 1.994-.874-.486-.003.005.877.481Zm.048 5.795-.866.501.866-.501Zm1.993 1.961-.486.874.005.002.481-.876Zm23.449.521.078 9.477 2-.016-.078-9.477-2 .016Zm1.07 8.469-22.363.186.017 2 22.362-.186-.016-2Zm-22.363.186c-2.493.02-4.603-.557-6.37-1.693l-1.082 1.682c2.14 1.376 4.644 2.034 7.469 2.011l-.017-2Zm-6.371-1.694c-1.773-1.137-3.162-2.737-4.164-4.836l-1.805.862c1.15 2.406 2.778 4.304 4.89 5.658l1.079-1.684Zm-4.162-4.832c-.991-2.098-1.514-4.571-1.538-7.443l-2 .017c.026 3.105.592 5.873 1.73 8.28l1.808-.854Zm-1.538-7.443c-.024-2.896.458-5.388 1.414-7.501l-1.822-.825c-1.098 2.427-1.618 5.216-1.592 8.343l2-.017Zm1.412-7.498c.967-2.115 2.33-3.738 4.083-4.904l-1.107-1.665c-2.09 1.389-3.686 3.313-4.795 5.738l1.82.831Zm4.078-4.9c1.749-1.146 3.85-1.748 6.348-1.769l-.017-2c-2.821.024-5.311.71-7.427 2.096l1.096 1.673Zm6.348-1.769 22.362-.185-.016-2-22.363.185.017 2Zm21.354-1.177.079 9.477 2-.017-.079-9.477-2 .017Zm1.07 8.469-21.544.178.016 2 21.545-.178-.017-2Zm-21.544.178c-1.232.011-2.367.294-3.38.872l.992 1.737c.685-.391 1.478-.601 2.404-.609l-.016-2Zm-3.384.875a6.158 6.158 0 0 0-2.334 2.373l1.747.972a4.166 4.166 0 0 1 1.588-1.614l-1.002-1.731Zm-2.337 2.378c-.561 1.021-.825 2.161-.815 3.393l2-.017c-.008-.927.189-1.723.568-2.414l-1.753-.962Zm-.815 3.393c.01 1.241.293 2.379.874 3.384l1.731-1.002c-.387-.668-.598-1.458-.605-2.399l-2 .017Zm.874 3.384a6.166 6.166 0 0 0 2.373 2.334l.973-1.748a4.16 4.16 0 0 1-1.615-1.588l-1.73 1.002Zm2.378 2.336c1.021.561 2.16.826 3.393.816l-.017-2c-.926.008-1.723-.189-2.413-.569l-.963 1.753Zm3.393.816 21.545-.179-.017-2-21.545.179.017 2Zm14.009 11.911-.009-1-1 .008.009 1 1-.008Zm7.636-.063 1-.009-.009-1-1 .009.009 1Zm.251 30.339.009 1 1-.008-.009-1-1 .008Zm-7.636.064-1 .008.008 1 1-.008-.008-1Zm-.087-10.5 1-.008-.008-1-1 .008.008 1Zm-27.272.226-1 .009.009 1 1-.009-.009-1Zm-.077-9.34-.008-1-1 .008.008 1 1-.008Zm27.272-.226.008 1 1-.009-.008-1-1 .009Zm-.08-9.5 7.637-.063-.017-2-7.636.063.017 2Zm6.629-1.055.251 30.34 2-.017-.251-30.34-2 .017Zm1.243 29.332-7.636.063.017 2 7.636-.064-.017-1.999Zm-6.628 1.055-.087-10.5-2 .016.087 10.5 2-.016Zm-1.095-11.492-27.272.226.017 2 27.271-.226-.016-2Zm-26.264 1.218-.077-9.34-2 .016.077 9.341 2-.017Zm-1.069-8.332 27.272-.226-.017-2-27.271.226.016 2Zm28.264-1.235-.087-10.499-2 .016.087 10.5 2-.017Zm7.08 53.573 1-.009-.008-1-1 .009.009 1Zm.08 9.477.008 1 1-.009-.009-1-1 .009Zm-29.283-1.667.541-.841-.54.841Zm-4.526-5.246-.904.427.001.004.903-.431Zm-.131-15.784-.91-.416-.001.004.91.412Zm4.439-5.321-.548-.836-.006.003.554.833Zm29.25-2.118 1-.008-.008-1-1 .008.008 1Zm.079 9.477.008 1 1-.008-.008-1-1 .008Zm-24.436.919-.496-.869-.005.003.5.866Zm-1.961 1.994-.874-.487-.003.005.877.482Zm.048 5.795-.866.501.866-.501Zm1.993 1.961-.486.873.005.003.481-.876Zm23.449.521.078 9.477 2-.017-.078-9.477-2 .017Zm1.07 8.469-22.363.185.017 2 22.363-.185-.017-2Zm-22.363.185c-2.493.021-4.603-.556-6.37-1.693l-1.082 1.682c2.14 1.377 4.644 2.035 7.469 2.011l-.017-2Zm-6.37-1.693c-1.773-1.137-3.163-2.737-4.165-4.836l-1.805.862c1.15 2.406 2.778 4.303 4.89 5.657l1.08-1.683Zm-4.163-4.832c-.991-2.099-1.514-4.571-1.538-7.443l-2 .016c.026 3.105.592 5.874 1.73 8.281l1.808-.854Zm-1.538-7.443c-.024-2.896.458-5.388 1.414-7.502l-1.822-.824c-1.098 2.427-1.618 5.216-1.592 8.342l2-.016Zm1.412-7.498c.967-2.115 2.33-3.738 4.083-4.904l-1.107-1.666c-2.089 1.389-3.686 3.313-4.795 5.738l1.82.832Zm4.078-4.9c1.749-1.146 3.85-1.749 6.348-1.769l-.017-2c-2.821.023-5.31.709-7.427 2.096l1.096 1.673Zm6.348-1.769 22.362-.186-.016-2-22.363.186.017 2Zm21.354-1.177.079 9.477 2-.017-.079-9.477-2 .017Zm1.07 8.468-21.544.179.016 2 21.545-.179-.016-2Zm-21.544.179c-1.232.01-2.367.294-3.38.871l.992 1.737c.685-.39 1.478-.6 2.404-.608l-.016-2Zm-3.384.874a6.171 6.171 0 0 0-2.334 2.373l1.747.973a4.168 4.168 0 0 1 1.588-1.615l-1.001-1.731Zm-2.337 2.378c-.56 1.022-.825 2.161-.815 3.393l2-.016c-.008-.927.189-1.723.568-2.414l-1.753-.963Zm-.815 3.393c.01 1.242.293 2.379.874 3.385l1.731-1.002c-.387-.669-.597-1.459-.605-2.399l-2 .016Zm.874 3.385a6.163 6.163 0 0 0 2.373 2.333l.973-1.747a4.167 4.167 0 0 1-1.615-1.588l-1.73 1.002Zm2.378 2.336c1.021.561 2.161.826 3.393.815l-.016-2c-.927.008-1.723-.189-2.414-.568l-.963 1.753Zm3.393.815 21.545-.178-.017-2-21.544.178.016 2Zm10.9 31.711-.088-.996-.92.081.008.923 1-.008Zm2.648-1.301-.767-.64-.005.005.772.635Zm.549-5.834-.935.355.003.009.932-.364Zm-.95-1.356.59-.807-.59.807Zm-1.367-.449-.045.999.016.001h.015l.014-1Zm-1.14.231-.454-.89-.018.009-.018.01.49.871Zm-.896.86-.822-.57-.005.008-.006.009.833.553Zm-1.265 3.641.98.202v-.008l-.98-.194Zm-.59 2.869-.98-.201v.002l.98.199Zm-3.92 8.368-.699-.715-.004.005.704.71Zm-3.018 1.951-.35-.937-.007.004.357.933Zm-3.676.679.003 1 .014-.001-.017-.999Zm-5.843-1.674-.575.819.575-.819Zm-3.671-4.844.927-.373v-.002l-.927.375Zm-.027-15.529-.932-.363v.002l.932.361Zm4.098-5.284-.558-.83-.006.004.564.826Zm7.178-1.935 1-.008-.009-1.004-1.004.012.013 1Zm.074 9 .062.998.946-.058-.008-.948-1 .008Zm-2.686.823-.556-.831.556.831Zm-1.637 2.025-.92-.39-.002.004.922.386Zm-.14 5.661-.936.352.936-.352Zm1.052 1.542-.615.788.615-.788Zm1.522.533-.012 1h.041l-.03-1Zm1.393-.54-.634-.773-.011.009-.012.01.657.754Zm1.077-1.645-.92-.39-.005.012.925.378Zm.895-3.093.979.206v-.003l-.979-.203Zm.721-3.483-.979-.204v.001l.98.203Zm3.297-7.34-.752-.66-.004.006.756.654Zm6.439-2.696.004 1h.01l-.014-1Zm5.827 1.724.578-.816h-.001l-.577.816Zm3.944 4.962.914-.407-.001-.002-.913.409Zm.105 14.659-.912-.409.912.409Zm-3.95 4.789-.55-.835-.007.004.558.831Zm-5.968 1.754-1 .008.009 1.005 1.005-.013-.014-1Zm.013-8.072c1.36-.12 2.507-.656 3.333-1.662L28.878 239c-.434.528-1.052.859-1.964.94l.176 1.992Zm3.328-1.656c.847-1.015 1.172-2.438 1.159-4.083l-2 .017c.011 1.423-.281 2.289-.694 2.785l1.535 1.281Zm1.159-4.083c-.01-1.048-.143-1.98-.447-2.756l-1.863.728c.184.47.302 1.138.31 2.045l2-.017Zm-.444-2.747c-.279-.736-.694-1.371-1.293-1.808l-1.18 1.615c.201.146.419.416.604.903l1.87-.71Zm-1.293-1.808a3.314 3.314 0 0 0-1.944-.642l-.027 2c.31.005.564.091.791.257l1.18-1.615Zm-1.912-.641a3.234 3.234 0 0 0-1.64.34l.909 1.781c.17-.086.374-.135.64-.123l.091-1.998Zm-1.676.359c-.49.275-.893.679-1.228 1.161l1.644 1.14c.204-.295.398-.464.565-.558l-.981-1.743Zm-1.239 1.178c-.318.478-.586 1.056-.815 1.712l1.889.66c.192-.552.393-.967.592-1.265l-1.666-1.107Zm-.815 1.712c-.23.661-.428 1.426-.599 2.289l1.963.387c.157-.799.333-1.469.524-2.016l-1.888-.66Zm-.597 2.281-.59 2.869 1.96.402.59-2.868-1.96-.403Zm-.59 2.871c-.381 1.877-.885 3.453-1.5 4.742l1.804.861c.703-1.472 1.25-3.212 1.656-5.205l-1.96-.398Zm-1.5 4.742c-.62 1.296-1.337 2.325-2.139 3.11l1.399 1.43c1.001-.98 1.845-2.214 2.544-3.679l-1.805-.861Zm-2.143 3.115a7.45 7.45 0 0 1-2.664 1.724l.699 1.874a9.44 9.44 0 0 0 3.372-2.178l-1.407-1.42Zm-2.672 1.728c-1.002.383-2.11.591-3.336.612l.034 1.999c1.434-.024 2.776-.268 4.017-.744l-.715-1.867Zm-3.322.612c-2.126.007-3.863-.507-5.266-1.492l-1.149 1.637c1.798 1.261 3.956 1.863 6.421 1.855l-.006-2Zm-5.266-1.492c-1.418-.995-2.53-2.443-3.318-4.399l-1.855.746c.907 2.256 2.241 4.039 4.024 5.29l1.149-1.637Zm-3.318-4.401c-.788-1.949-1.21-4.343-1.235-7.208l-2 .016c.026 3.044.474 5.7 1.38 7.941l1.855-.749Zm-1.235-7.208c-.024-2.938.39-5.459 1.213-7.585l-1.864-.722c-.935 2.411-1.375 5.193-1.349 8.323l2-.016Zm1.213-7.583c.812-2.085 2.057-3.679 3.73-4.821l-1.128-1.652c-2.033 1.388-3.52 3.318-4.466 5.747l1.864.726Zm3.724-4.817c1.662-1.118 3.849-1.731 6.632-1.765l-.024-2c-3.058.038-5.656.714-7.724 2.105l1.116 1.66Zm5.62-2.757.074 9 2-.016-.074-9-2 .016Zm1.013 7.994c-1.204.074-2.28.388-3.18.99l1.11 1.663c.546-.365 1.261-.6 2.193-.657l-.123-1.996Zm-3.18.99c-.9.6-1.565 1.435-2.002 2.466l1.84.781c.299-.703.725-1.218 1.273-1.584l-1.112-1.663Zm-2.004 2.47c-.432 1.031-.625 2.213-.614 3.519l2-.017c-.01-1.104.155-2.005.459-2.729l-1.845-.773Zm-.614 3.519c.009 1.086.15 2.056.46 2.88l1.872-.704c-.202-.536-.325-1.257-.332-2.193l-2 .017Zm.46 2.88c.302.804.746 1.489 1.373 1.978l1.231-1.576c-.266-.207-.523-.551-.732-1.106l-1.872.704Zm1.373 1.978c.62.484 1.339.736 2.125.745l.024-2a1.455 1.455 0 0 1-.918-.321l-1.231 1.576Zm2.166.745a3.16 3.16 0 0 0 2.021-.786l-1.314-1.508a1.161 1.161 0 0 1-.766.295l.06 1.999Zm1.998-.766c.588-.482 1.027-1.203 1.37-2.041l-1.852-.756c-.282.689-.561 1.066-.786 1.25l1.268 1.547Zm1.364-2.03c.359-.847.673-1.948.953-3.276l-1.957-.412c-.267 1.267-.55 2.229-.838 2.909l1.842.779Zm.954-3.279.72-3.484-1.958-.405-.721 3.483 1.959.406Zm.72-3.483c.622-2.983 1.664-5.257 3.075-6.89l-1.513-1.307c-1.695 1.961-2.851 4.58-3.52 7.79l1.958.407Zm3.07-6.884c1.348-1.538 3.203-2.345 5.69-2.355l-.008-2c-2.966.012-5.403 1.002-7.186 3.036l1.505 1.319Zm5.7-2.355c2.023-.027 3.755.494 5.236 1.541l1.155-1.633c-1.857-1.312-4.01-1.94-6.418-1.908l.027 2Zm5.235 1.54c1.517 1.075 2.725 2.58 3.61 4.555l1.826-.818c-1.013-2.259-2.435-4.062-4.28-5.369l-1.156 1.632Zm3.61 4.554c.884 1.981 1.35 4.286 1.372 6.935l2-.016c-.024-2.874-.53-5.459-1.545-7.734l-1.827.815Zm1.372 6.935c.023 2.709-.412 5.001-1.266 6.907l1.824.818c.998-2.224 1.466-4.814 1.442-7.741l-2 .016Zm-1.266 6.907c-.858 1.91-2.057 3.351-3.588 4.363l1.102 1.669c1.882-1.244 3.315-2.995 4.31-5.214l-1.824-.818Zm-3.595 4.367c-1.515 1.019-3.31 1.557-5.424 1.585l.026 2c2.455-.033 4.639-.665 6.514-1.924l-1.116-1.661Zm-4.41 2.576-.076-9.068-2 .017.075 9.068 2-.017Z" fill="#05C2DF" fill-opacity=".2" mask="url('#path-1-outside-1_1_5917')"/></svg>