<svg width="39" height="251" fill="none" xmlns="http://www.w3.org/2000/svg"><mask id="path-1-outside-1_1_5918" maskUnits="userSpaceOnUse" x="-1.093" y="-.489" width="41.098" height="253.315" fill="#000"><path fill="#fff" d="M-1.093-.489h41.098v253.315H-1.093z"/><path d="m37.903 240.201.084 10.227-35.003-11.233-.108-12.954 34.813-11.812.084 10.227-25.23 7.846.002.273 25.358 7.426Zm-13.757 2.023-.16-19.226 7.091-.059.16 19.226-7.09.059Zm13.515-31.157-34.908.29-.126-15.136c-.022-2.659.318-4.895 1.019-6.708.7-1.824 1.7-3.201 3-4.133 1.299-.942 2.834-1.421 4.607-1.436 1.284-.01 2.457.264 3.518.823a7.52 7.52 0 0 1 2.679 2.331c.713 1.005 1.211 2.183 1.495 3.533l.341-.003c.044-1.501.414-2.867 1.108-4.1a7.835 7.835 0 0 1 2.856-2.956c1.21-.737 2.639-1.113 4.287-1.127 1.909-.015 3.612.471 5.108 1.458 1.497.976 2.68 2.376 3.547 4.198.867 1.823 1.311 4.001 1.333 6.535l.136 16.431Zm-7.647-9.414-.037-4.432c-.013-1.591-.318-2.781-.916-3.572-.608-.79-1.498-1.181-2.669-1.171-.818.007-1.51.2-2.074.58-.565.379-.993.917-1.282 1.613-.29.684-.431 1.509-.423 2.475l.038 4.568 7.363-.061Zm-13.227.11-.032-3.887c-.007-.829-.143-1.561-.41-2.195-.267-.634-.646-1.126-1.137-1.474-.503-.359-1.113-.536-1.829-.53-1.08.009-1.9.402-2.462 1.18-.573.777-.854 1.757-.845 2.938l.034 4.023 6.681-.055Zm2.873-56.43c3.887-.032 7.171.697 9.854 2.186 2.671 1.489 4.705 3.512 6.102 6.069 1.385 2.556 2.09 5.414 2.116 8.573.027 3.182-.637 6.063-1.99 8.642-1.366 2.568-3.371 4.619-6.018 6.153-2.658 1.522-5.919 2.299-9.782 2.331-3.886.032-7.165-.691-9.837-2.169-2.682-1.489-4.716-3.506-6.101-6.052-1.396-2.556-2.108-5.425-2.134-8.607-.026-3.159.637-6.028 1.991-8.608 1.342-2.579 3.342-4.636 6-6.169 2.647-1.534 5.913-2.316 9.8-2.349Zm.081 9.75c-2.09.017-3.85.31-5.277.879-1.438.558-2.523 1.379-3.252 2.465-.741 1.074-1.105 2.395-1.092 3.963.013 1.569.399 2.889 1.158 3.963.747 1.062 1.845 1.865 3.292 2.41 1.437.533 3.2.791 5.291.774 2.09-.017 3.856-.305 5.294-.862 1.427-.569 2.511-1.39 3.253-2.465.73-1.085 1.088-2.412 1.075-3.98-.013-1.568-.394-2.883-1.141-3.945-.759-1.074-1.857-1.877-3.293-2.411-1.448-.545-3.217-.808-5.308-.791ZM2 120.435l-.08-9.477 22.364-.185c2.659-.022 4.965.595 6.919 1.851 1.942 1.246 3.45 2.995 4.526 5.247 1.065 2.253 1.61 4.873 1.634 7.862.025 3.011-.476 5.652-1.503 7.922-1.038 2.27-2.517 4.043-4.439 5.321-1.932 1.266-4.228 1.91-6.887 1.932l-22.363.185-.079-9.477 21.545-.178c1.08-.009 2.043-.256 2.892-.74a5.162 5.162 0 0 0 1.96-1.994c.47-.856.701-1.824.692-2.903-.009-1.091-.255-2.055-.74-2.892a5.163 5.163 0 0 0-1.993-1.961c-.856-.47-1.824-.701-2.904-.692L2 120.435Zm7.528-13.09-7.637.064-.251-30.34 7.636-.064.087 10.5 27.272-.226.077 9.34-27.272.227.088 10.499ZM1.358 43.281l-.078-9.477 22.363-.185c2.659-.022 4.965.595 6.919 1.852 1.942 1.245 3.45 2.994 4.526 5.247 1.065 2.252 1.609 4.873 1.634 7.861.025 3.011-.476 5.652-1.503 7.922-1.038 2.27-2.517 4.044-4.439 5.321-1.932 1.266-4.228 1.91-6.887 1.932L1.53 63.94l-.079-9.477 21.545-.179c1.08-.009 2.043-.255 2.892-.74a5.164 5.164 0 0 0 1.96-1.993c.47-.857.701-1.824.692-2.904-.009-1.09-.255-2.055-.74-2.892a5.163 5.163 0 0 0-1.993-1.96c-.856-.47-1.824-.701-2.904-.692l-21.545.178Zm10.637-32.889c-1.135.1-2.018.534-2.648 1.3-.63.756-.94 1.9-.926 3.435.008.977.134 1.777.377 2.4.233.612.55 1.064.95 1.356.4.292.855.442 1.367.449.42.019.8-.058 1.14-.231.328-.185.627-.471.896-.86.258-.389.493-.885.704-1.489.21-.604.398-1.321.561-2.152l.59-2.869c.393-1.935.92-3.593 1.578-4.973.66-1.38 1.44-2.512 2.342-3.395a8.453 8.453 0 0 1 3.018-1.951C23.065.982 24.29.756 25.62.734c2.295-.008 4.243.55 5.844 1.673 1.6 1.123 2.824 2.738 3.67 4.844.847 2.096 1.283 4.62 1.308 7.575.025 3.034-.402 5.685-1.28 7.954-.88 2.258-2.246 4.019-4.1 5.284-1.864 1.255-4.256 1.9-7.177 1.935l-.074-9c1.067-.065 1.963-.34 2.686-.823.724-.483 1.269-1.159 1.637-2.025.368-.878.546-1.92.536-3.124-.008-1.011-.14-1.857-.396-2.537-.255-.68-.606-1.194-1.052-1.542a2.454 2.454 0 0 0-1.522-.533 2.155 2.155 0 0 0-1.393.54c-.406.333-.765.881-1.077 1.645-.323.764-.622 1.795-.895 3.093l-.721 3.484c-.645 3.096-1.744 5.543-3.297 7.34-1.565 1.785-3.711 2.684-6.438 2.695-2.216.03-4.159-.545-5.828-1.724-1.68-1.19-2.995-2.845-3.944-4.962-.95-2.129-1.436-4.573-1.459-7.335-.023-2.818.428-5.26 1.354-7.324.926-2.064 2.243-3.66 3.95-4.788 1.694-1.14 3.684-1.724 5.968-1.755l.075 9.068Z"/></mask><path d="m37.903 240.201 1-.008-.007-.743-.712-.209-.281.96Zm.084 10.227-.305.952 1.317.423-.012-1.383-1 .008ZM2.984 239.195l-1 .008.006.723.688.221.306-.952Zm-.108-12.954-.32-.947-.686.232.006.723 1-.008Zm34.813-11.812 1-.008-.012-1.383-1.31.444.322.947Zm.084 10.227.297.955.71-.221-.007-.742-1 .008Zm-25.23 7.846-.298-.955-.709.221.006.742 1-.008Zm.002.273-1 .008.006.743.713.208.28-.959Zm11.601 9.449-1 .009.008 1 1-.009-.008-1Zm-.16-19.226-.008-1-1 .008.009 1 1-.008Zm7.091-.059 1-.008-.008-1-1 .008.008 1Zm.16 19.226.008 1 1-.008-.008-1-1 .008Zm5.666-1.956.084 10.227 2-.016-.084-10.227-2 .016Zm1.39 9.267L3.289 238.243l-.61 1.904 35.003 11.233.61-1.904Zm-34.31-10.289-.107-12.954-2 .016.108 12.954 2-.016Zm-.785-11.999 34.812-11.812-.643-1.894-34.812 11.812.643 1.894Zm33.49-12.751.086 10.227 2-.016-.085-10.227-2 .016Zm.789 9.264-25.232 7.846.594 1.91 25.232-7.846-.594-1.91Zm-25.935 8.809.003.273 2-.017-.003-.272-2 .016Zm.722 1.224 25.357 7.427.563-1.92-25.358-7.426-.563 1.919Zm12.882 8.482-.16-19.227-2 .017.16 19.227 2-.017Zm-1.151-18.218 7.09-.059-.016-2-7.09.059.016 2Zm6.082-1.051.16 19.227 2-.017-.16-19.226-2 .016Zm1.151 18.218-7.09.059.016 2 7.091-.059-.017-2Zm6.433-30.098.008 1 1-.008-.008-1-1 .008Zm-34.908.29-1 .008.008 1 1-.008-.008-1Zm.893-21.844.932.361.001-.002-.933-.359Zm3-4.133.582.813.005-.003-.588-.81Zm8.125-.613-.466.885.008.004.458-.889Zm2.679 2.331.816-.579-.005-.006-.811.585Zm1.495 3.533-.978.206.168.8.818-.006-.008-1Zm.341-.003.008 1 .963-.008.029-.963-1-.029Zm1.108-4.1.872.49.003-.006-.875-.484Zm2.856-2.956.517.856.004-.002-.52-.854Zm9.395.331-.55.835.004.003.547-.838Zm3.547 4.198-.903.43.903-.43Zm-6.178 13.552.009 1 1-.008-.009-1-1 .008Zm-.953-8.004.798-.603-.005-.007-.793.61Zm-6.025 1.022.92.39.003-.006-.923-.384Zm-.385 7.043-1 .008.008 1 1-.008-.008-1Zm-5.864.049.009 1 1-.009-.009-1-1 .009Zm-.442-6.082.922-.388-.922.388Zm-1.137-1.474-.582.814.004.002.578-.816Zm-4.29.65.804.593.006-.008-.81-.585Zm-.812 6.961-1 .008.008 1 1-.008-.008-1Zm27.547 8.249-34.908.29.016 2 34.908-.29-.016-2Zm-33.9 1.281-.126-15.135-2 .016.126 15.136 2-.017Zm-.126-15.135c-.021-2.577.31-4.679.951-6.339l-1.865-.721c-.76 1.965-1.108 4.334-1.086 7.076l2-.016Zm.952-6.341c.646-1.683 1.541-2.885 2.65-3.679l-1.166-1.625c-1.49 1.068-2.596 2.621-3.35 4.587l1.866.717Zm2.654-3.682c1.113-.808 2.441-1.233 4.028-1.246l-.016-2c-1.958.017-3.702.549-5.187 1.627l1.175 1.619Zm4.028-1.246c1.131-.009 2.14.231 3.044.708l.933-1.769c-1.218-.642-2.556-.951-3.993-.939l.016 2Zm3.052.712a6.52 6.52 0 0 1 2.325 2.026l1.623-1.169a8.526 8.526 0 0 0-3.03-2.634l-.918 1.777Zm2.321 2.02c.625.881 1.073 1.929 1.333 3.161l1.957-.412c-.309-1.468-.857-2.776-1.658-3.906l-1.632 1.157Zm2.32 3.955.34-.003-.016-2-.341.003.016 2Zm1.332-.974c.04-1.348.37-2.555.98-3.639l-1.743-.981c-.779 1.383-1.188 2.909-1.236 4.561l1.999.059Zm.983-3.645a6.835 6.835 0 0 1 2.498-2.584l-1.034-1.712a8.838 8.838 0 0 0-3.214 3.327l1.75.969Zm2.502-2.586c1.032-.629 2.277-.968 3.774-.981l-.017-1.999c-1.798.014-3.41.426-4.798 1.272l1.04 1.708Zm3.774-.981c1.724-.014 3.23.422 4.55 1.293l1.101-1.67c-1.673-1.104-3.573-1.64-5.668-1.622l.017 1.999Zm4.554 1.296c1.324.863 2.391 2.112 3.19 3.79l1.806-.86c-.936-1.966-2.233-3.516-3.903-4.605l-1.093 1.675Zm3.19 3.79c.79 1.661 1.215 3.689 1.236 6.113l2-.017c-.023-2.643-.486-4.972-1.43-6.956l-1.806.86Zm1.236 6.113.136 16.431 2-.016-.137-16.432-2 .017Zm-5.51 7.001-.038-4.432-2 .017.037 4.431 2-.016Zm-.038-4.432c-.014-1.686-.333-3.129-1.118-4.167l-1.595 1.206c.41.543.701 1.481.713 2.978l2-.017Zm-1.123-4.174c-.835-1.083-2.047-1.573-3.47-1.561l.017 2c.918-.008 1.485.284 1.868.781l1.585-1.22Zm-3.47-1.561c-.974.008-1.866.24-2.624.75l1.115 1.66c.373-.25.863-.404 1.526-.41l-.017-2Zm-2.624.75c-.745.5-1.29 1.202-1.648 2.058l1.847.769c.222-.534.532-.908.916-1.167l-1.115-1.66Zm-1.645 2.053c-.357.842-.51 1.81-.502 2.873l2-.016c-.007-.869.12-1.551.343-2.077l-1.841-.78Zm-.502 2.873.038 4.568 2-.016-.038-4.568-2 .016Zm1.046 5.56 7.364-.061-.017-2-7.363.061.016 2Zm-4.872-.96-.032-3.886-2 .017.032 3.886 2-.017Zm-.032-3.886c-.008-.934-.162-1.798-.488-2.575l-1.844.775c.207.492.326 1.091.332 1.817l2-.017Zm-.488-2.575c-.329-.781-.817-1.431-1.481-1.902l-1.156 1.632c.318.226.588.558.793 1.045l1.844-.775Zm-1.478-1.899c-.701-.501-1.525-.724-2.418-.717l.017 2c.539-.005.933.126 1.238.344l1.163-1.627Zm-2.418-.717c-1.352.011-2.49.523-3.264 1.594l1.621 1.171c.35-.484.852-.758 1.66-.765l-.017-2Zm-3.258 1.586c-.729.988-1.052 2.192-1.04 3.541l2-.017c-.009-1.015.231-1.77.65-2.337l-1.61-1.187Zm-1.04 3.541.033 4.022 2-.016-.034-4.023-2 .017Zm1.041 5.014 6.682-.055-.017-2-6.681.055.016 2Zm19.4-55.299.487-.874-.002-.001-.485.875Zm6.102 6.069.879-.477-.002-.003-.877.48Zm.126 17.215.883.47.002-.005-.886-.465Zm-6.018 6.153.497.867.004-.002-.5-.865Zm-19.619.162-.485.875h.001l.484-.875Zm-6.101-6.052.878-.477v-.002l-.878.479Zm-.143-17.215.886.465.001-.003-.887-.462Zm6-6.169.5.866.002-.001-.502-.865Zm4.603 8.28.361.933.01-.004-.37-.929Zm-3.252 2.465.823.568.007-.01-.83-.558Zm.066 7.926.817-.576-.001-.002-.816.578Zm3.292 2.41-.352.936.004.001.348-.937Zm10.585-.088.362.933.008-.004-.37-.929Zm3.253-2.465.823.568.007-.01-.83-.558Zm-.066-7.925.818-.576-.002-.002-.816.578Zm-3.293-2.411-.352.936.004.002.348-.938Zm-5.38-9.541c3.758-.031 6.863.674 9.36 2.06l.97-1.749c-2.869-1.592-6.333-2.344-10.347-2.311l.017 2Zm9.358 2.059c2.515 1.402 4.41 3.292 5.711 5.675l1.755-.959c-1.491-2.73-3.664-4.886-6.492-6.463l-.974 1.747Zm5.71 5.672c1.3 2.401 1.97 5.096 1.995 8.106l2-.017c-.027-3.308-.768-6.329-2.237-9.042l-1.759.953Zm1.995 8.106c.026 3.032-.606 5.748-1.876 8.168l1.77.93c1.438-2.739 2.134-5.784 2.106-9.115l-2 .017Zm-1.874 8.164c-1.272 2.394-3.142 4.312-5.635 5.756l1.002 1.731c2.8-1.622 4.942-3.807 6.4-6.548l-1.767-.939Zm-5.63 5.754c-2.476 1.417-5.558 2.168-9.294 2.199l.016 2c3.991-.033 7.43-.837 10.271-2.464l-.994-1.735Zm-9.294 2.199c-3.76.031-6.86-.669-9.345-2.044l-.968 1.75c2.858 1.581 6.317 2.327 10.33 2.294l-.017-2Zm-9.343-2.043c-2.527-1.403-4.42-3.287-5.709-5.655l-1.757.955c1.481 2.723 3.656 4.873 6.495 6.449l.97-1.749Zm-5.71-5.657c-1.31-2.399-1.986-5.104-2.011-8.136l-2 .016c.028 3.331.774 6.365 2.256 9.079l1.756-.959Zm-2.011-8.136c-.025-3.009.606-5.714 1.877-8.135l-1.771-.93c-1.437 2.738-2.133 5.772-2.106 9.081l2-.016Zm1.878-8.138c1.25-2.401 3.11-4.321 5.613-5.765l-1-1.732c-2.813 1.623-4.952 3.816-6.387 6.574l1.774.923Zm5.615-5.766c2.46-1.426 5.547-2.182 9.306-2.214l-.017-2c-4.014.034-7.46.843-10.292 2.484l1.003 1.73Zm9.37 5.536c-2.173.018-4.063.322-5.639.95l.74 1.858c1.279-.509 2.907-.791 4.916-.808l-.017-2Zm-5.63.947c-1.595.617-2.858 1.555-3.721 2.839l1.66 1.116c.596-.887 1.5-1.593 2.784-2.09l-.723-1.865Zm-3.714 2.829c-.88 1.275-1.284 2.808-1.27 4.54l2-.017c-.011-1.405.313-2.514.916-3.387l-1.646-1.136Zm-1.27 4.54c.015 1.732.444 3.261 1.342 4.531l1.633-1.155c-.62-.876-.963-1.988-.974-3.393l-2 .017Zm1.34 4.529c.884 1.256 2.16 2.169 3.76 2.771l.704-1.872c-1.297-.488-2.216-1.181-2.828-2.05l-1.635 1.151Zm3.763 2.772c1.584.589 3.476.855 5.647.837l-.016-2c-2.01.017-3.645-.233-4.934-.712l-.697 1.875Zm5.647.837c2.172-.018 4.064-.316 5.648-.93l-.723-1.864c-1.294.501-2.931.777-4.941.794l.016 2Zm5.656-.933c1.578-.629 2.834-1.562 3.706-2.826l-1.647-1.135c-.61.884-1.522 1.594-2.799 2.103l.74 1.858Zm3.713-2.836c.863-1.284 1.259-2.818 1.245-4.547l-2 .017c.011 1.407-.309 2.527-.905 3.415l1.66 1.115Zm1.245-4.547c-.015-1.728-.436-3.252-1.323-4.512l-1.636 1.151c.608.864.947 1.97.959 3.378l2-.017Zm-1.325-4.514c-.893-1.263-2.168-2.178-3.76-2.77l-.697 1.875c1.28.475 2.2 1.167 2.824 2.05l1.633-1.155Zm-3.757-2.769c-1.595-.6-3.495-.873-5.668-.855l.017 2c2.008-.017 3.647.238 4.947.727l.704-1.872ZM2 120.435l-1 .008.008 1 1-.008-.008-1Zm-.08-9.477-.007-1-1 .008.008 1 1-.008Zm29.283 1.666-.541.841.001.001.54-.842Zm4.526 5.247.905-.427-.002-.004-.903.431Zm.131 15.784.91.415.002-.003-.912-.412Zm-4.439 5.321.548.836.006-.004-.554-.832Zm-29.25 2.117-1 .009.008 1 1-.009-.008-1Zm-.079-9.477-.008-.999-1 .008.008 1 1-.009Zm24.437-.918.496.868.005-.003-.501-.865Zm1.96-1.994.874.487.003-.005-.877-.482Zm-.047-5.795.865-.501-.866.501Zm-1.994-1.961.486-.874-.005-.002-.481.876Zm-23.448-.521-.08-9.477-1.999.016.079 9.477 2-.016Zm-1.07-8.469 22.362-.185-.017-2-22.362.185.016 2Zm22.362-.185c2.493-.021 4.603.556 6.37 1.692l1.082-1.682c-2.14-1.376-4.644-2.034-7.468-2.01l.016 2Zm6.371 1.693c1.773 1.137 3.162 2.737 4.164 4.836l1.805-.862c-1.15-2.406-2.778-4.303-4.89-5.657l-1.079 1.683Zm4.162 4.832c.991 2.098 1.514 4.571 1.538 7.443l2-.017c-.026-3.104-.592-5.873-1.73-8.28l-1.808.854Zm1.538 7.443c.024 2.896-.458 5.388-1.414 7.502l1.822.824c1.098-2.427 1.618-5.216 1.592-8.343l-2 .017Zm-1.412 7.498c-.967 2.115-2.33 3.738-4.083 4.904l1.107 1.665c2.09-1.388 3.686-3.313 4.795-5.738l-1.819-.831Zm-4.078 4.9c-1.749 1.146-3.85 1.748-6.348 1.769l.017 2c2.821-.024 5.311-.709 7.427-2.096l-1.096-1.673Zm-6.348 1.769-22.362.185.016 2 22.363-.185-.017-2ZM3.17 141.085l-.079-9.477-2 .017.079 9.477 2-.017Zm-1.07-8.469 21.544-.178-.016-2-21.545.179.017 1.999Zm21.544-.178c1.233-.011 2.368-.294 3.38-.872l-.992-1.737c-.685.391-1.477.601-2.404.609l.016 2Zm3.385-.875a6.162 6.162 0 0 0 2.333-2.372l-1.747-.973a4.166 4.166 0 0 1-1.588 1.614l1.002 1.731Zm2.336-2.377c.561-1.022.826-2.161.815-3.394l-2 .017c.008.927-.189 1.723-.568 2.414l1.753.963Zm.815-3.394c-.01-1.241-.292-2.379-.874-3.384l-1.731 1.002c.387.668.598 1.459.605 2.399l2-.017Zm-.874-3.384a6.172 6.172 0 0 0-2.373-2.334l-.973 1.748a4.16 4.16 0 0 1 1.615 1.588l1.731-1.002Zm-2.378-2.336c-1.021-.561-2.16-.826-3.393-.816l.017 2c.926-.007 1.723.189 2.413.569l.963-1.753Zm-3.393-.816-21.545.179.017 2 21.545-.179-.017-2ZM9.527 107.345l.008 1 1-.008-.008-1-1 .008Zm-7.637.064-1 .008.009 1 1-.009-.009-.999Zm-.251-30.34-.009-1-1 .008.009 1 1-.008Zm7.636-.064 1-.008-.008-1-1 .008.008 1Zm.087 10.5-1 .008.008 1 1-.008-.008-1Zm27.272-.226 1-.009-.009-1-1 .009.009 1Zm.077 9.34.009 1 1-.008-.009-1-1 .008Zm-27.272.227-.008-1-1 .008.009 1 1-.008Zm.08 9.499-7.637.064.017 1.999 7.636-.063-.017-2ZM2.89 107.4 2.64 77.06l-2 .017.252 30.34 2-.017ZM1.647 78.069l7.636-.064-.016-2-7.637.064.017 2Zm6.628-1.055.087 10.5 2-.017-.087-10.5-2 .017Zm1.095 11.49 27.272-.225-.017-2-27.271.226.016 2Zm26.264-1.217.077 9.34 2-.016-.077-9.34-2 .016Zm1.069 8.332-27.272.227.017 2 27.272-.227-.017-2ZM8.44 96.854l.087 10.499 2-.016-.088-10.5-2 .017ZM1.358 43.282l-1 .008.009 1 1-.009-.009-1Zm-.078-9.477-.008-1-1 .008.008 1 1-.009Zm29.282 1.666-.541.84.001.002.54-.842Zm4.526 5.247.904-.428-.001-.003-.903.43ZM35.22 56.5l.91.416.001-.004-.91-.412Zm-4.439 5.321.548.837.006-.004-.554-.833ZM1.53 63.94l-1 .008.008 1 1-.008-.008-1Zm-.079-9.477-.008-1-1 .008.008 1 1-.008Zm24.437-.919.495.869.005-.003-.5-.866Zm1.96-1.993.874.486.003-.005-.877-.481Zm-.048-5.796.866-.5-.866.5Zm-1.993-1.96.486-.874-.005-.003-.481.877Zm-23.449-.522-.078-9.477-2 .017.078 9.477 2-.017Zm-1.07-8.469 22.363-.185-.017-2-22.362.186.016 2Zm22.363-.185c2.493-.02 4.603.556 6.37 1.693l1.082-1.682c-2.14-1.377-4.644-2.034-7.469-2.011l.017 2Zm6.371 1.694c1.773 1.136 3.162 2.737 4.164 4.835l1.805-.861c-1.15-2.407-2.778-4.304-4.89-5.658l-1.079 1.684Zm4.162 4.832c.991 2.098 1.514 4.57 1.538 7.442l2-.016c-.026-3.105-.592-5.873-1.73-8.28l-1.808.854Zm1.538 7.442c.024 2.896-.458 5.389-1.414 7.502l1.822.824c1.098-2.426 1.618-5.216 1.592-8.342l-2 .017Zm-1.412 7.498c-.967 2.115-2.33 3.739-4.083 4.904l1.107 1.666c2.09-1.389 3.686-3.313 4.795-5.738l-1.82-.832Zm-4.078 4.9c-1.749 1.146-3.85 1.749-6.348 1.77l.017 2c2.821-.024 5.31-.71 7.427-2.096l-1.096-1.673Zm-6.348 1.77-22.362.185.016 2 22.363-.186-.017-2ZM2.53 63.931l-.079-9.477-2 .016.079 9.477 2-.016Zm-1.07-8.47 21.544-.178-.016-2-21.545.179.017 2Zm21.544-.178c1.232-.01 2.367-.294 3.38-.871l-.992-1.737c-.685.39-1.477.6-2.404.608l.016 2Zm3.384-.874a6.165 6.165 0 0 0 2.334-2.373l-1.747-.973a4.166 4.166 0 0 1-1.588 1.615l1.001 1.73Zm2.337-2.378c.56-1.022.825-2.161.815-3.393l-2 .016c.008.927-.189 1.723-.568 2.414l1.753.963Zm.815-3.393c-.01-1.242-.293-2.38-.874-3.384l-1.731 1.001c.387.669.598 1.459.605 2.4l2-.017Zm-.874-3.384a6.164 6.164 0 0 0-2.373-2.334l-.973 1.747c.688.383 1.221.907 1.615 1.588l1.73-1.001Zm-2.378-2.337c-1.021-.56-2.16-.825-3.393-.815l.017 2c.926-.008 1.723.189 2.413.568l.963-1.753Zm-3.393-.815L1.35 42.28l.017 2 21.544-.178-.016-2Zm-10.9-31.71.088.995.92-.08-.008-.924-1 .008Zm-2.648 1.3.768.64.004-.005-.772-.635Zm-.549 5.834.935-.355-.003-.01-.932.365Zm.95 1.356-.59.808.59-.808Zm1.367.449.045-1h-.031l-.014 1Zm1.14-.231.454.89.018-.009.018-.01-.49-.871Zm.896-.86.822.57.005-.008.006-.009-.833-.553Zm1.265-3.641-.98-.202v.009l.98.193Zm.59-2.869.98.201v-.002l-.98-.199Zm3.92-8.368.699.715.005-.005-.704-.71Zm3.018-1.951.35.937.008-.003-.358-.934ZM25.62.734l-.003-1h-.014l.017 1Zm5.844 1.673.574-.819-.574.819Zm3.67 4.844-.927.373v.002l.928-.375Zm.027 15.53.932.362v-.002l-.932-.36Zm-4.098 5.283.558.83.006-.004-.564-.826ZM23.885 30l-1 .008.009 1.004L23.898 31l-.013-1Zm-.074-9-.062-.998-.946.058.008.949 1-.009Zm2.686-.823.556.831-.556-.831Zm1.637-2.025.92.39.002-.004-.922-.386Zm.14-5.66.936-.353-.936.352Zm-1.052-1.543.615-.788-.615.788Zm-1.522-.533.012-1h-.041l.03 1Zm-1.393.54.634.774.012-.01.011-.01-.657-.754ZM23.23 12.6l.92.39.006-.012-.926-.378Zm-.895 3.093-.979-.206v.003l.979.203Zm-.721 3.484.979.203-.98-.203Zm-3.297 7.34.752.659.004-.005-.756-.654Zm-6.438 2.695-.005-1h-.009l.014 1ZM6.05 27.488l-.578.816h.001l.577-.816Zm-3.944-4.962-.914.407.001.002.913-.409ZM2.002 7.867l.913.41-.913-.41Zm3.95-4.788.55.834.007-.004-.558-.83Zm5.968-1.755 1-.008-.008-1.005-1.005.014.013 1Zm-.013 8.072c-1.36.12-2.507.656-3.333 1.662l1.545 1.27c.434-.528 1.053-.859 1.964-.94l-.176-1.992Zm-3.328 1.656c-.847 1.015-1.172 2.438-1.158 4.083l2-.017c-.012-1.423.28-2.289.694-2.785l-1.536-1.28ZM7.42 15.135c.008 1.048.143 1.98.446 2.757l1.863-.73c-.184-.47-.302-1.137-.31-2.044l-2 .017Zm.443 2.747c.28.736.694 1.37 1.294 1.809l1.179-1.616c-.2-.146-.419-.415-.604-.903l-1.87.71Zm1.294 1.809a3.317 3.317 0 0 0 1.943.64l.028-2a1.318 1.318 0 0 1-.792-.256l-1.18 1.616Zm1.911.64c.575.026 1.13-.08 1.64-.34l-.909-1.78c-.169.085-.374.134-.64.122l-.091 1.998Zm1.676-.359c.49-.275.894-.68 1.228-1.161l-1.644-1.14c-.204.296-.398.464-.565.558l.981 1.743Zm1.239-1.178c.318-.478.586-1.056.815-1.712l-1.888-.66c-.193.553-.394.967-.593 1.266l1.666 1.106Zm.815-1.712c.23-.66.429-1.426.599-2.29l-1.963-.385a14.949 14.949 0 0 1-.524 2.015l1.888.66Zm.597-2.28.59-2.87-1.96-.402-.59 2.868 1.96.403Zm.59-2.872c.381-1.877.886-3.453 1.5-4.742l-1.804-.861c-.703 1.472-1.25 3.212-1.656 5.205l1.96.398Zm1.5-4.742c.62-1.296 1.337-2.325 2.139-3.11l-1.399-1.43c-1.001.98-1.845 2.214-2.544 3.679l1.805.861Zm2.143-3.115a7.454 7.454 0 0 1 2.664-1.724L21.594.475a9.452 9.452 0 0 0-3.372 2.178l1.407 1.42Zm2.672-1.727c1.002-.384 2.11-.592 3.336-.613l-.034-2c-1.434.025-2.776.27-4.017.745l.716 1.868Zm3.322-.612c2.126-.008 3.863.507 5.266 1.491l1.149-1.637C30.241.327 28.082-.275 25.617-.266l.006 2Zm5.266 1.491c1.418.995 2.531 2.443 3.318 4.4l1.855-.747c-.907-2.256-2.241-4.038-4.024-5.29l-1.149 1.637Zm3.318 4.401c.788 1.95 1.211 4.343 1.235 7.208l2-.016c-.026-3.044-.474-5.7-1.38-7.941l-1.855.75Zm1.235 7.208c.024 2.938-.39 5.46-1.213 7.585l1.865.722c.934-2.411 1.374-5.193 1.348-8.323l-2 .016Zm-1.213 7.583c-.812 2.085-2.057 3.679-3.73 4.821l1.128 1.652c2.033-1.388 3.52-3.317 4.466-5.747l-1.864-.726Zm-3.724 4.818c-1.662 1.117-3.849 1.73-6.632 1.764l.025 2c3.057-.037 5.655-.714 7.723-2.105l-1.116-1.66Zm-5.62 2.756-.074-9-2 .017.074 9 2-.017Zm-1.013-7.994c1.204-.074 2.28-.388 3.18-.99l-1.11-1.663c-.546.365-1.261.6-2.193.657l.123 1.996Zm3.18-.99c.9-.6 1.565-1.435 2.002-2.466l-1.84-.78c-.299.702-.724 1.217-1.272 1.583l1.11 1.663Zm2.004-2.47c.432-1.031.625-2.213.614-3.518l-2 .016c.01 1.104-.155 2.005-.459 2.73l1.845.772Zm.614-3.518c-.009-1.087-.15-2.057-.46-2.88l-1.872.703c.202.536.325 1.257.332 2.193l2-.016Zm-.46-2.88c-.302-.804-.746-1.49-1.373-1.98l-1.231 1.577c.266.207.523.55.732 1.106l1.872-.704Zm-1.373-1.98a3.454 3.454 0 0 0-2.125-.744l-.023 2c.35.004.644.108.917.32l1.231-1.575Zm-2.166-.744a3.154 3.154 0 0 0-2.021.786l1.314 1.508c.217-.189.458-.285.766-.294l-.06-2Zm-1.998.767c-.588.482-1.027 1.202-1.37 2.04l1.852.756c.282-.69.561-1.066.786-1.25l-1.268-1.546ZM22.31 12.21c-.359.847-.673 1.948-.953 3.276l1.957.412c.267-1.267.55-2.228.838-2.909l-1.842-.78Zm-.953 3.28-.722 3.483 1.959.405.721-3.483-1.958-.406Zm-.721 3.482c-.622 2.983-1.664 5.257-3.075 6.89l1.513 1.308c1.695-1.962 2.851-4.581 3.52-7.79l-1.958-.408Zm-3.07 6.885c-1.347 1.537-3.203 2.344-5.69 2.354l.008 2c2.966-.012 5.403-1.002 7.186-3.036l-1.505-1.318Zm-5.7 2.354c-2.023.027-3.755-.494-5.236-1.54l-1.155 1.632c1.857 1.312 4.01 1.94 6.418 1.908l-.027-2Zm-5.235-1.54c-1.517-1.075-2.725-2.58-3.61-4.555l-1.826.818c1.013 2.26 2.435 4.062 4.28 5.369l1.156-1.632Zm-3.61-4.553c-.884-1.982-1.35-4.287-1.372-6.936l-2 .017c.024 2.873.53 5.458 1.545 7.733l1.827-.814Zm-1.372-6.936c-.022-2.709.412-5.001 1.267-6.906L1.09 7.458C.092 9.682-.376 12.272-.352 15.2l2-.017Zm1.267-6.906c.857-1.911 2.056-3.352 3.588-4.364L5.4 2.244C3.519 3.488 2.085 5.24 1.09 7.458l1.825.819Zm3.594-4.368c1.515-1.019 3.31-1.557 5.424-1.585l-.026-2C9.452.358 7.268.99 5.393 2.25l1.116 1.66Zm4.41-2.576.076 9.068 2-.017-.075-9.068-2 .017Z" fill="#05C2DF" fill-opacity=".5" mask="url('#path-1-outside-1_1_5918')"/></svg>