<svg width="20" height="13" viewBox="0 0 20 13" fill="none" xmlns="http://www.w3.org/2000/svg">
<path d="M4.63352 0.818182V11H3.40057V2.1108H3.34091L0.855114 3.76136V2.50852L3.40057 0.818182H4.63352ZM11.1811 0.340908L7.89986 12.5312H6.82599L10.1072 0.340908H11.1811ZM15.7338 11.1392C15.1505 11.1392 14.6252 11.0232 14.1578 10.7912C13.6905 10.5592 13.316 10.241 13.0343 9.83665C12.7525 9.43229 12.5984 8.97159 12.5719 8.45455H13.7651C13.8115 8.91525 14.0203 9.2964 14.3915 9.59801C14.766 9.89631 15.2135 10.0455 15.7338 10.0455C16.1515 10.0455 16.5227 9.94768 16.8475 9.75213C17.1756 9.55658 17.4325 9.28812 17.6181 8.94673C17.807 8.60204 17.9015 8.21259 17.9015 7.77841C17.9015 7.33428 17.8037 6.93821 17.6081 6.5902C17.4159 6.23887 17.1507 5.96212 16.8127 5.75994C16.4746 5.55776 16.0885 5.45502 15.6543 5.4517C15.3427 5.44839 15.0229 5.49645 14.6948 5.59588C14.3667 5.692 14.0965 5.81629 13.8844 5.96875L12.731 5.82955L13.3475 0.818182H18.6373V1.91193H14.3816L14.0236 4.91477H14.0833C14.2921 4.74905 14.5539 4.61151 14.8688 4.50213C15.1837 4.39276 15.5118 4.33807 15.8532 4.33807C16.4763 4.33807 17.0314 4.48722 17.5186 4.78551C18.0092 5.08049 18.3936 5.48485 18.6721 5.99858C18.9538 6.51231 19.0946 7.09896 19.0946 7.75852C19.0946 8.40814 18.9488 8.98816 18.6571 9.49858C18.3688 10.0057 17.9711 10.4067 17.464 10.7017C16.9569 10.9934 16.3801 11.1392 15.7338 11.1392Z" fill="#05C2DF"/>
</svg>
