<svg width="51" height="334" viewBox="0 0 51 334" fill="none" xmlns="http://www.w3.org/2000/svg">
<mask id="path-1-outside-1_1_396" maskUnits="userSpaceOnUse" x="-0.999649" y="-1.44929" width="53.7858" height="336.412" fill="black">
<rect fill="white" x="-0.999649" y="-1.44929" width="53.7858" height="336.412"/>
<path d="M1.12548 14.0476L1.01235 0.411727L47.6837 15.3887L47.827 32.6608L1.41057 48.4101L1.29744 34.7742L34.9391 24.3129L34.9361 23.9493L1.12548 14.0476ZM19.4674 11.3499L19.6801 36.9854L10.2258 37.0638L10.0131 11.4283L19.4674 11.3499ZM1.44777 52.8929L47.9916 52.5067L48.1591 72.6878C48.1885 76.2332 47.7359 79.2143 46.8014 81.6312C45.867 84.0633 44.5337 85.9002 42.8015 87.1419C41.0695 88.3987 39.0217 89.0369 36.6581 89.0566C34.946 89.0708 33.3823 88.7049 31.967 87.9591C30.5518 87.2284 29.3614 86.1927 28.3957 84.8522C27.4451 83.5116 26.7805 81.9413 26.402 80.1413L25.9474 80.1451C25.8883 82.1457 25.3958 83.968 24.47 85.6121C23.5594 87.2561 22.2899 88.5697 20.6617 89.5529C19.0486 90.536 17.1436 91.0367 14.9467 91.0549C12.4013 91.076 10.1307 90.4282 8.13484 89.1114C6.13913 87.8097 4.56299 85.9439 3.40642 83.514C2.24986 81.0842 1.65756 78.1799 1.62953 74.8012L1.44777 52.8929ZM11.6432 65.4451L11.6922 71.354C11.7098 73.4751 12.1169 75.0627 12.9136 76.1167C13.7254 77.1706 14.9115 77.6911 16.4721 77.6782C17.563 77.6691 18.4851 77.4115 19.2385 76.9052C19.9919 76.3989 20.5617 75.6821 20.948 74.7546C21.3344 73.8422 21.5222 72.7422 21.5115 71.4543L21.461 65.3636L11.6432 65.4451ZM29.2789 65.2988L29.3219 70.4804C29.3311 71.5864 29.5134 72.5622 29.8689 73.4078C30.2245 74.2534 30.7299 74.9083 31.3853 75.3726C32.056 75.8519 32.8686 76.0875 33.8231 76.0796C35.2624 76.0677 36.3566 75.5434 37.1056 74.5069C37.8697 73.4702 38.2453 72.164 38.2322 70.5883L38.1877 65.2249L29.2789 65.2988ZM25.4485 140.538C20.2668 140.581 15.8874 139.609 12.3102 137.624C8.74814 135.638 6.03627 132.941 4.17459 129.532C2.32807 126.123 1.38733 122.312 1.35238 118.1C1.31719 113.858 2.20202 110.017 4.00688 106.578C5.82702 103.154 8.5014 100.419 12.03 98.3748C15.5739 96.3454 19.9215 95.3093 25.0729 95.2665C30.2545 95.2235 34.6263 96.1873 38.1882 98.1578C41.7654 100.143 44.4772 102.833 46.3236 106.227C48.1853 109.636 49.1337 113.461 49.1689 117.704C49.2039 121.916 48.3189 125.741 46.514 129.181C44.7243 132.62 42.0576 135.362 38.5138 137.406C34.9852 139.451 30.6301 140.495 25.4485 140.538ZM25.3406 127.538C28.1284 127.515 30.4737 127.124 32.3766 126.366C34.2947 125.623 35.7402 124.528 36.7131 123.08C37.7012 121.648 38.1866 119.886 38.1693 117.795C38.152 115.704 37.6373 113.943 36.6254 112.512C35.6288 111.096 34.1653 110.025 32.235 109.298C30.3199 108.587 27.9685 108.243 25.1807 108.266C22.3929 108.289 20.04 108.672 18.1218 109.416C16.219 110.174 14.7734 111.269 13.7853 112.702C12.8124 114.149 12.3347 115.918 12.352 118.009C12.3694 120.1 12.8763 121.853 13.873 123.269C14.8849 124.701 16.3484 125.772 18.2634 126.483C20.1938 127.21 22.5528 127.561 25.3406 127.538ZM48.9974 173.736L49.1022 186.371L19.2851 186.619C15.7398 186.648 12.6646 185.825 10.0597 184.15C7.47012 182.489 5.45828 180.158 4.02422 177.154C2.60532 174.151 1.87934 170.657 1.84628 166.672C1.81296 162.657 2.48075 159.136 3.84962 156.109C5.23365 153.083 7.20652 150.718 9.76824 149.015C12.3452 147.327 15.4064 146.468 18.9517 146.438L48.7689 146.191L48.8737 158.827L20.1474 159.065C18.7081 159.077 17.4229 159.406 16.2919 160.052C15.176 160.697 14.3045 161.584 13.6774 162.71C13.0505 163.852 12.7431 165.142 12.755 166.581C12.7671 168.036 13.0959 169.321 13.7416 170.437C14.3872 171.553 15.2733 172.424 16.3997 173.051C17.5413 173.678 18.8318 173.986 20.2711 173.974L48.9974 173.736ZM38.96 191.189L49.1415 191.104L49.4771 231.557L39.2957 231.642L39.1795 217.642L2.81713 217.944L2.71381 205.49L39.0762 205.188L38.96 191.189ZM49.8509 276.607L49.9557 289.243L20.1386 289.49C16.5932 289.52 13.5181 288.697 10.9132 287.021C8.32361 285.361 6.31177 283.029 4.87771 280.026C3.4588 277.022 2.73282 273.528 2.69976 269.543C2.66645 265.528 3.33423 262.008 4.70311 258.981C6.08714 255.954 8.06001 253.589 10.6217 251.886C13.1987 250.198 16.2599 249.339 19.8052 249.31L49.6224 249.062L49.7272 261.698L21.0009 261.937C19.5616 261.949 18.2764 262.278 17.1453 262.923C16.0294 263.569 15.158 264.455 14.5309 265.581C13.904 266.723 13.5965 268.014 13.6085 269.453C13.6205 270.907 13.9494 272.193 14.595 273.308C15.2407 274.424 16.1267 275.296 17.2532 275.923C18.3948 276.55 19.6853 276.857 21.1246 276.845L49.8509 276.607ZM35.6688 320.459C37.1829 320.325 38.3599 319.747 39.2 318.725C40.0401 317.718 40.4517 316.192 40.4347 314.147C40.4239 312.844 40.256 311.777 39.9309 310.946C39.6211 310.13 39.1994 309.528 38.6659 309.138C38.1323 308.749 37.5246 308.549 36.8426 308.54C36.2818 308.514 35.7751 308.617 35.3224 308.848C34.8851 309.094 34.4867 309.476 34.1273 309.994C33.7831 310.512 33.4704 311.174 33.1892 311.979C32.908 312.785 32.6584 313.741 32.4403 314.849L31.6538 318.674C31.1298 321.254 30.4284 323.465 29.5497 325.305C28.671 327.146 27.6304 328.655 26.428 329.832C25.2408 331.008 23.8994 331.875 22.404 332.433C20.9087 333.006 19.2748 333.308 17.5023 333.338C14.4416 333.348 11.8445 332.604 9.71075 331.107C7.57704 329.609 5.94549 327.456 4.81608 324.647C3.68681 321.853 3.10583 318.487 3.07314 314.547C3.03958 310.502 3.60876 306.967 4.78067 303.942C5.95271 300.932 7.7742 298.584 10.2451 296.896C12.7313 295.224 15.9213 294.364 19.815 294.317L19.9145 306.317C18.491 306.404 17.297 306.77 16.3326 307.415C15.3682 308.059 14.6408 308.959 14.1504 310.115C13.6601 311.285 13.4216 312.674 13.4349 314.28C13.4461 315.628 13.6221 316.756 13.963 317.662C14.3039 318.568 14.7717 319.254 15.3665 319.718C15.9613 320.183 16.6375 320.42 17.3952 320.429C18.1071 320.408 18.7264 320.168 19.2529 319.709C19.7947 319.265 20.2735 318.534 20.6893 317.515C21.1202 316.496 21.5179 315.122 21.8824 313.391L22.8439 308.747C23.7036 304.618 25.169 301.356 27.2401 298.96C29.3265 296.579 32.1879 295.381 35.8242 295.366C38.7785 295.326 41.3683 296.093 43.5936 297.665C45.8341 299.253 47.5873 301.458 48.8532 304.281C50.1192 307.119 50.7675 310.379 50.798 314.061C50.8292 317.818 50.2274 321.073 48.9926 323.826C47.7578 326.579 46.0027 328.707 43.7272 330.211C41.467 331.73 38.8143 332.509 35.7691 332.55L35.6688 320.459Z"/>
</mask>
<path d="M1.12548 14.0476L0.125516 14.0559L0.131678 14.7986L0.844433 15.0073L1.12548 14.0476ZM1.01235 0.411727L1.31791 -0.540448L0.000909095 -0.963075L0.0123841 0.420023L1.01235 0.411727ZM47.6837 15.3887L48.6836 15.3804L48.6776 14.6574L47.9892 14.4365L47.6837 15.3887ZM47.827 32.6608L48.1483 33.6078L48.8329 33.3755L48.8269 32.6525L47.827 32.6608ZM1.41057 48.4101L0.410609 48.4184L0.422084 49.8015L1.73189 49.3571L1.41057 48.4101ZM1.29744 34.7742L1.00051 33.8193L0.291315 34.0398L0.297477 34.7825L1.29744 34.7742ZM34.9391 24.3129L35.236 25.2678L35.9452 25.0473L35.939 24.3046L34.9391 24.3129ZM34.9361 23.9493L35.936 23.941L35.9299 23.1983L35.2171 22.9896L34.9361 23.9493ZM19.4674 11.3499L20.4673 11.3416L20.459 10.3416L19.4591 10.3499L19.4674 11.3499ZM19.6801 36.9854L19.6884 37.9854L20.6883 37.9771L20.68 36.9771L19.6801 36.9854ZM10.2258 37.0638L9.22587 37.0721L9.23417 38.0721L10.2341 38.0638L10.2258 37.0638ZM10.0131 11.4283L10.0049 10.4284L9.00489 10.4367L9.01318 11.4366L10.0131 11.4283ZM2.12545 14.0393L2.01232 0.40343L0.0123841 0.420023L0.125516 14.0559L2.12545 14.0393ZM0.706793 1.3639L47.3781 16.3409L47.9892 14.4365L1.31791 -0.540448L0.706793 1.3639ZM46.6837 15.397L46.827 32.6691L48.8269 32.6525L48.6836 15.3804L46.6837 15.397ZM47.5057 31.7138L1.08926 47.4631L1.73189 49.3571L48.1483 33.6078L47.5057 31.7138ZM2.41054 48.4018L2.29741 34.7659L0.297477 34.7825L0.410609 48.4184L2.41054 48.4018ZM1.59438 35.7291L35.236 25.2678L34.6421 23.358L1.00051 33.8193L1.59438 35.7291ZM35.939 24.3046L35.936 23.941L33.9361 23.9576L33.9391 24.3212L35.939 24.3046ZM35.2171 22.9896L1.40653 13.0879L0.844433 15.0073L34.655 24.909L35.2171 22.9896ZM18.4674 11.3582L18.6801 36.9937L20.68 36.9771L20.4673 11.3416L18.4674 11.3582ZM19.6718 35.9854L10.2175 36.0639L10.2341 38.0638L19.6884 37.9854L19.6718 35.9854ZM11.2258 37.0555L11.0131 11.42L9.01318 11.4366L9.22587 37.0721L11.2258 37.0555ZM10.0214 12.4283L19.4757 12.3499L19.4591 10.3499L10.0049 10.4284L10.0214 12.4283ZM1.44777 52.8929L1.43947 51.8929L0.439504 51.9012L0.447801 52.9012L1.44777 52.8929ZM47.9916 52.5067L48.9916 52.4984L48.9833 51.4985L47.9833 51.5068L47.9916 52.5067ZM46.8014 81.6312L45.8687 81.2706L45.8679 81.2726L46.8014 81.6312ZM42.8015 87.1419L42.2189 86.3291L42.2142 86.3325L42.8015 87.1419ZM31.967 87.9591L32.4332 87.0744L32.4258 87.0705L31.967 87.9591ZM28.3957 84.8522L27.5799 85.4306L27.5843 85.4367L28.3957 84.8522ZM26.402 80.1413L27.3805 79.9355L27.2121 79.1346L26.3937 79.1414L26.402 80.1413ZM25.9474 80.1451L25.9391 79.1451L24.9763 79.1531L24.9479 80.1155L25.9474 80.1451ZM24.47 85.6121L23.5986 85.1214L23.5952 85.1275L24.47 85.6121ZM20.6617 89.5529L20.1447 88.6969L20.1412 88.699L20.6617 89.5529ZM8.13484 89.1114L8.68556 88.2767L8.68114 88.2738L8.13484 89.1114ZM3.40642 83.514L4.30936 83.0843L3.40642 83.514ZM11.6432 65.4451L11.6349 64.4451L10.6349 64.4534L10.6432 65.4534L11.6432 65.4451ZM12.9136 76.1167L12.1158 76.7197L12.1213 76.727L12.9136 76.1167ZM20.948 74.7546L20.0272 74.3646L20.0248 74.3701L20.948 74.7546ZM21.461 65.3636L22.461 65.3553L22.4527 64.3554L21.4527 64.3637L21.461 65.3636ZM29.2789 65.2988L29.2706 64.2988L28.2707 64.3071L28.279 65.3071L29.2789 65.2988ZM29.8689 73.4078L28.9471 73.7954L29.8689 73.4078ZM31.3853 75.3726L31.9667 74.559L31.9633 74.5566L31.3853 75.3726ZM37.1056 74.5069L36.3006 73.9135L36.295 73.9212L37.1056 74.5069ZM38.1877 65.2249L39.1877 65.2166L39.1794 64.2166L38.1794 64.2249L38.1877 65.2249ZM1.45606 53.8928L47.9999 53.5067L47.9833 51.5068L1.43947 51.8929L1.45606 53.8928ZM46.9917 52.515L47.1591 72.6961L49.159 72.6795L48.9916 52.4984L46.9917 52.515ZM47.1591 72.6961C47.1878 76.1587 46.7443 79.0059 45.8687 81.2706L47.7341 81.9919C48.7275 79.4227 49.1891 76.3076 49.159 72.6795L47.1591 72.6961ZM45.8679 81.2726C44.9879 83.5632 43.7601 85.2244 42.2189 86.3291L43.3841 87.9546C45.3073 86.576 46.7461 84.5635 47.7349 81.9899L45.8679 81.2726ZM42.2142 86.3325C40.6682 87.4544 38.828 88.0385 36.6498 88.0566L36.6664 90.0565C39.2153 90.0354 41.4707 89.3431 43.3888 87.9512L42.2142 86.3325ZM36.6498 88.0566C35.0911 88.0695 33.6921 87.7378 32.4332 87.0744L31.5008 88.8437C33.0725 89.672 34.801 90.072 36.6664 90.0565L36.6498 88.0566ZM32.4258 87.0705C31.1557 86.4147 30.0843 85.4855 29.207 84.2677L27.5843 85.4367C28.6384 86.9 29.9479 88.042 31.5082 88.8476L32.4258 87.0705ZM29.2114 84.2738C28.349 83.0575 27.7343 81.6174 27.3805 79.9355L25.4234 80.3472C25.8268 82.2651 26.5412 83.9656 27.5799 85.4306L29.2114 84.2738ZM26.3937 79.1414L25.9391 79.1451L25.9557 81.1451L26.4103 81.1413L26.3937 79.1414ZM24.9479 80.1155C24.8932 81.9644 24.4402 83.627 23.5987 85.1214L25.3414 86.1027C26.3514 84.309 26.8833 82.3269 26.947 80.1747L24.9479 80.1155ZM23.5952 85.1275C22.7704 86.6166 21.6252 87.8029 20.1447 88.6969L21.1786 90.4089C22.9547 89.3365 24.3483 87.8955 25.3448 86.0966L23.5952 85.1275ZM20.1412 88.699C18.7062 89.5736 16.9844 90.038 14.9384 90.055L14.955 92.0549C17.3027 92.0354 19.3909 91.4984 21.1821 90.4068L20.1412 88.699ZM14.9384 90.055C12.5781 90.0745 10.5047 89.4769 8.68556 88.2767L7.58413 89.9461C9.75667 91.3795 12.2245 92.0775 14.955 92.0549L14.9384 90.055ZM8.68114 88.2738C6.8588 87.0852 5.39732 85.37 4.30936 83.0843L2.50348 83.9438C3.72865 86.5178 5.41945 88.5342 7.58854 89.949L8.68114 88.2738ZM4.30936 83.0843C3.22939 80.8153 2.65662 78.0619 2.6295 74.7929L0.629566 74.8095C0.658508 78.2979 1.27033 81.353 2.50348 83.9438L4.30936 83.0843ZM2.6295 74.7929L2.44773 52.8846L0.447801 52.9012L0.629566 74.8095L2.6295 74.7929ZM10.6432 65.4534L10.6922 71.3623L12.6922 71.3457L12.6431 65.4368L10.6432 65.4534ZM10.6922 71.3623C10.7106 73.5781 11.1323 75.4184 12.1158 76.7197L13.7113 75.5138C13.1016 74.707 12.709 73.3722 12.6922 71.3457L10.6922 71.3623ZM12.1213 76.727C13.1588 78.0738 14.668 78.6932 16.4804 78.6781L16.4638 76.6782C15.1551 76.6891 14.292 76.2675 13.7058 75.5065L12.1213 76.727ZM16.4804 78.6781C17.727 78.6678 18.85 78.3711 19.7962 77.7352L18.6808 76.0752C18.1202 76.4518 17.3989 76.6704 16.4638 76.6782L16.4804 78.6781ZM19.7962 77.7352C20.7297 77.1079 21.4178 76.2276 21.8711 75.139L20.0248 74.3701C19.7057 75.1366 19.2541 75.6899 18.6808 76.0752L19.7962 77.7352ZM21.8688 75.1446C22.322 74.0746 22.523 72.8314 22.5115 71.446L20.5116 71.4626C20.5215 72.6529 20.3468 73.6099 20.0272 74.3646L21.8688 75.1446ZM22.5115 71.446L22.461 65.3553L20.461 65.3719L20.5116 71.4626L22.5115 71.446ZM21.4527 64.3637L11.6349 64.4451L11.6515 66.4451L21.4693 66.3636L21.4527 64.3637ZM28.279 65.3071L28.3219 70.4887L30.3219 70.4721L30.2789 65.2905L28.279 65.3071ZM28.3219 70.4887C28.332 71.6988 28.5318 72.8077 28.9471 73.7954L30.7908 73.0202C30.495 72.3168 30.3302 71.474 30.3219 70.4721L28.3219 70.4887ZM28.9471 73.7954C29.3645 74.788 29.9788 75.6017 30.8072 76.1886L31.9633 74.5566C31.481 74.2149 31.0845 73.7187 30.7908 73.0202L28.9471 73.7954ZM30.8039 76.1861C31.6726 76.807 32.7001 77.089 33.8314 77.0796L33.8148 75.0797C33.037 75.0861 32.4393 74.8967 31.9667 74.559L30.8039 76.1861ZM33.8314 77.0796C35.5428 77.0654 36.9554 76.4221 37.9161 75.0926L36.295 73.9212C35.7577 74.6648 34.982 75.07 33.8148 75.0797L33.8314 77.0796ZM37.9105 75.1002C38.8296 73.8534 39.2466 72.3226 39.2322 70.58L37.2322 70.5966C37.2439 72.0054 36.9099 73.087 36.3006 73.9135L37.9105 75.1002ZM39.2322 70.58L39.1877 65.2166L37.1877 65.2332L37.2322 70.5966L39.2322 70.58ZM38.1794 64.2249L29.2706 64.2988L29.2872 66.2987L38.196 66.2248L38.1794 64.2249ZM12.3102 137.624L11.8233 138.497L11.8249 138.498L12.3102 137.624ZM4.17459 129.532L3.29529 130.008L3.29694 130.011L4.17459 129.532ZM4.00688 106.578L3.12386 106.109L3.1214 106.113L4.00688 106.578ZM12.03 98.3748L11.5331 97.507L11.5287 97.5096L12.03 98.3748ZM38.1882 98.1578L38.6735 97.2835L38.6723 97.2828L38.1882 98.1578ZM46.3236 106.227L45.4452 106.705L45.446 106.706L46.3236 106.227ZM46.514 129.181L45.6286 128.716L45.627 128.719L46.514 129.181ZM38.5138 137.406L38.0141 136.54L38.0125 136.541L38.5138 137.406ZM32.3766 126.366L32.0153 125.434L32.0064 125.437L32.3766 126.366ZM36.7131 123.08L35.8899 122.512L35.8831 122.522L36.7131 123.08ZM36.6254 112.512L35.8077 113.088L35.8089 113.09L36.6254 112.512ZM32.235 109.298L32.5872 108.363L32.5832 108.361L32.235 109.298ZM18.1218 109.416L17.7605 108.483L17.7517 108.487L18.1218 109.416ZM13.7853 112.702L12.9621 112.134L12.9553 112.144L13.7853 112.702ZM13.873 123.269L13.0552 123.845L13.0565 123.847L13.873 123.269ZM18.2634 126.483L18.6156 125.547L18.6117 125.546L18.2634 126.483ZM25.4402 139.538C20.3859 139.58 16.1866 138.632 12.7955 136.75L11.8249 138.498C15.5881 140.587 20.1477 141.582 25.4567 141.538L25.4402 139.538ZM12.7971 136.75C9.39124 134.852 6.81885 132.288 5.05224 129.053L3.29694 130.011C5.2537 133.594 8.10503 136.425 11.8233 138.497L12.7971 136.75ZM5.05389 129.056C3.29185 125.803 2.38606 122.155 2.35235 118.092L0.352422 118.109C0.388604 122.47 1.36428 126.443 3.2953 130.008L5.05389 129.056ZM2.35235 118.092C2.31839 113.999 3.17093 110.323 4.89236 107.043L3.1214 106.113C1.2331 109.712 0.315988 113.717 0.352422 118.109L2.35235 118.092ZM4.88989 107.047C6.61768 103.797 9.15571 101.196 12.5313 99.2401L11.5287 97.5096C7.84708 99.6427 5.03636 102.511 3.12387 106.109L4.88989 107.047ZM12.527 99.2426C15.8879 97.3179 20.0573 96.3082 25.0812 96.2665L25.0646 94.2666C19.7858 94.3103 15.2599 95.3728 11.5331 97.5071L12.527 99.2426ZM25.0812 96.2665C30.1367 96.2245 34.3286 97.1654 37.7041 99.0328L38.6723 97.2828C34.924 95.2092 30.3723 94.2225 25.0646 94.2666L25.0812 96.2665ZM37.7029 99.0321C41.1243 100.931 43.695 103.488 45.4452 106.705L47.202 105.749C45.2594 102.178 42.4065 99.3555 38.6735 97.2835L37.7029 99.0321ZM45.446 106.706C47.2216 109.958 48.135 113.619 48.169 117.712L50.1689 117.695C50.1325 113.304 49.149 109.314 47.2013 105.748L45.446 106.706ZM48.169 117.712C48.2027 121.774 47.3505 125.435 45.6286 128.716L47.3995 129.645C49.2873 126.048 50.2051 122.058 50.1689 117.695L48.169 117.712ZM45.627 128.719C43.9302 131.98 41.4024 134.585 38.0141 136.54L39.0136 138.273C42.7128 136.138 45.5185 133.26 47.4011 129.642L45.627 128.719ZM38.0125 136.541C34.6691 138.478 30.4946 139.496 25.4402 139.538L25.4567 141.538C30.7656 141.494 35.3013 140.424 39.0152 138.272L38.0125 136.541ZM25.3489 128.538C28.2188 128.514 30.6953 128.112 32.7467 127.295L32.0064 125.437C30.2521 126.136 28.038 126.516 25.3323 126.538L25.3489 128.538ZM32.7379 127.299C34.8118 126.495 36.4366 125.284 37.5431 123.638L35.8831 122.522C35.0438 123.771 33.7777 124.751 32.0153 125.434L32.7379 127.299ZM37.5362 123.648C38.6631 122.014 39.188 120.041 39.1693 117.787L37.1693 117.803C37.1853 119.731 36.7394 121.281 35.8899 122.512L37.5362 123.648ZM39.1693 117.787C39.1506 115.532 38.5928 113.562 37.4419 111.935L35.8089 113.09C36.6818 114.324 37.1533 115.876 37.1693 117.803L39.1693 117.787ZM37.4432 111.937C36.3104 110.327 34.6688 109.146 32.5872 108.363L31.8828 110.234C33.6619 110.904 34.9472 111.865 35.8077 113.088L37.4432 111.937ZM32.5832 108.361C30.5208 107.595 28.0404 107.242 25.1724 107.266L25.189 109.266C27.8965 109.244 30.119 109.579 31.8867 110.236L32.5832 108.361ZM25.1724 107.266C22.304 107.29 19.8235 107.684 17.7605 108.483L18.4831 110.348C20.2564 109.661 22.4819 109.288 25.189 109.266L25.1724 107.266ZM17.7517 108.487C15.6986 109.305 14.081 110.512 12.9621 112.134L14.6084 113.269C15.4659 112.027 16.7393 111.043 18.492 110.345L17.7517 108.487ZM12.9553 112.144C11.8493 113.79 11.3334 115.766 11.352 118.017L13.352 118.001C13.336 116.071 13.7756 114.509 14.6153 113.259L12.9553 112.144ZM11.352 118.017C11.3707 120.269 11.9192 122.231 13.0552 123.845L14.6907 122.694C13.8335 121.476 13.368 119.931 13.352 118.001L11.352 118.017ZM13.0565 123.847C14.203 125.468 15.8434 126.651 17.9152 127.421L18.6117 125.546C16.8533 124.893 15.5668 123.933 14.6895 122.692L13.0565 123.847ZM17.9112 127.419C19.9894 128.201 22.4786 128.562 25.3489 128.538L25.3323 126.538C22.627 126.561 20.3981 126.218 18.6156 125.547L17.9112 127.419ZM48.9974 173.736L49.9974 173.727L49.9891 172.727L48.9891 172.736L48.9974 173.736ZM49.1022 186.371L49.1105 187.371L50.1105 187.363L50.1022 186.363L49.1022 186.371ZM10.0597 184.15L10.6007 183.309L10.5995 183.308L10.0597 184.15ZM4.02423 177.154L3.12004 177.581L3.12182 177.585L4.02423 177.154ZM3.84963 156.109L2.94018 155.694L2.93848 155.697L3.84963 156.109ZM9.76824 149.015L9.22026 148.178L9.21459 148.182L9.76824 149.015ZM48.7689 146.191L49.7689 146.183L49.7606 145.183L48.7606 145.191L48.7689 146.191ZM48.8737 158.827L48.882 159.827L49.882 159.819L49.8737 158.819L48.8737 158.827ZM16.2918 160.052L15.796 159.183L15.791 159.186L16.2918 160.052ZM13.6775 162.71L12.8037 162.224L12.8009 162.229L13.6775 162.71ZM13.7416 170.437L12.876 170.938L13.7416 170.437ZM16.3997 173.051L15.9133 173.925L15.9184 173.928L16.3997 173.051ZM47.9974 173.744L48.1023 186.38L50.1022 186.363L49.9974 173.727L47.9974 173.744ZM49.094 185.371L19.2768 185.619L19.2934 187.619L49.1105 187.371L49.094 185.371ZM19.2768 185.619C15.8972 185.647 13.0191 184.864 10.6007 183.309L9.51879 184.991C12.3102 186.786 15.5824 187.65 19.2934 187.619L19.2768 185.619ZM10.5995 183.308C8.17949 181.756 6.28726 179.573 4.92663 176.723L3.12182 177.585C4.6293 180.742 6.76075 183.222 9.51999 184.992L10.5995 183.308ZM4.92841 176.727C3.58251 173.878 2.87833 170.532 2.84624 166.664L0.846309 166.68C0.880334 170.781 1.62813 174.423 3.12005 177.581L4.92841 176.727ZM2.84624 166.664C2.81388 162.764 3.46275 159.391 4.76077 156.522L2.93848 155.697C1.49875 158.881 0.812042 162.55 0.846309 166.68L2.84624 166.664ZM4.75906 156.525C6.07222 153.654 7.92797 151.439 10.3219 149.847L9.21459 148.182C6.48508 149.997 4.39508 152.512 2.94019 155.694L4.75906 156.525ZM10.3162 149.851C12.7096 148.283 15.5769 147.466 18.96 147.438L18.9434 145.438C15.2359 145.469 11.9809 146.37 9.22027 148.178L10.3162 149.851ZM18.96 147.438L48.7772 147.191L48.7606 145.191L18.9434 145.438L18.96 147.438ZM47.7689 146.199L47.8738 158.835L49.8737 158.819L49.7689 146.183L47.7689 146.199ZM48.8654 157.827L20.1391 158.065L20.1557 160.065L48.882 159.827L48.8654 157.827ZM20.1391 158.065C18.5471 158.079 17.0909 158.444 15.796 159.183L16.7877 160.92C17.7549 160.368 18.8691 160.076 20.1557 160.065L20.1391 158.065ZM15.791 159.186C14.5189 159.922 13.5185 160.939 12.8037 162.224L14.5512 163.196C15.0904 162.228 15.833 161.473 16.7927 160.917L15.791 159.186ZM12.8009 162.229C12.0832 163.536 11.7418 164.998 11.755 166.59L13.755 166.573C13.7443 165.286 14.0178 164.168 14.554 163.191L12.8009 162.229ZM11.755 166.59C11.7683 168.195 12.133 169.654 12.876 170.938L14.6071 169.936C14.0588 168.988 13.7658 167.877 13.755 166.573L11.755 166.59ZM12.876 170.938C13.6121 172.21 14.6291 173.21 15.9133 173.925L16.8861 172.178C15.9174 171.638 15.1624 170.896 14.6071 169.936L12.876 170.938ZM15.9184 173.928C17.2253 174.646 18.6874 174.987 20.2794 174.974L20.2628 172.974C18.9762 172.985 17.8573 172.711 16.8811 172.175L15.9184 173.928ZM20.2794 174.974L49.0057 174.735L48.9891 172.736L20.2628 172.974L20.2794 174.974ZM38.96 191.189L38.9517 190.189L37.9518 190.197L37.9601 191.197L38.96 191.189ZM49.1415 191.104L50.1415 191.096L50.1332 190.096L49.1332 190.104L49.1415 191.104ZM49.4771 231.557L49.4854 232.557L50.4854 232.549L50.4771 231.549L49.4771 231.557ZM39.2957 231.642L38.2957 231.65L38.304 232.65L39.304 232.642L39.2957 231.642ZM39.1795 217.642L40.1795 217.634L40.1712 216.634L39.1712 216.642L39.1795 217.642ZM2.81713 217.944L1.81717 217.952L1.82547 218.952L2.82543 218.944L2.81713 217.944ZM2.71381 205.49L2.70551 204.49L1.70555 204.498L1.71384 205.498L2.71381 205.49ZM39.0762 205.188L39.0845 206.188L40.0845 206.18L40.0762 205.18L39.0762 205.188ZM38.9683 192.189L49.1498 192.104L49.1332 190.104L38.9517 190.189L38.9683 192.189ZM48.1415 191.113L48.4772 231.566L50.4771 231.549L50.1415 191.096L48.1415 191.113ZM49.4688 230.557L39.2874 230.642L39.304 232.642L49.4854 232.557L49.4688 230.557ZM40.2956 231.634L40.1795 217.634L38.1796 217.651L38.2957 231.65L40.2956 231.634ZM39.1712 216.642L2.80884 216.944L2.82543 218.944L39.1878 218.642L39.1712 216.642ZM3.8171 217.936L3.71377 205.482L1.71384 205.498L1.81717 217.952L3.8171 217.936ZM2.7221 206.49L39.0845 206.188L39.0679 204.188L2.70551 204.49L2.7221 206.49ZM40.0762 205.18L39.96 191.18L37.9601 191.197L38.0762 205.197L40.0762 205.18ZM49.8509 276.607L50.8509 276.599L50.8426 275.599L49.8426 275.607L49.8509 276.607ZM49.9557 289.243L49.964 290.243L50.964 290.235L50.9557 289.235L49.9557 289.243ZM10.9132 287.021L11.4542 286.18L11.453 286.179L10.9132 287.021ZM4.87771 280.026L3.97353 280.453L3.9753 280.457L4.87771 280.026ZM4.70311 258.981L3.79367 258.565L3.79197 258.569L4.70311 258.981ZM10.6217 251.886L10.0737 251.05L10.0681 251.053L10.6217 251.886ZM49.6224 249.062L50.6223 249.054L50.614 248.054L49.6141 248.062L49.6224 249.062ZM49.7272 261.698L49.7355 262.698L50.7355 262.69L50.7272 261.69L49.7272 261.698ZM17.1453 262.923L16.6495 262.055L16.6445 262.058L17.1453 262.923ZM14.5309 265.581L13.6572 265.095L13.6544 265.1L14.5309 265.581ZM14.595 273.308L13.7295 273.809L14.595 273.308ZM17.2532 275.923L16.7668 276.797L16.7718 276.799L17.2532 275.923ZM48.8509 276.615L48.9558 289.251L50.9557 289.235L50.8509 276.599L48.8509 276.615ZM49.9474 288.243L20.1303 288.49L20.1469 290.49L49.964 290.243L49.9474 288.243ZM20.1303 288.49C16.7506 288.518 13.8726 287.736 11.4542 286.18L10.3723 287.862C13.1637 289.658 16.4358 290.521 20.1469 290.49L20.1303 288.49ZM11.453 286.179C9.03298 284.628 7.14075 282.444 5.78012 279.595L3.9753 280.457C5.48279 283.614 7.61423 286.094 10.3735 287.863L11.453 286.179ZM5.78189 279.598C4.436 276.75 3.73182 273.403 3.69973 269.535L1.69979 269.552C1.73382 273.653 2.48161 277.295 3.97353 280.453L5.78189 279.598ZM3.69973 269.535C3.66737 265.635 4.31623 262.263 5.61425 259.393L3.79197 258.569C2.35223 261.752 1.66553 265.421 1.69979 269.552L3.69973 269.535ZM5.61254 259.397C6.9257 256.525 8.78145 254.31 11.1754 252.719L10.0681 251.053C7.33857 252.868 5.24857 255.383 3.79368 258.565L5.61254 259.397ZM11.1697 252.723C13.5631 251.155 16.4304 250.338 19.8135 250.31L19.7969 248.31C16.0894 248.341 12.8344 249.241 10.0738 251.05L11.1697 252.723ZM19.8135 250.31L49.6307 250.062L49.6141 248.062L19.7969 248.31L19.8135 250.31ZM48.6224 249.071L48.7272 261.707L50.7272 261.69L50.6223 249.054L48.6224 249.071ZM49.7189 260.698L20.9926 260.937L21.0092 262.937L49.7355 262.698L49.7189 260.698ZM20.9926 260.937C19.4006 260.95 17.9443 261.316 16.6495 262.055L17.6412 263.792C18.6084 263.239 19.7226 262.947 21.0092 262.937L20.9926 260.937ZM16.6445 262.058C15.3724 262.794 14.372 263.811 13.6572 265.095L15.4047 266.068C15.9439 265.099 16.6865 264.344 17.6461 263.789L16.6445 262.058ZM13.6544 265.1C12.9367 266.407 12.5953 267.869 12.6085 269.461L14.6084 269.445C14.5978 268.158 14.8713 267.039 15.4075 266.063L13.6544 265.1ZM12.6085 269.461C12.6218 271.066 12.9865 272.525 13.7295 273.809L15.4606 272.808C14.9123 271.86 14.6193 270.749 14.6084 269.445L12.6085 269.461ZM13.7295 273.809C14.4655 275.081 15.4826 276.082 16.7668 276.797L17.7396 275.049C16.7709 274.51 16.0158 273.767 15.4606 272.808L13.7295 273.809ZM16.7718 276.799C18.0788 277.517 19.5409 277.858 21.1329 277.845L21.1163 275.845C19.8296 275.856 18.7108 275.582 17.7345 275.046L16.7718 276.799ZM21.1329 277.845L49.8592 277.607L49.8426 275.607L21.1163 275.845L21.1329 277.845ZM35.6688 320.459L35.5808 319.463L34.6611 319.544L34.6688 320.467L35.6688 320.459ZM39.2 318.725L38.4321 318.085L38.4274 318.09L39.2 318.725ZM39.9309 310.946L38.996 311.301L38.9997 311.311L39.9309 310.946ZM38.6659 309.138L39.2555 308.331L39.2555 308.331L38.6659 309.138ZM36.8426 308.54L36.797 309.539L36.8128 309.54L36.8287 309.54L36.8426 308.54ZM35.3224 308.848L34.8678 307.957L34.8498 307.966L34.8321 307.976L35.3224 308.848ZM34.1273 309.994L33.3056 309.424L33.3 309.433L33.2944 309.441L34.1273 309.994ZM32.4403 314.849L33.4198 315.051L33.4215 315.042L32.4403 314.849ZM31.6538 318.674L30.6743 318.473L30.6738 318.475L31.6538 318.674ZM29.5497 325.305L28.6472 324.875L29.5497 325.305ZM26.428 329.832L25.7286 329.117L25.7241 329.121L26.428 329.832ZM22.404 332.433L22.0545 331.496L22.0462 331.499L22.404 332.433ZM17.5023 333.338L17.5056 334.338L17.5191 334.337L17.5023 333.338ZM9.71075 331.107L9.13629 331.925L9.71075 331.107ZM4.81608 324.647L5.7439 324.274L5.74321 324.272L4.81608 324.647ZM4.78067 303.942L3.84883 303.579L3.8482 303.581L4.78067 303.942ZM10.2451 296.896L9.68702 296.067L9.68123 296.071L10.2451 296.896ZM19.815 294.317L20.8149 294.309L20.8066 293.305L19.8028 293.317L19.815 294.317ZM19.9145 306.317L19.9759 307.315L20.9224 307.256L20.9145 306.308L19.9145 306.317ZM16.3326 307.415L15.777 306.583L16.3326 307.415ZM14.1504 310.115L13.2298 309.724L13.228 309.728L14.1504 310.115ZM13.963 317.662L13.027 318.014L13.963 317.662ZM15.3665 319.718L14.7507 320.506L15.3665 319.718ZM17.3952 320.429L17.3835 321.429L17.4041 321.429L17.4247 321.428L17.3952 320.429ZM19.2529 319.709L18.6191 318.935L18.6073 318.945L18.5958 318.955L19.2529 319.709ZM20.6893 317.515L19.7682 317.125L19.7634 317.137L20.6893 317.515ZM21.8824 313.391L22.8609 313.597L22.8616 313.594L21.8824 313.391ZM22.8439 308.747L21.8649 308.543L21.8646 308.544L22.8439 308.747ZM27.2401 298.96L26.488 298.301L26.4836 298.306L27.2401 298.96ZM35.8242 295.366L35.8284 296.366L35.8377 296.366L35.8242 295.366ZM43.5936 297.665L44.1717 296.849L44.1707 296.849L43.5936 297.665ZM48.8532 304.281L49.7664 303.874L49.7656 303.872L48.8532 304.281ZM48.9926 323.826L48.0802 323.417L48.9926 323.826ZM43.7272 330.211L43.1759 329.376L43.1695 329.381L43.7272 330.211ZM35.7691 332.55L34.7691 332.558L34.7774 333.563L35.7823 333.549L35.7691 332.55ZM35.7568 321.455C37.495 321.302 38.9363 320.621 39.9725 319.36L38.4274 318.09C37.7836 318.874 36.8707 319.349 35.5808 319.463L35.7568 321.455ZM39.9678 319.366C41.0246 318.099 41.4526 316.295 41.4347 314.138L39.4348 314.155C39.4508 316.089 39.0556 317.337 38.4321 318.085L39.9678 319.366ZM41.4347 314.138C41.4233 312.765 41.2471 311.565 40.8621 310.582L38.9997 311.311C39.2649 311.988 39.4246 312.923 39.4348 314.155L41.4347 314.138ZM40.8657 310.591C40.5088 309.651 39.9884 308.866 39.2555 308.331L38.0762 309.946C38.4104 310.19 38.7334 310.61 38.9961 311.301L40.8657 310.591ZM39.2555 308.331C38.5489 307.815 37.7385 307.552 36.8566 307.54L36.8287 309.54C37.3106 309.546 37.7157 309.683 38.0762 309.946L39.2555 308.331ZM36.8883 307.541C36.1728 307.508 35.4908 307.639 34.8678 307.957L35.777 309.739C36.0594 309.595 36.3909 309.52 36.797 309.539L36.8883 307.541ZM34.8321 307.976C34.2335 308.313 33.7297 308.813 33.3056 309.424L34.9491 310.564C35.2437 310.139 35.5366 309.875 35.8127 309.719L34.8321 307.976ZM33.2944 309.441C32.8904 310.049 32.5445 310.792 32.2451 311.65L34.1333 312.309C34.3964 311.556 34.6759 310.976 34.9603 310.548L33.2944 309.441ZM32.2451 311.65C31.9443 312.511 31.6836 313.516 31.4591 314.656L33.4215 315.042C33.6332 313.967 33.8718 313.058 34.1333 312.309L32.2451 311.65ZM31.4608 314.648L30.6743 318.473L32.6333 318.876L33.4198 315.051L31.4608 314.648ZM30.6738 318.475C30.1616 320.997 29.4822 323.126 28.6472 324.875L30.4521 325.736C31.3745 323.804 32.0979 321.512 32.6338 318.873L30.6738 318.475ZM28.6472 324.875C27.8086 326.631 26.8315 328.037 25.7286 329.117L27.1274 330.546C28.4293 329.272 29.5333 327.661 30.4521 325.736L28.6472 324.875ZM25.7241 329.121C24.6327 330.203 23.4108 330.99 22.0545 331.496L22.7535 333.37C24.3881 332.76 25.8488 331.813 27.1319 330.542L25.7241 329.121ZM22.0462 331.499C20.6709 332.026 19.1537 332.31 17.4854 332.338L17.5191 334.337C19.3959 334.306 21.1466 333.986 22.7619 333.367L22.0462 331.499ZM17.4989 332.338C14.608 332.347 12.2218 331.647 10.2852 330.288L9.13629 331.925C11.4672 333.561 14.2753 334.348 17.5056 334.338L17.4989 332.338ZM10.2852 330.288C8.33417 328.919 6.81302 326.933 5.7439 324.274L3.88827 325.02C5.07796 327.979 6.81992 330.299 9.13629 331.925L10.2852 330.288ZM5.74321 324.272C4.67304 321.625 4.10505 318.389 4.07311 314.539L2.07318 314.556C2.1066 318.584 2.70058 322.082 3.88896 325.022L5.74321 324.272ZM4.07311 314.539C4.04034 310.59 4.59661 307.185 5.71314 304.303L3.8482 303.581C2.62091 306.749 2.03882 310.414 2.07318 314.556L4.07311 314.539ZM5.71251 304.305C6.8175 301.467 8.518 299.287 10.809 297.722L9.68123 296.071C7.03039 297.881 5.08792 300.397 3.84883 303.579L5.71251 304.305ZM10.8032 297.726C13.086 296.191 16.0706 295.363 19.8272 295.317L19.8028 293.317C15.772 293.366 12.3767 294.258 9.68704 296.067L10.8032 297.726ZM18.815 294.325L18.9146 306.325L20.9145 306.308L20.8149 294.309L18.815 294.325ZM19.8531 305.318C18.2933 305.414 16.9188 305.82 15.777 306.583L16.8882 308.246C17.6752 307.72 18.6886 307.394 19.9759 307.315L19.8531 305.318ZM15.777 306.583C14.6373 307.345 13.7898 308.404 13.2299 309.724L15.0709 310.505C15.4918 309.514 16.0992 308.773 16.8882 308.246L15.777 306.583ZM13.228 309.728C12.6735 311.052 12.4208 312.581 12.435 314.288L14.4349 314.271C14.4224 312.766 14.6467 311.518 15.0728 310.501L13.228 309.728ZM12.435 314.288C12.4468 315.711 12.6321 316.964 13.027 318.014L14.899 317.31C14.6122 316.547 14.4455 315.545 14.4349 314.271L12.435 314.288ZM13.027 318.014C13.4145 319.044 13.9756 319.901 14.7507 320.506L15.9822 318.93C15.5678 318.607 15.1932 318.092 14.899 317.31L13.027 318.014ZM14.7507 320.506C15.5189 321.107 16.4076 321.417 17.3835 321.429L17.4069 319.429C16.8674 319.423 16.4036 319.26 15.9822 318.93L14.7507 320.506ZM17.4247 321.428C18.363 321.401 19.2053 321.077 19.91 320.463L18.5958 318.955C18.2475 319.259 17.8513 319.415 17.3656 319.429L17.4247 321.428ZM19.8867 320.482C20.6104 319.889 21.1689 318.986 21.6151 317.893L19.7634 317.137C19.3781 318.081 18.9789 318.641 18.6191 318.935L19.8867 320.482ZM21.6103 317.905C22.0765 316.802 22.4901 315.358 22.8609 313.597L20.9039 313.185C20.5458 314.885 20.1639 316.19 19.7683 317.126L21.6103 317.905ZM22.8616 313.594L23.8231 308.95L21.8646 308.544L20.9031 313.189L22.8616 313.594ZM23.8229 308.951C24.659 304.936 26.0676 301.846 27.9967 299.614L26.4836 298.306C24.2704 300.867 22.7482 304.301 21.8649 308.543L23.8229 308.951ZM27.9922 299.619C29.8607 297.487 32.4315 296.38 35.8284 296.366L35.8201 294.366C31.9442 294.382 28.7923 295.671 26.488 298.301L27.9922 299.619ZM35.8377 296.366C38.5995 296.329 40.9785 297.042 43.0165 298.482L44.1707 296.849C41.7581 295.144 38.9576 294.324 35.8108 294.366L35.8377 296.366ZM43.0154 298.481C45.0924 299.953 46.7385 302.009 47.9407 304.69L49.7656 303.872C48.4361 300.907 46.5758 298.553 44.1717 296.849L43.0154 298.481ZM47.9399 304.688C49.1405 307.38 49.7684 310.5 49.7981 314.069L51.798 314.052C51.7665 310.258 51.0979 306.858 49.7664 303.874L47.9399 304.688ZM49.7981 314.069C49.8283 317.717 49.2435 320.823 48.0802 323.417L49.905 324.235C51.2113 321.323 51.8301 317.919 51.798 314.052L49.7981 314.069ZM48.0802 323.417C46.9145 326.015 45.2766 327.988 43.1759 329.376L44.2786 331.045C46.7288 329.426 48.6012 327.142 49.905 324.235L48.0802 323.417ZM43.1695 329.381C41.0891 330.779 38.6307 331.512 35.7558 331.55L35.7823 333.549C38.9979 333.507 41.845 332.68 44.285 331.041L43.1695 329.381ZM36.769 332.541L36.6687 320.451L34.6688 320.467L34.7691 332.558L36.769 332.541Z" fill="#05C2DF" mask="url(#path-1-outside-1_1_396)"/>
</svg>
