<svg width="52" height="334" viewBox="0 0 52 334" fill="none" xmlns="http://www.w3.org/2000/svg">
<mask id="path-1-outside-1_1_399" maskUnits="userSpaceOnUse" x="-1.03712" y="-1.30357" width="53.7858" height="336.412" fill="black">
<rect fill="white" x="-1.03712" y="-1.30357" width="53.7858" height="336.412"/>
<path d="M50.6235 319.611L50.7367 333.247L4.06536 318.27L3.92206 300.998L50.3385 285.249L50.4516 298.885L16.8099 309.346L16.813 309.709L50.6235 319.611ZM32.2817 322.309L32.069 296.673L41.5232 296.595L41.7359 322.23L32.2817 322.309ZM50.3013 280.766L3.75741 281.152L3.58997 260.971C3.56056 257.426 4.01312 254.444 4.94764 252.027C5.88204 249.595 7.21533 247.758 8.94752 246.517C10.6796 245.26 12.7274 244.622 15.0909 244.602C16.803 244.588 18.3667 244.954 19.782 245.7C21.1972 246.43 22.3877 247.466 23.3534 248.806C24.3039 250.147 24.9685 251.717 25.3471 253.517L25.8016 253.514C25.8608 251.513 26.3532 249.691 27.279 248.047C28.1897 246.403 29.4591 245.089 31.0874 244.106C32.7005 243.123 34.6055 242.622 36.8024 242.604C39.3477 242.583 41.6183 243.231 43.6142 244.547C45.6099 245.849 47.186 247.715 48.3426 250.145C49.4992 252.575 50.0915 255.479 50.1195 258.857L50.3013 280.766ZM40.1059 268.214L40.0568 262.305C40.0392 260.184 39.6321 258.596 38.8355 257.542C38.0237 256.488 36.8375 255.968 35.2769 255.981C34.1861 255.99 33.2639 256.247 32.5105 256.753C31.7571 257.26 31.1873 257.977 30.801 258.904C30.4147 259.816 30.2268 260.917 30.2375 262.204L30.288 268.295L40.1059 268.214ZM22.4701 268.36L22.4271 263.178C22.4179 262.072 22.2356 261.096 21.8801 260.251C21.5246 259.405 21.0191 258.75 20.3637 258.286C19.6931 257.807 18.8805 257.571 17.926 257.579C16.4866 257.591 15.3924 258.115 14.6434 259.152C13.8793 260.188 13.5038 261.495 13.5168 263.07L13.5613 268.434L22.4701 268.36ZM26.3006 193.121C31.4822 193.078 35.8616 194.049 39.4388 196.035C43.0009 198.021 45.7128 200.718 47.5744 204.127C49.421 207.536 50.3617 211.346 50.3966 215.558C50.4318 219.801 49.547 223.641 47.7422 227.081C45.922 230.505 43.2476 233.239 39.719 235.284C36.1751 237.313 31.8275 238.349 26.6762 238.392C21.4945 238.435 17.1228 237.471 13.5608 235.501C9.98363 233.515 7.27182 230.826 5.42542 227.432C3.56374 224.023 2.61531 220.197 2.58011 215.955C2.54517 211.743 3.43012 207.917 5.23499 204.478C7.0247 201.039 9.69144 198.297 13.2352 196.252C16.7638 194.208 21.1189 193.164 26.3006 193.121ZM26.4084 206.121C23.6207 206.144 21.2753 206.534 19.3725 207.293C17.4543 208.036 16.0088 209.131 15.0359 210.579C14.0478 212.011 13.5624 213.773 13.5797 215.864C13.5971 217.955 14.1117 219.715 15.1236 221.147C16.1202 222.563 17.5837 223.634 19.5141 224.36C21.4291 225.072 23.7805 225.416 26.5683 225.393C29.3561 225.369 31.7091 224.986 33.6272 224.243C35.5301 223.485 36.9756 222.39 37.9637 220.957C38.9366 219.51 39.4144 217.74 39.397 215.649C39.3797 213.559 38.8727 211.805 37.8761 210.389C36.8642 208.958 35.4007 207.887 33.4856 207.176C31.5553 206.449 29.1962 206.097 26.4084 206.121ZM2.75163 159.923L2.64679 147.287L32.4639 147.04C36.0093 147.01 39.0844 147.833 41.6893 149.509C44.2789 151.169 46.2908 153.501 47.7248 156.505C49.1437 159.508 49.8697 163.002 49.9028 166.987C49.9361 171.002 49.2683 174.523 47.8994 177.549C46.5154 180.576 44.5425 182.941 41.9808 184.644C39.4038 186.332 36.3426 187.191 32.7973 187.22L2.98015 187.468L2.87532 174.832L31.6016 174.593C33.0409 174.581 34.3261 174.253 35.4572 173.607C36.5731 172.961 37.4445 172.075 38.0716 170.949C38.6985 169.807 39.006 168.517 38.994 167.077C38.982 165.623 38.6531 164.338 38.0075 163.222C37.3618 162.106 36.4758 161.234 35.3493 160.607C34.2077 159.98 32.9173 159.673 31.4779 159.685L2.75163 159.923ZM12.789 142.47L2.60753 142.554L2.27191 102.101L12.4534 102.017L12.5695 116.016L48.9319 115.715L49.0352 128.169L12.6728 128.47L12.789 142.47ZM1.89815 57.0517L1.79331 44.4158L31.6105 44.1684C35.1558 44.139 38.2309 44.962 40.8358 46.6374C43.4254 48.2978 45.4373 50.6297 46.8713 53.633C48.2902 56.6365 49.0162 60.1306 49.0493 64.1153C49.0826 68.1304 48.4148 71.6512 47.0459 74.6778C45.6619 77.7045 43.689 80.0694 41.1273 81.7726C38.5503 83.4607 35.4892 84.3194 31.9438 84.3489L2.12667 84.5962L2.02184 71.9603L30.7481 71.722C32.1875 71.71 33.4727 71.3812 34.6037 70.7354C35.7196 70.0898 36.5911 69.2037 37.2181 68.0773C37.845 66.9357 38.1525 65.6452 38.1406 64.2058C38.1285 62.7513 37.7996 61.4662 37.154 60.3503C36.5084 59.2344 35.6223 58.3629 34.4959 57.7359C33.3543 57.1089 32.0638 56.8015 30.6244 56.8134L1.89815 57.0517ZM16.0803 13.1996C14.5662 13.3334 13.3891 13.9113 12.5491 14.9335C11.7089 15.9405 11.2973 17.4667 11.3143 19.5121C11.3251 20.8151 11.4931 21.8819 11.8181 22.7126C12.128 23.5282 12.5496 24.1308 13.0832 24.5203C13.6167 24.9098 14.2245 25.1093 14.9064 25.1188C15.4672 25.1445 15.974 25.0418 16.4266 24.8108C16.864 24.5647 17.2624 24.1826 17.6217 23.6644C17.9659 23.1464 18.2786 22.4847 18.5598 21.6793C18.841 20.8739 19.0907 19.9173 19.3088 18.8094L20.0952 14.9845C20.6193 12.4043 21.3207 10.1939 22.1994 8.35322C23.0781 6.51253 24.1186 5.00385 25.321 3.82716C26.5083 2.65061 27.8496 1.78339 29.345 1.2255C30.8403 0.652474 32.4743 0.35103 34.2468 0.321171C37.3074 0.310931 39.9046 1.05456 42.0383 2.55206C44.172 4.04957 45.8036 6.20277 46.933 9.01168C48.0622 11.8054 48.6432 15.1719 48.6759 19.1112C48.7095 23.1565 48.1403 26.6917 46.9684 29.7166C45.7963 32.7265 43.9749 35.075 41.5039 36.7622C39.0177 38.4344 35.8278 39.2942 31.9341 39.3417L31.8345 27.3421C33.2581 27.2545 34.4521 26.8886 35.4164 26.2442C36.3808 25.5998 37.1082 24.6998 37.5987 23.5442C38.089 22.3734 38.3275 20.985 38.3141 19.379C38.3029 18.0306 38.1269 16.9032 37.7861 15.9969C37.4452 15.0906 36.9774 14.4051 36.3826 13.9403C35.7878 13.4755 35.1116 13.2387 34.3539 13.2298C33.6419 13.2509 33.0227 13.4909 32.4962 13.9498C31.9544 14.3937 31.4756 15.125 31.0598 16.1436C30.6288 17.1624 30.2311 18.5369 29.8667 20.2673L28.9052 24.9118C28.0454 29.0403 26.58 32.3025 24.5089 34.6986C22.4226 37.0796 19.5612 38.2776 15.9248 38.2927C12.9705 38.3323 10.3807 37.5659 8.15548 35.9934C5.91496 34.4059 4.16175 32.2007 2.89587 29.3777C1.62985 26.5396 0.981573 23.2798 0.951028 19.5981C0.919854 15.8406 1.52166 12.5855 2.75644 9.83275C3.99122 7.07999 5.74635 4.95172 8.02183 3.44794C10.282 1.92914 12.9348 1.14953 15.98 1.10911L16.0803 13.1996Z"/>
</mask>
<path d="M50.6235 319.611L51.6235 319.603L51.6173 318.86L50.9046 318.651L50.6235 319.611ZM50.7367 333.247L50.4311 334.199L51.7481 334.622L51.7366 333.239L50.7367 333.247ZM4.06536 318.27L3.06539 318.278L3.07139 319.001L3.7598 319.222L4.06536 318.27ZM3.92206 300.998L3.60075 300.051L2.9161 300.283L2.92209 301.006L3.92206 300.998ZM50.3385 285.249L51.3384 285.24L51.3269 283.857L50.0171 284.302L50.3385 285.249ZM50.4516 298.885L50.7485 299.839L51.4577 299.619L51.4515 298.876L50.4516 298.885ZM16.8099 309.346L16.513 308.391L15.8038 308.611L15.81 309.354L16.8099 309.346ZM16.813 309.709L15.813 309.718L15.8192 310.46L16.5319 310.669L16.813 309.709ZM32.2817 322.309L31.2817 322.317L31.29 323.317L32.29 323.309L32.2817 322.309ZM32.069 296.673L32.0607 295.673L31.0607 295.682L31.069 296.682L32.069 296.673ZM41.5232 296.595L42.5232 296.587L42.5149 295.587L41.5149 295.595L41.5232 296.595ZM41.7359 322.23L41.7442 323.23L42.7441 323.222L42.7358 322.222L41.7359 322.23ZM49.6236 319.619L49.7367 333.255L51.7366 333.239L51.6235 319.603L49.6236 319.619ZM51.0422 332.295L4.37091 317.318L3.7598 319.222L50.4311 334.199L51.0422 332.295ZM5.06532 318.262L4.92202 300.99L2.92209 301.006L3.06539 318.278L5.06532 318.262ZM4.24337 301.945L50.6598 286.196L50.0171 284.302L3.60075 300.051L4.24337 301.945ZM49.3385 285.257L49.4516 298.893L51.4515 298.876L51.3384 285.24L49.3385 285.257ZM50.1547 297.93L16.513 308.391L17.1069 310.301L50.7485 299.839L50.1547 297.93ZM15.81 309.354L15.813 309.718L17.8129 309.701L17.8099 309.337L15.81 309.354ZM16.5319 310.669L50.3425 320.571L50.9046 318.651L17.094 308.75L16.5319 310.669ZM33.2816 322.3L33.0689 296.665L31.069 296.682L31.2817 322.317L33.2816 322.3ZM32.0773 297.673L41.5315 297.595L41.5149 295.595L32.0607 295.673L32.0773 297.673ZM40.5232 296.603L40.7359 322.239L42.7358 322.222L42.5232 296.587L40.5232 296.603ZM41.7276 321.23L32.2734 321.309L32.29 323.309L41.7442 323.23L41.7276 321.23ZM50.3013 280.766L50.3096 281.766L51.3095 281.757L51.3012 280.758L50.3013 280.766ZM3.75741 281.152L2.75744 281.16L2.76574 282.16L3.7657 282.152L3.75741 281.152ZM4.94764 252.027L5.88035 252.388L5.88112 252.386L4.94764 252.027ZM8.94752 246.517L9.53013 247.33L9.53482 247.326L8.94752 246.517ZM19.782 245.7L19.3158 246.584L19.3232 246.588L19.782 245.7ZM23.3534 248.806L24.1692 248.228L24.1648 248.222L23.3534 248.806ZM25.3471 253.517L24.3685 253.723L24.5369 254.524L25.3554 254.517L25.3471 253.517ZM25.8016 253.514L25.8099 254.514L26.7727 254.506L26.8012 253.543L25.8016 253.514ZM27.279 248.047L28.1504 248.537L28.1538 248.531L27.279 248.047ZM31.0874 244.106L31.6043 244.962L31.6078 244.96L31.0874 244.106ZM43.6142 244.547L43.0635 245.382L43.0679 245.385L43.6142 244.547ZM48.3426 250.145L47.4397 250.574L48.3426 250.145ZM40.1059 268.214L40.1142 269.214L41.1141 269.205L41.1058 268.205L40.1059 268.214ZM38.8355 257.542L39.6333 256.939L39.6277 256.932L38.8355 257.542ZM30.801 258.904L31.7219 259.294L31.7242 259.289L30.801 258.904ZM30.288 268.295L29.2881 268.303L29.2964 269.303L30.2963 269.295L30.288 268.295ZM22.4701 268.36L22.4784 269.36L23.4784 269.352L23.4701 268.352L22.4701 268.36ZM21.8801 260.251L22.8019 259.863L21.8801 260.251ZM20.3637 258.286L19.7823 259.1L19.7857 259.102L20.3637 258.286ZM14.6434 259.152L15.4484 259.745L15.454 259.737L14.6434 259.152ZM13.5613 268.434L12.5614 268.442L12.5697 269.442L13.5696 269.434L13.5613 268.434ZM50.293 279.766L3.74911 280.152L3.7657 282.152L50.3096 281.766L50.293 279.766ZM4.75737 281.144L4.58994 260.963L2.59001 260.979L2.75744 281.16L4.75737 281.144ZM4.58994 260.963C4.56121 257.5 5.0047 254.653 5.88035 252.388L4.01494 251.667C3.02153 254.236 2.55991 257.351 2.59001 260.979L4.58994 260.963ZM5.88112 252.386C6.76115 250.096 7.98896 248.434 9.53012 247.33L8.36491 245.704C6.44171 247.083 5.00294 249.095 4.01417 251.669L5.88112 252.386ZM9.53482 247.326C11.0809 246.204 12.921 245.62 15.0992 245.602L15.0826 243.602C12.5337 243.623 10.2783 244.316 8.36021 245.707L9.53482 247.326ZM15.0992 245.602C16.658 245.589 18.0569 245.921 19.3158 246.584L20.2482 244.815C18.6765 243.987 16.948 243.587 15.0826 243.602L15.0992 245.602ZM19.3232 246.588C20.5933 247.244 21.6647 248.173 22.542 249.391L24.1648 248.222C23.1106 246.759 21.8011 245.617 20.2408 244.811L19.3232 246.588ZM22.5376 249.385C23.4 250.601 24.0147 252.041 24.3685 253.723L26.3257 253.312C25.9223 251.394 25.2078 249.693 24.1691 248.228L22.5376 249.385ZM25.3554 254.517L25.8099 254.514L25.7933 252.514L25.3388 252.517L25.3554 254.517ZM26.8012 253.543C26.8558 251.694 27.3088 250.032 28.1504 248.537L26.4077 247.556C25.3976 249.35 24.8657 251.332 24.802 253.484L26.8012 253.543ZM28.1538 248.531C28.9786 247.042 30.1238 245.856 31.6043 244.962L30.5704 243.25C28.7944 244.322 27.4007 245.763 26.4043 247.562L28.1538 248.531ZM31.6078 244.96C33.0429 244.085 34.7647 243.621 36.8107 243.604L36.7941 241.604C34.4463 241.623 32.3581 242.16 30.5669 243.252L31.6078 244.96ZM36.8107 243.604C39.1709 243.584 41.2443 244.182 43.0635 245.382L44.1649 243.713C41.9924 242.279 39.5246 241.581 36.7941 241.604L36.8107 243.604ZM43.0679 245.385C44.8902 246.573 46.3517 248.289 47.4397 250.574L49.2455 249.715C48.0204 247.141 46.3296 245.124 44.1605 243.71L43.0679 245.385ZM47.4397 250.574C48.5196 252.843 49.0924 255.597 49.1195 258.866L51.1195 258.849C51.0905 255.361 50.4787 252.306 49.2455 249.715L47.4397 250.574ZM49.1195 258.866L49.3013 280.774L51.3012 280.758L51.1195 258.849L49.1195 258.866ZM41.1058 268.205L41.0568 262.296L39.0569 262.313L39.1059 268.222L41.1058 268.205ZM41.0568 262.296C41.0384 260.081 40.6168 258.24 39.6332 256.939L38.0377 258.145C38.6475 258.952 39.0401 260.287 39.0569 262.313L41.0568 262.296ZM39.6277 256.932C38.5903 255.585 37.0811 254.966 35.2686 254.981L35.2852 256.98C36.5939 256.97 37.4571 257.391 38.0432 258.152L39.6277 256.932ZM35.2686 254.981C34.022 254.991 32.8991 255.288 31.9528 255.923L33.0683 257.584C33.6288 257.207 34.3501 256.988 35.2852 256.98L35.2686 254.981ZM31.9528 255.923C31.0193 256.551 30.3312 257.431 29.8779 258.52L31.7242 259.289C32.0434 258.522 32.4949 257.969 33.0683 257.584L31.9528 255.923ZM29.8802 258.514C29.4271 259.584 29.226 260.827 29.2375 262.213L31.2375 262.196C31.2276 261.006 31.4022 260.049 31.7219 259.294L29.8802 258.514ZM29.2375 262.213L29.2881 268.303L31.288 268.287L31.2375 262.196L29.2375 262.213ZM30.2963 269.295L40.1142 269.214L40.0976 267.214L30.2797 267.295L30.2963 269.295ZM23.4701 268.352L23.4271 263.17L21.4272 263.187L21.4701 268.368L23.4701 268.352ZM23.4271 263.17C23.417 261.96 23.2172 260.851 22.8019 259.863L20.9583 260.638C21.254 261.342 21.4188 262.185 21.4272 263.187L23.4271 263.17ZM22.8019 259.863C22.3846 258.871 21.7702 258.057 20.9418 257.47L19.7857 259.102C20.268 259.444 20.6646 259.94 20.9583 260.638L22.8019 259.863ZM20.9452 257.473C20.0764 256.852 19.0489 256.57 17.9177 256.579L17.9343 258.579C18.712 258.573 19.3097 258.762 19.7823 259.1L20.9452 257.473ZM17.9177 256.579C16.2062 256.593 14.7936 257.237 13.8329 258.566L15.454 259.737C15.9913 258.994 16.7671 258.589 17.9343 258.579L17.9177 256.579ZM13.8385 258.558C12.9194 259.805 12.5024 261.336 12.5169 263.079L14.5168 263.062C14.5051 261.653 14.8391 260.572 15.4484 259.745L13.8385 258.558ZM12.5169 263.079L12.5614 268.442L14.5613 268.426L14.5168 263.062L12.5169 263.079ZM13.5696 269.434L22.4784 269.36L22.4618 267.36L13.553 267.434L13.5696 269.434ZM39.4388 196.035L39.9258 195.161L39.9242 195.16L39.4388 196.035ZM47.5744 204.127L48.4537 203.65L48.4521 203.647L47.5744 204.127ZM47.7422 227.081L48.6252 227.55L48.6276 227.545L47.7422 227.081ZM39.719 235.284L40.216 236.152L40.2204 236.149L39.719 235.284ZM13.5608 235.501L13.0755 236.375L13.0768 236.376L13.5608 235.501ZM5.42542 227.432L6.30384 226.954L6.30307 226.952L5.42542 227.432ZM5.23499 204.478L6.12047 204.943L6.12206 204.94L5.23499 204.478ZM13.2352 196.252L13.735 197.118L13.7365 197.117L13.2352 196.252ZM19.3725 207.293L19.7338 208.225L19.7426 208.222L19.3725 207.293ZM15.0359 210.579L15.8592 211.147L15.8659 211.137L15.0359 210.579ZM15.1236 221.147L15.9414 220.571L15.9401 220.569L15.1236 221.147ZM19.5141 224.36L19.1618 225.296L19.1658 225.298L19.5141 224.36ZM33.6272 224.243L33.9885 225.176L33.9974 225.172L33.6272 224.243ZM37.9637 220.957L38.7869 221.525L38.7937 221.515L37.9637 220.957ZM37.8761 210.389L38.6938 209.814L38.6926 209.812L37.8761 210.389ZM33.4856 207.176L33.1334 208.111L33.1374 208.113L33.4856 207.176ZM26.3089 194.121C31.3631 194.079 35.5624 195.027 38.9535 196.909L39.9242 195.16C36.1609 193.072 31.6014 192.077 26.2923 192.121L26.3089 194.121ZM38.9519 196.908C42.3578 198.807 44.9302 201.371 46.6968 204.606L48.4521 203.647C46.4953 200.064 43.644 197.234 39.9258 195.161L38.9519 196.908ZM46.6951 204.603C48.4572 207.856 49.363 211.504 49.3967 215.567L51.3966 215.55C51.3604 211.189 50.3848 207.215 48.4537 203.65L46.6951 204.603ZM49.3967 215.567C49.4306 219.66 48.5781 223.336 46.8567 226.616L48.6276 227.545C50.5159 223.947 51.433 219.941 51.3966 215.55L49.3967 215.567ZM46.8591 226.611C45.1314 229.862 42.5933 232.463 39.2177 234.419L40.2204 236.149C43.902 234.016 46.7127 231.148 48.6252 227.55L46.8591 226.611ZM39.2221 234.416C35.8611 236.341 31.6918 237.351 26.6679 237.392L26.6845 239.392C31.9633 239.348 36.4892 238.286 40.216 236.152L39.2221 234.416ZM26.6679 237.392C21.6123 237.434 17.4205 236.493 14.0449 234.626L13.0768 236.376C16.8251 238.45 21.3767 239.436 26.6845 239.392L26.6679 237.392ZM14.0461 234.627C10.6247 232.727 8.05406 230.171 6.30384 226.954L4.547 227.91C6.48959 231.48 9.34255 234.303 13.0755 236.375L14.0461 234.627ZM6.30307 226.952C4.52745 223.701 3.61404 220.04 3.58008 215.947L1.58015 215.963C1.61658 220.355 2.60003 224.345 4.54777 227.911L6.30307 226.952ZM3.58008 215.947C3.54638 211.885 4.39849 208.224 6.12047 204.943L4.34951 204.013C2.46176 207.611 1.54395 211.601 1.58015 215.963L3.58008 215.947ZM6.12206 204.94C7.81887 201.679 10.3466 199.073 13.735 197.118L12.7355 195.386C9.03624 197.52 6.23052 200.399 4.34791 204.016L6.12206 204.94ZM13.7365 197.117C17.0799 195.18 21.2545 194.163 26.3089 194.121L26.2923 192.121C20.9834 192.165 16.4477 193.235 12.7339 195.387L13.7365 197.117ZM26.4001 205.121C23.5302 205.144 21.0537 205.546 19.0023 206.364L19.7426 208.222C21.4969 207.523 23.7111 207.143 26.4167 207.121L26.4001 205.121ZM19.0112 206.36C16.9373 207.164 15.3124 208.375 14.206 210.021L15.8659 211.137C16.7052 209.888 17.9714 208.908 19.7338 208.225L19.0112 206.36ZM14.2128 210.011C13.086 211.644 12.5611 213.618 12.5798 215.872L14.5797 215.855C14.5637 213.928 15.0096 212.378 15.8591 211.147L14.2128 210.011ZM12.5798 215.872C12.5985 218.127 13.1562 220.096 14.3071 221.724L15.9401 220.569C15.0672 219.335 14.5957 217.782 14.5797 215.855L12.5798 215.872ZM14.3059 221.722C15.4386 223.332 17.0803 224.513 19.1619 225.296L19.8663 223.424C18.0872 222.755 16.8019 221.794 15.9414 220.571L14.3059 221.722ZM19.1658 225.298C21.2282 226.064 23.7086 226.416 26.5766 226.393L26.56 224.393C23.8525 224.415 21.63 224.079 19.8623 223.423L19.1658 225.298ZM26.5766 226.393C29.445 226.369 31.9256 225.975 33.9885 225.176L33.2659 223.311C31.4926 223.998 29.2672 224.37 26.56 224.393L26.5766 226.393ZM33.9974 225.172C36.0504 224.354 37.668 223.147 38.7869 221.525L37.1406 220.389C36.2832 221.632 35.0097 222.616 33.257 223.314L33.9974 225.172ZM38.7937 221.515C39.8998 219.869 40.4157 217.893 40.397 215.641L38.3971 215.658C38.4131 217.588 37.9734 219.15 37.1338 220.399L38.7937 221.515ZM40.397 215.641C40.3783 213.39 39.8299 211.428 38.6938 209.814L37.0583 210.965C37.9155 212.183 38.381 213.727 38.3971 215.658L40.397 215.641ZM38.6926 209.812C37.5461 208.19 35.9056 207.008 33.8338 206.238L33.1374 208.113C34.8958 208.766 36.1822 209.726 37.0596 210.967L38.6926 209.812ZM33.8378 206.24C31.7596 205.458 29.2704 205.097 26.4001 205.121L26.4167 207.121C29.122 207.098 31.351 207.441 33.1334 208.111L33.8378 206.24ZM2.75163 159.923L1.75166 159.931L1.75996 160.931L2.75992 160.923L2.75163 159.923ZM2.64679 147.287L2.6385 146.287L1.63853 146.296L1.64683 147.296L2.64679 147.287ZM41.6893 149.509L41.1483 150.35L41.1495 150.351L41.6893 149.509ZM47.7248 156.505L48.629 156.077L48.6272 156.074L47.7248 156.505ZM47.8994 177.549L48.8089 177.965L48.8106 177.961L47.8994 177.549ZM41.9808 184.644L42.5288 185.481L42.5344 185.477L41.9808 184.644ZM2.98015 187.468L1.98019 187.476L1.98848 188.476L2.98845 188.468L2.98015 187.468ZM2.87532 174.832L2.86702 173.832L1.86705 173.84L1.87535 174.84L2.87532 174.832ZM35.4572 173.607L35.953 174.475L35.958 174.472L35.4572 173.607ZM38.0716 170.949L38.9454 171.435L38.9481 171.43L38.0716 170.949ZM38.0075 163.222L38.873 162.721L38.0075 163.222ZM35.3493 160.607L35.8357 159.734L35.8307 159.731L35.3493 160.607ZM3.75159 159.915L3.64676 147.279L1.64683 147.296L1.75166 159.931L3.75159 159.915ZM2.65509 148.287L32.4722 148.04L32.4557 146.04L2.6385 146.287L2.65509 148.287ZM32.4722 148.04C35.8519 148.012 38.7299 148.794 41.1483 150.35L42.2302 148.668C39.4389 146.872 36.1667 146.009 32.4557 146.04L32.4722 148.04ZM41.1495 150.351C43.5695 151.902 45.4618 154.086 46.8224 156.935L48.6272 156.074C47.1197 152.916 44.9883 150.436 42.229 148.667L41.1495 150.351ZM46.8206 156.932C48.1665 159.781 48.8707 163.127 48.9028 166.995L50.9027 166.979C50.8687 162.877 50.1209 159.235 48.629 156.077L46.8206 156.932ZM48.9028 166.995C48.9352 170.895 48.2863 174.267 46.9883 177.137L48.8106 177.961C50.2503 174.778 50.937 171.109 50.9027 166.979L48.9028 166.995ZM46.99 177.133C45.6768 180.005 43.8211 182.22 41.4271 183.811L42.5344 185.477C45.264 183.662 47.354 181.147 48.8088 177.965L46.99 177.133ZM41.4328 183.808C39.0394 185.375 36.1721 186.192 32.789 186.22L32.8056 188.22C36.5131 188.19 39.7682 187.289 42.5288 185.481L41.4328 183.808ZM32.789 186.22L2.97185 186.468L2.98845 188.468L32.8056 188.22L32.789 186.22ZM3.98012 187.459L3.87528 174.823L1.87535 174.84L1.98019 187.476L3.98012 187.459ZM2.88361 175.832L31.6099 175.593L31.5933 173.593L2.86702 173.832L2.88361 175.832ZM31.6099 175.593C33.2019 175.58 34.6582 175.215 35.953 174.475L34.9614 172.738C33.9941 173.291 32.88 173.583 31.5933 173.593L31.6099 175.593ZM35.958 174.472C37.2301 173.736 38.2305 172.719 38.9453 171.435L37.1978 170.462C36.6586 171.431 35.916 172.186 34.9564 172.741L35.958 174.472ZM38.9481 171.43C39.6658 170.123 40.0072 168.661 39.994 167.069L37.9941 167.086C38.0048 168.372 37.7312 169.491 37.1951 170.467L38.9481 171.43ZM39.994 167.069C39.9807 165.464 39.616 164.005 38.873 162.721L37.1419 163.723C37.6902 164.67 37.9833 165.782 37.9941 167.086L39.994 167.069ZM38.873 162.721C38.137 161.449 37.1199 160.448 35.8357 159.734L34.863 161.481C35.8317 162.02 36.5867 162.763 37.1419 163.723L38.873 162.721ZM35.8307 159.731C34.5238 159.013 33.0616 158.672 31.4696 158.685L31.4862 160.685C32.7729 160.674 33.8917 160.948 34.868 161.484L35.8307 159.731ZM31.4696 158.685L2.74333 158.923L2.75992 160.923L31.4862 160.685L31.4696 158.685ZM12.789 142.47L12.7973 143.47L13.7973 143.462L13.789 142.462L12.789 142.47ZM2.60753 142.554L1.60756 142.563L1.61586 143.563L2.61582 143.554L2.60753 142.554ZM2.27191 102.101L2.26361 101.101L1.26364 101.11L1.27194 102.11L2.27191 102.101ZM12.4534 102.017L13.4533 102.009L13.445 101.009L12.4451 101.017L12.4534 102.017ZM12.5695 116.016L11.5696 116.025L11.5779 117.025L12.5778 117.016L12.5695 116.016ZM48.9319 115.715L49.9319 115.706L49.9236 114.706L48.9236 114.715L48.9319 115.715ZM49.0352 128.169L49.0435 129.169L50.0435 129.16L50.0352 128.16L49.0352 128.169ZM12.6728 128.47L12.6646 127.471L11.6646 127.479L11.6729 128.479L12.6728 128.47ZM12.7807 141.47L2.59923 141.554L2.61582 143.554L12.7973 143.47L12.7807 141.47ZM3.60749 142.546L3.27187 102.093L1.27194 102.11L1.60756 142.563L3.60749 142.546ZM2.2802 103.101L12.4617 103.017L12.4451 101.017L2.26361 101.101L2.2802 103.101ZM11.4534 102.025L11.5696 116.025L13.5695 116.008L13.4533 102.009L11.4534 102.025ZM12.5778 117.016L48.9402 116.715L48.9236 114.715L12.5612 115.016L12.5778 117.016ZM47.9319 115.723L48.0353 128.177L50.0352 128.16L49.9319 115.706L47.9319 115.723ZM49.0269 127.169L12.6646 127.471L12.6811 129.47L49.0435 129.169L49.0269 127.169ZM11.6729 128.479L11.789 142.478L13.789 142.462L13.6728 128.462L11.6729 128.479ZM1.89815 57.0517L0.898184 57.06L0.90648 58.06L1.90645 58.0517L1.89815 57.0517ZM1.79331 44.4158L1.78502 43.4158L0.785053 43.4241L0.793349 44.4241L1.79331 44.4158ZM40.8358 46.6374L40.2949 47.4785L40.2961 47.4793L40.8358 46.6374ZM46.8713 53.633L47.7755 53.2059L47.7737 53.2022L46.8713 53.633ZM47.0459 74.6778L47.9554 75.0936L47.9571 75.0899L47.0459 74.6778ZM41.1273 81.7726L41.6753 82.6091L41.681 82.6053L41.1273 81.7726ZM2.12667 84.5962L1.12671 84.6045L1.135 85.6045L2.13497 85.5962L2.12667 84.5962ZM2.02184 71.9603L2.01354 70.9604L1.01358 70.9686L1.02187 71.9686L2.02184 71.9603ZM34.6037 70.7354L35.0995 71.6039L35.1045 71.601L34.6037 70.7354ZM37.2181 68.0773L38.0919 68.5636L38.0946 68.5586L37.2181 68.0773ZM37.154 60.3502L38.0196 59.8495L37.154 60.3502ZM34.4959 57.7359L34.9822 56.8621L34.9772 56.8593L34.4959 57.7359ZM2.89811 57.0434L2.79328 44.4075L0.793349 44.4241L0.898184 57.06L2.89811 57.0434ZM1.80161 45.4158L31.6188 45.1684L31.6022 43.1684L1.78502 43.4158L1.80161 45.4158ZM31.6188 45.1684C34.9984 45.1403 37.8764 45.923 40.2949 47.4785L41.3768 45.7964C38.5854 44.001 35.3132 43.1377 31.6022 43.1684L31.6188 45.1684ZM40.2961 47.4793C42.7161 49.0309 44.6083 51.2144 45.9689 54.0639L47.7737 53.2022C46.2663 50.045 44.1348 47.5647 41.3756 45.7956L40.2961 47.4793ZM45.9672 54.0602C47.3131 56.9091 48.0172 60.2554 48.0493 64.1236L50.0493 64.107C50.0152 60.0059 49.2674 56.3639 47.7755 53.2059L45.9672 54.0602ZM48.0493 64.1236C48.0817 68.0235 47.4328 71.3958 46.1348 74.2657L47.9571 75.0899C49.3968 71.9066 50.0835 68.2372 50.0493 64.107L48.0493 64.1236ZM46.1365 74.2619C44.8233 77.1337 42.9676 79.3482 40.5737 80.9398L41.681 82.6053C44.4105 80.7906 46.5005 78.2753 47.9554 75.0936L46.1365 74.2619ZM40.5794 80.9361C38.186 82.5039 35.3187 83.3208 31.9355 83.3489L31.9521 85.3488C35.6597 85.3181 38.9147 84.4175 41.6753 82.6091L40.5794 80.9361ZM31.9355 83.3489L2.11838 83.5963L2.13497 85.5962L31.9521 85.3488L31.9355 83.3489ZM3.12664 84.5879L3.0218 71.952L1.02187 71.9686L1.12671 84.6045L3.12664 84.5879ZM2.03014 72.9603L30.7564 72.722L30.7398 70.722L2.01354 70.9604L2.03014 72.9603ZM30.7564 72.722C32.3484 72.7087 33.8047 72.3431 35.0995 71.6038L34.1079 69.867C33.1406 70.4192 32.0265 70.7113 30.7398 70.722L30.7564 72.722ZM35.1045 71.601C36.3767 70.8649 37.377 69.8478 38.0919 68.5636L36.3444 67.5909C35.8051 68.5596 35.0625 69.3146 34.1029 69.8698L35.1045 71.601ZM38.0946 68.5586C38.8123 67.2517 39.1537 65.7896 39.1405 64.1975L37.1406 64.2141C37.1513 65.5008 36.8777 66.6196 36.3416 67.5959L38.0946 68.5586ZM39.1405 64.1975C39.1272 62.5926 38.7625 61.1335 38.0196 59.8495L36.2884 60.8511C36.8368 61.7988 37.1298 62.9101 37.1406 64.2141L39.1405 64.1975ZM38.0196 59.8495C37.2835 58.5773 36.2664 57.577 34.9822 56.8621L34.0095 58.6096C34.9782 59.1488 35.7332 59.8914 36.2884 60.8511L38.0196 59.8495ZM34.9772 56.8593C33.6703 56.1416 32.2082 55.8002 30.6161 55.8134L30.6327 57.8133C31.9194 57.8027 33.0382 58.0763 34.0145 58.6124L34.9772 56.8593ZM30.6161 55.8134L1.88985 56.0517L1.90645 58.0517L30.6327 57.8133L30.6161 55.8134ZM16.0803 13.1996L16.1683 14.1957L17.0879 14.1145L17.0803 13.1913L16.0803 13.1996ZM12.5491 14.9335L13.317 15.5741L13.3217 15.5684L12.5491 14.9335ZM11.8181 22.7126L12.753 22.3575L12.7494 22.3481L11.8181 22.7126ZM13.0832 24.5203L12.4935 25.328L12.4935 25.328L13.0832 24.5203ZM14.9064 25.1188L14.9521 24.1199L14.9362 24.1192L14.9203 24.1189L14.9064 25.1188ZM16.4266 24.8108L16.8812 25.7014L16.8993 25.6922L16.917 25.6823L16.4266 24.8108ZM17.6217 23.6644L18.4434 24.2343L18.4491 24.2262L18.4546 24.2179L17.6217 23.6644ZM19.3088 18.8094L18.3292 18.6079L18.3276 18.6162L19.3088 18.8094ZM20.0952 14.9845L21.0747 15.1859L21.0752 15.1836L20.0952 14.9845ZM22.1994 8.35323L23.1018 8.78402L22.1994 8.35323ZM25.321 3.82717L26.0205 4.54189L26.0249 4.53745L25.321 3.82717ZM29.345 1.22549L29.6946 2.16248L29.7029 2.15929L29.345 1.22549ZM34.2468 0.321179L34.2435 -0.678919L34.23 -0.678685L34.2468 0.321179ZM42.0383 2.55206L42.6128 1.73354L42.0383 2.55206ZM46.933 9.01167L46.0052 9.38474L46.0058 9.38644L46.933 9.01167ZM46.9684 29.7166L47.9002 30.0795L47.9009 30.0779L46.9684 29.7166ZM41.5039 36.7622L42.062 37.592L42.0678 37.5881L41.5039 36.7622ZM31.9341 39.3417L30.9341 39.35L30.9424 40.3539L31.9463 40.3416L31.9341 39.3417ZM31.8345 27.3421L31.7731 26.344L30.8267 26.4022L30.8346 27.3504L31.8345 27.3421ZM35.4164 26.2442L35.972 27.0756L35.4164 26.2442ZM37.5987 23.5442L38.5192 23.9348L38.521 23.9305L37.5987 23.5442ZM37.7861 15.9969L38.722 15.6449L37.7861 15.9969ZM36.3826 13.9403L36.9983 13.1523L36.3826 13.9403ZM34.3539 13.2298L34.3656 12.2299L34.345 12.2296L34.3243 12.2302L34.3539 13.2298ZM32.4962 13.9498L33.1299 14.7233L33.1417 14.7137L33.1532 14.7036L32.4962 13.9498ZM31.0598 16.1436L31.9808 16.5332L31.9856 16.5215L31.0598 16.1436ZM29.8667 20.2673L28.8881 20.0612L28.8874 20.0646L29.8667 20.2673ZM28.9052 24.9118L29.8842 25.1156L29.8844 25.1145L28.9052 24.9118ZM24.5089 34.6986L25.2611 35.3577L25.2655 35.3526L24.5089 34.6986ZM15.9248 38.2927L15.9207 37.2926L15.9114 37.2927L15.9248 38.2927ZM8.15548 35.9934L7.57734 36.8093L7.57837 36.8101L8.15548 35.9934ZM2.89587 29.3777L1.98261 29.7851L1.98341 29.7869L2.89587 29.3777ZM2.75644 9.83276L3.66885 10.242L2.75644 9.83276ZM8.02183 3.44794L8.57319 4.28223L8.57958 4.27794L8.02183 3.44794ZM15.98 1.1091L16.9799 1.10081L16.9716 0.0958688L15.9667 0.109211L15.98 1.1091ZM15.9923 12.2035C14.2541 12.3571 12.8128 13.0377 11.7765 14.2986L13.3217 15.5684C13.9655 14.785 14.8783 14.3097 16.1683 14.1957L15.9923 12.2035ZM11.7812 14.2929C10.7244 15.5596 10.2965 17.3641 10.3143 19.5204L12.3143 19.5038C12.2982 17.5694 12.6935 16.3214 13.3169 15.5741L11.7812 14.2929ZM10.3143 19.5204C10.3257 20.8941 10.5019 22.0933 10.8869 23.077L12.7494 22.3481C12.4842 21.6705 12.3245 20.736 12.3143 19.5038L10.3143 19.5204ZM10.8833 23.0676C11.2403 24.0074 11.7606 24.7929 12.4935 25.328L13.6728 23.7126C13.3386 23.4687 13.0156 23.049 12.753 22.3575L10.8833 23.0676ZM12.4935 25.328C13.2001 25.8438 14.0105 26.1065 14.8925 26.1187L14.9203 24.1189C14.4384 24.1122 14.0333 23.9758 13.6728 23.7126L12.4935 25.328ZM14.8607 26.1178C15.5763 26.1505 16.2583 26.0194 16.8812 25.7014L15.972 23.9201C15.6897 24.0642 15.3582 24.1385 14.9521 24.1199L14.8607 26.1178ZM16.917 25.6823C17.5156 25.3455 18.0194 24.8458 18.4434 24.2343L16.8 23.0946C16.5053 23.5194 16.2124 23.7839 15.9363 23.9392L16.917 25.6823ZM18.4546 24.2179C18.8586 23.6098 19.2046 22.8663 19.5039 22.009L17.6157 21.3497C17.3526 22.1031 17.0732 22.683 16.7888 23.111L18.4546 24.2179ZM19.5039 22.009C19.8047 21.1474 20.0654 20.1429 20.2899 19.0025L18.3276 18.6162C18.1159 19.6917 17.8773 20.6004 17.6157 21.3497L19.5039 22.009ZM20.2883 19.0108L21.0747 15.1859L19.1157 14.7831L18.3292 18.608L20.2883 19.0108ZM21.0752 15.1836C21.5875 12.6616 22.2668 10.5332 23.1018 8.78402L21.2969 7.92241C20.3745 9.85462 19.6511 12.1471 19.1152 14.7855L21.0752 15.1836ZM23.1018 8.78402C23.9404 7.02737 24.9175 5.6212 26.0205 4.54189L24.6216 3.11246C23.3197 4.38649 22.2157 5.99769 21.2969 7.92241L23.1018 8.78402ZM26.0249 4.53745C27.1163 3.45588 28.3383 2.6684 29.6946 2.16245L28.9955 0.288572C27.361 0.898376 25.9002 1.84531 24.6171 3.11686L26.0249 4.53745ZM29.7029 2.15929C31.0782 1.63224 32.5953 1.34914 34.2636 1.32104L34.23 -0.678685C32.3532 -0.647062 30.6025 -0.32729 28.9872 0.291723L29.7029 2.15929ZM34.2501 1.32116C37.141 1.31148 39.5273 2.01147 41.4638 3.3706L42.6128 1.73354C40.2819 0.0976407 37.4738 -0.689637 34.2435 -0.678828L34.2501 1.32116ZM41.4638 3.3706C43.4149 4.7399 44.936 6.72576 46.0052 9.38474L47.8608 8.63864C46.6711 5.67981 44.9291 3.35925 42.6128 1.73354L41.4638 3.3706ZM46.0058 9.38644C47.076 12.034 47.644 15.2692 47.6759 19.1195L49.6759 19.1029C49.6425 15.0747 49.0485 11.5769 47.8601 8.63693L46.0058 9.38644ZM47.6759 19.1195C47.7087 23.0686 47.1524 26.4734 46.0359 29.3554L47.9009 30.0779C49.1281 26.91 49.7102 23.2445 49.6759 19.1029L47.6759 19.1195ZM46.0365 29.3538C44.9316 32.1914 43.231 34.372 40.94 35.9364L42.0678 37.5881C44.7187 35.778 46.6611 33.2615 47.9002 30.0795L46.0365 29.3538ZM40.9458 35.9324C38.6631 37.4678 35.6785 38.296 31.9219 38.3418L31.9463 40.3416C35.977 40.2925 39.3723 39.401 42.062 37.592L40.9458 35.9324ZM32.934 39.3334L32.8345 27.3338L30.8346 27.3504L30.9341 39.35L32.934 39.3334ZM31.8959 28.3402C33.4557 28.2443 34.8303 27.8386 35.972 27.0756L34.8609 25.4127C34.0739 25.9386 33.0604 26.2648 31.7731 26.344L31.8959 28.3402ZM35.972 27.0756C37.1118 26.3141 37.9592 25.2544 38.5192 23.9348L36.6781 23.1535C36.2573 24.1452 35.6499 24.8855 34.8609 25.4127L35.972 27.0756ZM38.521 23.9305C39.0756 22.6063 39.3283 21.0775 39.3141 19.3707L37.3142 19.3873C37.3267 20.8925 37.1024 22.1404 36.6763 23.1579L38.521 23.9305ZM39.3141 19.3707C39.3023 17.9475 39.117 16.695 38.722 15.6449L36.8501 16.3489C37.1368 17.1114 37.3036 18.1136 37.3142 19.3873L39.3141 19.3707ZM38.722 15.6449C38.3345 14.6145 37.7735 13.7581 36.9983 13.1523L35.7669 14.7283C36.1813 15.0521 36.5559 15.5667 36.8501 16.3489L38.722 15.6449ZM36.9983 13.1523C36.2301 12.5521 35.3415 12.2413 34.3656 12.2299L34.3422 14.2297C34.8816 14.2361 35.3455 14.3989 35.7669 14.7283L36.9983 13.1523ZM34.3243 12.2302C33.386 12.258 32.5438 12.5817 31.8391 13.196L33.1532 14.7036C33.5016 14.4 33.8978 14.2437 34.3835 14.2294L34.3243 12.2302ZM31.8624 13.1763C31.1386 13.7693 30.5802 14.6725 30.1339 15.7657L31.9856 16.5215C32.371 15.5775 32.7701 15.0181 33.1299 14.7233L31.8624 13.1763ZM30.1388 15.754C29.6725 16.8562 29.259 18.3005 28.8881 20.0612L30.8452 20.4734C31.2033 18.7734 31.5851 17.4685 31.9808 16.5332L30.1388 15.754ZM28.8874 20.0646L27.9259 24.7091L29.8844 25.1145L30.8459 20.47L28.8874 20.0646ZM27.9262 24.7079C27.09 28.7231 25.6814 31.8129 23.7524 34.0447L25.2655 35.3526C27.4786 32.7921 29.0009 29.3574 29.8842 25.1156L27.9262 24.7079ZM23.7568 34.0396C21.8884 36.1719 19.3176 37.2786 15.9207 37.2927L15.929 39.2927C19.8048 39.2767 22.9567 37.9874 25.261 35.3576L23.7568 34.0396ZM15.9114 37.2927C13.1495 37.3298 10.7705 36.6169 8.73259 35.1768L7.57837 36.8101C9.99091 38.5149 12.7915 39.3348 15.9382 39.2926L15.9114 37.2927ZM8.73362 35.1775C6.65665 33.7058 5.01057 31.6496 3.80832 28.9686L1.98341 29.7869C3.31293 32.7518 5.17326 35.1059 7.57734 36.8093L8.73362 35.1775ZM3.80912 28.9703C2.60853 26.2789 1.9806 23.1589 1.95099 19.5898L-0.0489379 19.6064C-0.0174591 23.4006 0.651173 26.8004 1.98261 29.7851L3.80912 28.9703ZM1.95099 19.5898C1.92073 15.9419 2.50555 12.8354 3.66885 10.242L1.84403 9.42347C0.537761 12.3356 -0.0810203 15.7394 -0.0489379 19.6064L1.95099 19.5898ZM3.66885 10.242C4.83454 7.64329 6.47244 5.6705 8.57318 4.2822L7.47049 2.61365C5.02026 4.23291 3.1479 6.51668 1.84403 9.42347L3.66885 10.242ZM8.57958 4.27794C10.66 2.87999 13.1184 2.14716 15.9932 2.10903L15.9667 0.109211C12.7511 0.151881 9.9041 0.978294 7.46409 2.61792L8.57958 4.27794ZM14.98 1.1174L15.0803 13.2079L17.0803 13.1913L16.9799 1.10081L14.98 1.1174Z" fill="#05C2DF" fill-opacity="0.5" mask="url(#path-1-outside-1_1_399)"/>
</svg>
