<svg width="51" height="334" viewBox="0 0 51 334" fill="none" xmlns="http://www.w3.org/2000/svg">
<mask id="path-1-outside-1_1_397" maskUnits="userSpaceOnUse" x="-1.00746" y="-1.15827" width="53.7858" height="336.412" fill="black">
<rect fill="white" x="-1.00746" y="-1.15827" width="53.7858" height="336.412"/>
<path d="M1.11767 14.3386L1.00454 0.702742L47.6759 15.6797L47.8192 32.9518L1.40276 48.7011L1.28963 35.0652L34.9313 24.6039L34.9283 24.2403L1.11767 14.3386ZM19.4596 11.6409L19.6722 37.2764L10.218 37.3548L10.0053 11.7194L19.4596 11.6409ZM1.43995 53.1839L47.9838 52.7977L48.1512 72.9789C48.1807 76.5242 47.7281 79.5053 46.7936 81.9222C45.8592 84.3543 44.5259 86.1912 42.7937 87.4329C41.0616 88.6897 39.0138 89.328 36.6503 89.3476C34.9382 89.3618 33.3745 88.9959 31.9592 88.2501C30.544 87.5194 29.3535 86.4838 28.3878 85.1432C27.4373 83.8026 26.7727 82.2323 26.3941 80.4323L25.9396 80.4361C25.8805 82.4367 25.388 84.259 24.4622 85.9031C23.5516 87.5471 22.2821 88.8607 20.6539 89.8439C19.0407 90.827 17.1357 91.3277 14.9388 91.3459C12.3935 91.3671 10.1229 90.7192 8.12703 89.4024C6.13131 88.1007 4.55517 86.2349 3.39861 83.8051C2.24205 81.3752 1.64975 78.4709 1.62172 75.0922L1.43995 53.1839ZM11.6354 65.7361L11.6844 71.645C11.702 73.7661 12.1091 75.3537 12.9057 76.4077C13.7176 77.4617 14.9037 77.9821 16.4643 77.9692C17.5552 77.9601 18.4773 77.7025 19.2307 77.1962C19.9841 76.6899 20.5539 75.9731 20.9402 75.0456C21.3266 74.1333 21.5144 73.0332 21.5037 71.7453L21.4532 65.6546L11.6354 65.7361ZM29.2711 65.5898L29.3141 70.7714C29.3233 71.8774 29.5056 72.8532 29.8611 73.6988C30.2166 74.5444 30.7221 75.1993 31.3775 75.6636C32.0482 76.1429 32.8607 76.3786 33.8153 76.3706C35.2546 76.3587 36.3488 75.8345 37.0978 74.7979C37.8619 73.7612 38.2375 72.455 38.2244 70.8793L38.1799 65.5159L29.2711 65.5898ZM25.4406 140.829C20.259 140.872 15.8796 139.9 12.3024 137.915C8.74033 135.929 6.02846 133.232 4.16678 129.823C2.32025 126.414 1.37952 122.603 1.34457 118.391C1.30937 114.149 2.19421 110.308 3.99907 106.869C5.81921 103.445 8.49358 100.71 12.0222 98.6658C15.5661 96.6364 19.9137 95.6003 25.065 95.5575C30.2467 95.5145 34.6185 96.4783 38.1804 98.4488C41.7576 100.434 44.4694 103.124 46.3158 106.518C48.1775 109.927 49.1259 113.752 49.1611 117.995C49.1961 122.207 48.3111 126.032 46.5062 129.472C44.7165 132.911 42.0498 135.653 38.506 137.697C34.9774 139.742 30.6223 140.786 25.4406 140.829ZM25.3328 127.829C28.1206 127.806 30.4659 127.415 32.3688 126.657C34.2869 125.914 35.7324 124.819 36.7053 123.371C37.6934 121.939 38.1788 120.177 38.1615 118.086C38.1441 115.995 37.6295 114.234 36.6176 112.803C35.621 111.387 34.1575 110.316 32.2272 109.59C30.3121 108.878 27.9607 108.534 25.1729 108.557C22.3851 108.58 20.0321 108.963 18.114 109.707C16.2111 110.465 14.7656 111.56 13.7775 112.993C12.8046 114.44 12.3268 116.209 12.3442 118.3C12.3615 120.391 12.8685 122.144 13.8652 123.561C14.8771 124.992 16.3406 126.063 18.2556 126.774C20.1859 127.501 22.545 127.852 25.3328 127.829ZM48.9896 174.027L49.0944 186.662L19.2773 186.91C15.7319 186.939 12.6568 186.116 10.0519 184.441C7.46231 182.78 5.45047 180.449 4.01641 177.445C2.59751 174.442 1.87152 170.948 1.83846 166.963C1.80515 162.948 2.47293 159.427 3.84181 156.4C5.22584 153.374 7.19871 151.009 9.76043 149.306C12.3374 147.618 15.3986 146.759 18.9439 146.729L48.7611 146.482L48.8659 159.118L20.1396 159.356C18.7003 159.368 17.4151 159.697 16.284 160.343C15.1681 160.988 14.2967 161.875 13.6696 163.001C13.0427 164.143 12.7352 165.433 12.7472 166.872C12.7592 168.327 13.0881 169.612 13.7337 170.728C14.3794 171.844 15.2654 172.715 16.3919 173.342C17.5335 173.969 18.824 174.277 20.2633 174.265L48.9896 174.027ZM38.9522 191.48L49.1337 191.395L49.4693 231.848L39.2879 231.933L39.1717 217.933L2.80932 218.235L2.70599 205.781L39.0684 205.479L38.9522 191.48ZM49.8431 276.898L49.9479 289.534L20.1308 289.781C16.5854 289.811 13.5103 288.988 10.9054 287.312C8.3158 285.652 6.30396 283.32 4.8699 280.317C3.45099 277.313 2.72501 273.819 2.69195 269.834C2.65864 265.819 3.32642 262.299 4.6953 259.272C6.07933 256.245 8.0522 253.88 10.6139 252.177C13.1909 250.489 16.2521 249.63 19.7974 249.601L49.6146 249.353L49.7194 261.989L20.9931 262.228C19.5538 262.24 18.2686 262.569 17.1375 263.214C16.0216 263.86 15.1502 264.746 14.5231 265.872C13.8962 267.014 13.5887 268.305 13.6007 269.744C13.6127 271.198 13.9416 272.484 14.5872 273.599C15.2329 274.715 16.1189 275.587 17.2454 276.214C18.387 276.841 19.6775 277.148 21.1168 277.136L49.8431 276.898ZM35.661 320.75C37.175 320.616 38.3521 320.038 39.1921 319.016C40.0323 318.009 40.4439 316.483 40.4269 314.438C40.4161 313.135 40.2482 312.068 39.9231 311.237C39.6133 310.422 39.1916 309.819 38.658 309.429C38.1245 309.04 37.5168 308.84 36.8348 308.831C36.274 308.805 35.7673 308.908 35.3146 309.139C34.8772 309.385 34.4789 309.767 34.1195 310.285C33.7753 310.803 33.4626 311.465 33.1814 312.27C32.9002 313.076 32.6506 314.032 32.4325 315.14L31.646 318.965C31.1219 321.545 30.4206 323.756 29.5419 325.596C28.6632 327.437 27.6226 328.946 26.4202 330.123C25.233 331.299 23.8916 332.166 22.3962 332.724C20.9009 333.297 19.267 333.599 17.4944 333.629C14.4338 333.639 11.8367 332.895 9.70294 331.398C7.56923 329.9 5.93768 327.747 4.80827 324.938C3.67899 322.144 3.09801 318.778 3.06533 314.839C3.03177 310.793 3.60095 307.258 4.77286 304.233C5.9449 301.223 7.76639 298.875 10.2373 297.187C12.7235 295.515 15.9135 294.655 19.8072 294.608L19.9067 306.608C18.4832 306.695 17.2892 307.061 16.3248 307.706C15.3604 308.35 14.633 309.25 14.1426 310.406C13.6523 311.576 13.4138 312.965 13.4271 314.571C13.4383 315.919 13.6143 317.047 13.9552 317.953C14.296 318.859 14.7639 319.545 15.3587 320.009C15.9534 320.474 16.6297 320.711 17.3873 320.72C18.0993 320.699 18.7186 320.459 19.2451 320C19.7869 319.556 20.2657 318.825 20.6815 317.806C21.1124 316.787 21.5101 315.413 21.8746 313.682L22.8361 309.038C23.6958 304.909 25.1612 301.647 27.2323 299.251C29.3187 296.87 32.1801 295.672 35.8164 295.657C38.7707 295.617 41.3605 296.384 43.5858 297.956C45.8263 299.544 47.5795 301.749 48.8454 304.572C50.1114 307.41 50.7597 310.67 50.7902 314.352C50.8214 318.109 50.2196 321.364 48.9848 324.117C47.75 326.87 45.9949 328.998 43.7194 330.502C41.4592 332.021 38.8065 332.8 35.7613 332.841L35.661 320.75Z"/>
</mask>
<path d="M1.11767 14.3386L0.117704 14.3469L0.123865 15.0896L0.83662 15.2983L1.11767 14.3386ZM1.00454 0.702742L1.31009 -0.249432L-0.0069034 -0.67206L0.00457165 0.711039L1.00454 0.702742ZM47.6759 15.6797L48.6758 15.6714L48.6698 14.9484L47.9814 14.7275L47.6759 15.6797ZM47.8192 32.9518L48.1405 33.8988L48.8251 33.6665L48.8191 32.9435L47.8192 32.9518ZM1.40276 48.7011L0.402796 48.7094L0.414271 50.0925L1.72408 49.6481L1.40276 48.7011ZM1.28963 35.0652L0.992696 34.1103L0.283503 34.3308L0.289664 35.0735L1.28963 35.0652ZM34.9313 24.6039L35.2282 25.5588L35.9374 25.3383L35.9312 24.5956L34.9313 24.6039ZM34.9283 24.2403L35.9282 24.232L35.9221 23.4893L35.2093 23.2806L34.9283 24.2403ZM19.4596 11.6409L20.4595 11.6326L20.4512 10.6327L19.4513 10.641L19.4596 11.6409ZM19.6722 37.2764L19.6805 38.2764L20.6805 38.2681L20.6722 37.2681L19.6722 37.2764ZM10.218 37.3548L9.21806 37.3631L9.22636 38.3631L10.2263 38.3548L10.218 37.3548ZM10.0053 11.7194L9.99704 10.7194L8.99707 10.7277L9.00537 11.7277L10.0053 11.7194ZM2.11763 14.3303L2.0045 0.694446L0.00457165 0.711039L0.117704 14.3469L2.11763 14.3303ZM0.69898 1.65492L47.3703 16.6319L47.9814 14.7275L1.31009 -0.249432L0.69898 1.65492ZM46.6759 15.688L46.8192 32.9601L48.8191 32.9435L48.6758 15.6714L46.6759 15.688ZM47.4978 32.0049L1.08145 47.7541L1.72408 49.6481L48.1405 33.8988L47.4978 32.0049ZM2.40273 48.6928L2.2896 35.0569L0.289664 35.0735L0.402796 48.7094L2.40273 48.6928ZM1.58656 36.0201L35.2282 25.5588L34.6343 23.649L0.992696 34.1103L1.58656 36.0201ZM35.9312 24.5956L35.9282 24.232L33.9283 24.2486L33.9313 24.6122L35.9312 24.5956ZM35.2093 23.2806L1.39872 13.3789L0.83662 15.2983L34.6472 25.2L35.2093 23.2806ZM18.4596 11.6492L18.6723 37.2847L20.6722 37.2681L20.4595 11.6326L18.4596 11.6492ZM19.6639 36.2764L10.2097 36.3549L10.2263 38.3548L19.6805 38.2764L19.6639 36.2764ZM11.218 37.3465L11.0053 11.7111L9.00537 11.7277L9.21806 37.3631L11.218 37.3465ZM10.0136 12.7193L19.4679 12.6409L19.4513 10.641L9.99704 10.7194L10.0136 12.7193ZM1.43995 53.1839L1.43166 52.1839L0.431692 52.1922L0.439988 53.1922L1.43995 53.1839ZM47.9838 52.7977L48.9838 52.7894L48.9755 51.7895L47.9755 51.7978L47.9838 52.7977ZM46.7936 81.9222L45.8609 81.5616L45.8601 81.5636L46.7936 81.9222ZM42.7937 87.4329L42.2111 86.6201L42.2064 86.6235L42.7937 87.4329ZM31.9592 88.2501L32.4254 87.3654L32.418 87.3615L31.9592 88.2501ZM28.3878 85.1432L27.5721 85.7217L27.5765 85.7278L28.3878 85.1432ZM26.3941 80.4323L27.3727 80.2265L27.2043 79.4256L26.3859 79.4324L26.3941 80.4323ZM25.9396 80.4361L25.9313 79.4362L24.9685 79.4441L24.9401 80.4066L25.9396 80.4361ZM24.4622 85.9031L23.5908 85.4124L23.5874 85.4186L24.4622 85.9031ZM20.6539 89.8439L20.1369 88.9879L20.1334 88.99L20.6539 89.8439ZM8.12703 89.4024L8.67775 88.5677L8.67333 88.5648L8.12703 89.4024ZM3.39861 83.8051L4.30155 83.3753L3.39861 83.8051ZM11.6354 65.7361L11.6271 64.7361L10.6271 64.7444L10.6354 65.7444L11.6354 65.7361ZM12.9057 76.4078L12.1079 77.0107L12.1135 77.018L12.9057 76.4078ZM20.9402 75.0456L20.0193 74.6556L20.017 74.6611L20.9402 75.0456ZM21.4532 65.6547L22.4532 65.6464L22.4449 64.6464L21.4449 64.6547L21.4532 65.6547ZM29.2711 65.5898L29.2628 64.5898L28.2628 64.5981L28.2711 65.5981L29.2711 65.5898ZM29.8611 73.6988L28.9393 74.0864L29.8611 73.6988ZM31.3775 75.6636L31.9589 74.85L31.9555 74.8476L31.3775 75.6636ZM37.0978 74.7979L36.2928 74.2045L36.2872 74.2122L37.0978 74.7979ZM38.1799 65.5159L39.1799 65.5076L39.1716 64.5076L38.1716 64.5159L38.1799 65.5159ZM1.44825 54.1839L47.9921 53.7977L47.9755 51.7978L1.43166 52.1839L1.44825 54.1839ZM46.9838 52.806L47.1513 72.9872L49.1512 72.9706L48.9838 52.7894L46.9838 52.806ZM47.1513 72.9872C47.18 76.4498 46.7365 79.297 45.8609 81.5616L47.7263 82.2829C48.7197 79.7137 49.1813 76.5986 49.1512 72.9706L47.1513 72.9872ZM45.8601 81.5636C44.9801 83.8542 43.7523 85.5154 42.2111 86.6201L43.3763 88.2457C45.2995 86.867 46.7383 84.8545 47.7271 82.2809L45.8601 81.5636ZM42.2064 86.6235C40.6604 87.7454 38.8202 88.3295 36.642 88.3476L36.6586 90.3475C39.2075 90.3264 41.4629 89.6341 43.381 88.2423L42.2064 86.6235ZM36.642 88.3476C35.0833 88.3605 33.6843 88.0288 32.4254 87.3654L31.493 89.1348C33.0647 89.963 34.7932 90.363 36.6586 90.3475L36.642 88.3476ZM32.418 87.3615C31.1479 86.7058 30.0765 85.7765 29.1992 84.5587L27.5765 85.7278C28.6306 87.191 29.9401 88.333 31.5004 89.1386L32.418 87.3615ZM29.2036 84.5648C28.3412 83.3485 27.7265 81.9084 27.3727 80.2265L25.4156 80.6382C25.819 82.5562 26.5334 84.2567 27.5721 85.7216L29.2036 84.5648ZM26.3859 79.4324L25.9313 79.4362L25.9479 81.4361L26.4024 81.4323L26.3859 79.4324ZM24.9401 80.4066C24.8854 82.2554 24.4324 83.918 23.5908 85.4125L25.3335 86.3938C26.3436 84.6 26.8755 82.6179 26.9392 80.4657L24.9401 80.4066ZM23.5874 85.4186C22.7626 86.9076 21.6174 88.0939 20.1369 88.9879L21.1708 90.7C22.9468 89.6275 24.3405 88.1866 25.337 86.3877L23.5874 85.4186ZM20.1334 88.99C18.6983 89.8646 16.9765 90.329 14.9305 90.346L14.9471 92.3459C17.2949 92.3264 19.3831 91.7895 21.1743 90.6978L20.1334 88.99ZM14.9305 90.346C12.5703 90.3656 10.4969 89.7679 8.67774 88.5677L7.57631 90.2371C9.74885 91.6705 12.2166 92.3686 14.9471 92.3459L14.9305 90.346ZM8.67333 88.5648C6.85099 87.3762 5.38951 85.661 4.30155 83.3753L2.49567 84.2348C3.72084 86.8088 5.41164 88.8252 7.58073 90.24L8.67333 88.5648ZM4.30155 83.3753C3.22158 81.1063 2.64881 78.3529 2.62168 75.0839L0.621754 75.1005C0.650695 78.5889 1.26252 81.644 2.49567 84.2348L4.30155 83.3753ZM2.62168 75.0839L2.43992 53.1756L0.439988 53.1922L0.621754 75.1005L2.62168 75.0839ZM10.6354 65.7444L10.6844 71.6533L12.6843 71.6367L12.6353 65.7278L10.6354 65.7444ZM10.6844 71.6533C10.7028 73.8691 11.1244 75.7094 12.108 77.0107L13.7035 75.8048C13.0938 74.998 12.7012 73.6632 12.6843 71.6367L10.6844 71.6533ZM12.1135 77.018C13.1509 78.3648 14.6601 78.9842 16.4726 78.9692L16.456 76.9692C15.1473 76.9801 14.2842 76.5585 13.698 75.7975L12.1135 77.018ZM16.4726 78.9692C17.7192 78.9588 18.8421 78.6621 19.7884 78.0262L18.6729 76.3662C18.1124 76.7429 17.3911 76.9615 16.456 76.9692L16.4726 78.9692ZM19.7884 78.0262C20.7219 77.399 21.41 76.5186 21.8633 75.43L20.017 74.6611C19.6978 75.4276 19.2463 75.9809 18.6729 76.3662L19.7884 78.0262ZM21.861 75.4356C22.3141 74.3656 22.5152 73.1225 22.5037 71.7371L20.5038 71.7536C20.5136 72.9439 20.339 73.9009 20.0194 74.6556L21.861 75.4356ZM22.5037 71.7371L22.4532 65.6464L20.4532 65.6629L20.5038 71.7536L22.5037 71.7371ZM21.4449 64.6547L11.6271 64.7361L11.6436 66.7361L21.4615 66.6546L21.4449 64.6547ZM28.2711 65.5981L28.3141 70.7797L30.3141 70.7631L30.2711 65.5815L28.2711 65.5981ZM28.3141 70.7797C28.3242 71.9899 28.524 73.0987 28.9393 74.0864L30.783 73.3112C30.4872 72.6078 30.3224 71.765 30.3141 70.7631L28.3141 70.7797ZM28.9393 74.0864C29.3567 75.079 29.971 75.8927 30.7994 76.4796L31.9555 74.8476C31.4732 74.5059 31.0766 74.0097 30.783 73.3112L28.9393 74.0864ZM30.796 76.4772C31.6648 77.098 32.6923 77.38 33.8236 77.3706L33.807 75.3707C33.0292 75.3771 32.4315 75.1877 31.9589 74.85L30.796 76.4772ZM33.8236 77.3706C35.535 77.3564 36.9476 76.7131 37.9083 75.3836L36.2872 74.2122C35.7499 74.9558 34.9742 75.361 33.807 75.3707L33.8236 77.3706ZM37.9027 75.3912C38.8218 74.1444 39.2388 72.6137 39.2244 70.871L37.2244 70.8876C37.2361 72.2964 36.9021 73.378 36.2928 74.2046L37.9027 75.3912ZM39.2244 70.871L39.1799 65.5076L37.1799 65.5242L37.2244 70.8876L39.2244 70.871ZM38.1716 64.5159L29.2628 64.5898L29.2794 66.5898L38.1882 66.5158L38.1716 64.5159ZM12.3024 137.915L11.8155 138.788L11.8171 138.789L12.3024 137.915ZM4.16678 129.823L3.28748 130.299L3.28913 130.302L4.16678 129.823ZM3.99907 106.869L3.11604 106.4L3.11359 106.404L3.99907 106.869ZM12.0222 98.6658L11.5252 97.7981L11.5209 97.8006L12.0222 98.6658ZM38.1804 98.4488L38.6657 97.5745L38.6645 97.5738L38.1804 98.4488ZM46.3158 106.518L45.4374 106.996L45.4381 106.997L46.3158 106.518ZM46.5062 129.472L45.6207 129.007L45.6192 129.01L46.5062 129.472ZM38.506 137.697L38.0063 136.831L38.0047 136.832L38.506 137.697ZM32.3688 126.657L32.0075 125.725L31.9986 125.728L32.3688 126.657ZM36.7053 123.371L35.8821 122.803L35.8753 122.813L36.7053 123.371ZM36.6176 112.803L35.7998 113.379L35.8011 113.381L36.6176 112.803ZM32.2272 109.59L32.5794 108.654L32.5754 108.652L32.2272 109.59ZM18.114 109.707L17.7527 108.774L17.7438 108.778L18.114 109.707ZM13.7775 112.993L12.9543 112.425L12.9475 112.435L13.7775 112.993ZM13.8652 123.561L13.0474 124.136L13.0487 124.138L13.8652 123.561ZM18.2556 126.774L18.6078 125.838L18.6038 125.837L18.2556 126.774ZM25.4323 139.829C20.3781 139.871 16.1788 138.923 12.7877 137.041L11.8171 138.789C15.5803 140.878 20.1399 141.873 25.4489 141.829L25.4323 139.829ZM12.7893 137.041C9.38343 135.143 6.81104 132.579 5.04443 129.344L3.28913 130.302C5.24588 133.885 8.09722 136.716 11.8155 138.788L12.7893 137.041ZM5.04608 129.347C3.28404 126.094 2.37825 122.446 2.34454 118.383L0.344609 118.4C0.380791 122.761 1.35647 126.734 3.28748 130.299L5.04608 129.347ZM2.34454 118.383C2.31058 114.29 3.16312 110.614 4.88455 107.334L3.11359 106.404C1.22529 110.003 0.308175 114.008 0.344609 118.4L2.34454 118.383ZM4.88208 107.338C6.60987 104.088 9.1479 101.487 12.5235 99.5311L11.5209 97.8006C7.83927 99.9337 5.02855 102.802 3.11606 106.4L4.88208 107.338ZM12.5191 99.5336C15.8801 97.6089 20.0495 96.5992 25.0733 96.5575L25.0567 94.5576C19.778 94.6014 15.2521 95.6638 11.5252 97.7981L12.5191 99.5336ZM25.0733 96.5575C30.1289 96.5156 34.3208 97.4564 37.6963 99.3238L38.6645 97.5738C34.9162 95.5002 30.3645 94.5135 25.0567 94.5576L25.0733 96.5575ZM37.6951 99.3232C41.1165 101.222 43.6872 103.779 45.4374 106.996L47.1942 106.04C45.2516 102.469 42.3987 99.6465 38.6657 97.5745L37.6951 99.3232ZM45.4381 106.997C47.2138 110.249 48.1272 113.91 48.1611 118.003L50.1611 117.986C50.1246 113.595 49.1412 109.605 47.1934 106.039L45.4381 106.997ZM48.1611 118.003C48.1948 122.065 47.3427 125.726 45.6208 129.007L47.3917 129.936C49.2795 126.339 50.1973 122.349 50.1611 117.986L48.1611 118.003ZM45.6192 129.01C43.9224 132.271 41.3946 134.876 38.0063 136.831L39.0058 138.564C42.705 136.429 45.5107 133.551 47.3933 129.933L45.6192 129.01ZM38.0047 136.832C34.6613 138.769 30.4868 139.787 25.4323 139.829L25.4489 141.829C30.7578 141.785 35.2935 140.715 39.0074 138.563L38.0047 136.832ZM25.3411 128.829C28.211 128.805 30.6875 128.403 32.7389 127.586L31.9986 125.728C30.2443 126.427 28.0302 126.807 25.3245 126.829L25.3411 128.829ZM32.7301 127.59C34.804 126.786 36.4288 125.575 37.5352 123.929L35.8753 122.813C35.036 124.062 33.7699 125.042 32.0075 125.725L32.7301 127.59ZM37.5284 123.939C38.6553 122.305 39.1802 120.332 39.1615 118.078L37.1615 118.094C37.1775 120.022 36.7316 121.572 35.8821 122.803L37.5284 123.939ZM39.1615 118.078C39.1427 115.823 38.585 113.853 37.4341 112.226L35.8011 113.381C36.674 114.615 37.1455 116.167 37.1615 118.094L39.1615 118.078ZM37.4354 112.228C36.3026 110.618 34.6609 109.437 32.5794 108.654L31.8749 110.525C33.654 111.195 34.9393 112.156 35.7998 113.379L37.4354 112.228ZM32.5754 108.652C30.513 107.886 28.0326 107.533 25.1646 107.557L25.1812 109.557C27.8887 109.535 30.1112 109.87 31.8789 110.527L32.5754 108.652ZM25.1646 107.557C22.2962 107.581 19.8157 107.975 17.7527 108.774L18.4753 110.639C20.2486 109.952 22.474 109.58 25.1812 109.557L25.1646 107.557ZM17.7438 108.778C15.6908 109.596 14.0732 110.803 12.9543 112.425L14.6006 113.561C15.4581 112.318 16.7315 111.334 18.4842 110.636L17.7438 108.778ZM12.9475 112.435C11.8414 114.081 11.3255 116.057 11.3442 118.309L13.3442 118.292C13.3281 116.362 13.7678 114.8 14.6074 113.551L12.9475 112.435ZM11.3442 118.309C11.3629 120.56 11.9113 122.522 13.0474 124.136L14.6829 122.985C13.8257 121.767 13.3602 120.222 13.3442 118.292L11.3442 118.309ZM13.0487 124.138C14.1952 125.759 15.8356 126.942 17.9074 127.712L18.6038 125.837C16.8455 125.184 15.559 124.224 14.6817 122.983L13.0487 124.138ZM17.9034 127.71C19.9816 128.492 22.4708 128.853 25.3411 128.829L25.3245 126.829C22.6192 126.852 20.3903 126.509 18.6078 125.838L17.9034 127.71ZM48.9896 174.027L49.9896 174.018L49.9813 173.018L48.9813 173.027L48.9896 174.027ZM49.0944 186.662L49.1027 187.662L50.1027 187.654L50.0944 186.654L49.0944 186.662ZM10.0519 184.441L10.5929 183.6L10.5917 183.599L10.0519 184.441ZM4.01641 177.445L3.11223 177.872L3.114 177.876L4.01641 177.445ZM3.84181 156.4L2.93237 155.985L2.93067 155.988L3.84181 156.4ZM9.76043 149.306L9.21245 148.469L9.20678 148.473L9.76043 149.306ZM48.7611 146.482L49.761 146.474L49.7527 145.474L48.7528 145.482L48.7611 146.482ZM48.8659 159.118L48.8742 160.118L49.8742 160.11L49.8659 159.11L48.8659 159.118ZM16.284 160.343L15.7882 159.474L15.7832 159.477L16.284 160.343ZM13.6696 163.001L12.7959 162.515L12.7931 162.52L13.6696 163.001ZM13.7337 170.728L12.8682 171.229L13.7337 170.728ZM16.3919 173.342L15.9055 174.216L15.9105 174.219L16.3919 173.342ZM47.9896 174.035L48.0945 186.671L50.0944 186.654L49.9896 174.018L47.9896 174.035ZM49.0861 185.662L19.269 185.91L19.2856 187.91L49.1027 187.662L49.0861 185.662ZM19.269 185.91C15.8893 185.938 13.0113 185.155 10.5929 183.6L9.51098 185.282C12.3024 187.077 15.5745 187.941 19.2856 187.91L19.269 185.91ZM10.5917 183.599C8.17168 182.047 6.27945 179.864 4.91882 177.014L3.114 177.876C4.62149 181.033 6.75293 183.514 9.51218 185.283L10.5917 183.599ZM4.92059 177.018C3.5747 174.169 2.87052 170.823 2.83843 166.955L0.838496 166.971C0.872522 171.072 1.62031 174.714 3.11223 177.872L4.92059 177.018ZM2.83843 166.955C2.80607 163.055 3.45494 159.683 4.75296 156.813L2.93067 155.988C1.49094 159.172 0.804229 162.841 0.838496 166.971L2.83843 166.955ZM4.75124 156.816C6.0644 153.945 7.92015 151.73 10.3141 150.138L9.20678 148.473C6.47727 150.288 4.38727 152.803 2.93238 155.985L4.75124 156.816ZM10.3084 150.142C12.7018 148.574 15.5691 147.757 18.9522 147.729L18.9356 145.729C15.2281 145.76 11.9731 146.661 9.21246 148.469L10.3084 150.142ZM18.9522 147.729L48.7694 147.482L48.7528 145.482L18.9356 145.729L18.9522 147.729ZM47.7611 146.49L47.8659 159.126L49.8659 159.11L49.761 146.474L47.7611 146.49ZM48.8576 158.118L20.1313 158.356L20.1479 160.356L48.8742 160.118L48.8576 158.118ZM20.1313 158.356C18.5393 158.37 17.083 158.735 15.7882 159.474L16.7799 161.211C17.7471 160.659 18.8613 160.367 20.1479 160.356L20.1313 158.356ZM15.7832 159.477C14.5111 160.213 13.5107 161.23 12.7959 162.515L14.5434 163.487C15.0826 162.519 15.8252 161.764 16.7848 161.208L15.7832 159.477ZM12.7931 162.52C12.0754 163.827 11.734 165.289 11.7472 166.881L13.7471 166.864C13.7365 165.577 14.01 164.459 14.5462 163.482L12.7931 162.52ZM11.7472 166.881C11.7605 168.486 12.1252 169.945 12.8682 171.229L14.5993 170.227C14.051 169.279 13.758 168.168 13.7471 166.864L11.7472 166.881ZM12.8682 171.229C13.6042 172.501 14.6213 173.501 15.9055 174.216L16.8783 172.469C15.9096 171.929 15.1545 171.187 14.5993 170.227L12.8682 171.229ZM15.9105 174.219C17.2175 174.937 18.6796 175.278 20.2716 175.265L20.255 173.265C18.9684 173.276 17.8495 173.002 16.8732 172.466L15.9105 174.219ZM20.2716 175.265L48.9979 175.026L48.9813 173.027L20.255 173.265L20.2716 175.265ZM38.9522 191.48L38.9439 190.48L37.944 190.488L37.9523 191.488L38.9522 191.48ZM49.1337 191.395L50.1337 191.387L50.1254 190.387L49.1254 190.395L49.1337 191.395ZM49.4693 231.848L49.4776 232.848L50.4776 232.84L50.4693 231.84L49.4693 231.848ZM39.2879 231.933L38.2879 231.941L38.2962 232.941L39.2962 232.933L39.2879 231.933ZM39.1717 217.933L40.1717 217.925L40.1634 216.925L39.1634 216.933L39.1717 217.933ZM2.80932 218.235L1.80936 218.243L1.81765 219.243L2.81762 219.235L2.80932 218.235ZM2.70599 205.781L2.6977 204.781L1.69773 204.789L1.70603 205.789L2.70599 205.781ZM39.0684 205.479L39.0767 206.479L40.0766 206.471L40.0683 205.471L39.0684 205.479ZM38.9605 192.48L49.142 192.395L49.1254 190.395L38.9439 190.48L38.9605 192.48ZM48.1337 191.404L48.4694 231.857L50.4693 231.84L50.1337 191.387L48.1337 191.404ZM49.461 230.848L39.2796 230.933L39.2962 232.933L49.4776 232.848L49.461 230.848ZM40.2878 231.925L40.1717 217.925L38.1717 217.942L38.2879 231.941L40.2878 231.925ZM39.1634 216.933L2.80103 217.235L2.81762 219.235L39.18 218.933L39.1634 216.933ZM3.80929 218.227L3.70596 205.773L1.70603 205.789L1.80936 218.243L3.80929 218.227ZM2.71429 206.781L39.0767 206.479L39.0601 204.479L2.6977 204.781L2.71429 206.781ZM40.0683 205.471L39.9522 191.471L37.9523 191.488L38.0684 205.488L40.0683 205.471ZM49.8431 276.898L50.8431 276.89L50.8348 275.89L49.8348 275.898L49.8431 276.898ZM49.9479 289.534L49.9562 290.534L50.9562 290.526L50.9479 289.526L49.9479 289.534ZM10.9054 287.312L11.4464 286.471L11.4452 286.47L10.9054 287.312ZM4.8699 280.317L3.96571 280.744L3.96749 280.748L4.8699 280.317ZM4.6953 259.272L3.78586 258.856L3.78416 258.86L4.6953 259.272ZM10.6139 252.177L10.0659 251.341L10.0603 251.344L10.6139 252.177ZM49.6146 249.353L50.6145 249.345L50.6062 248.345L49.6063 248.354L49.6146 249.353ZM49.7194 261.989L49.7277 262.989L50.7277 262.981L50.7194 261.981L49.7194 261.989ZM17.1375 263.214L16.6417 262.346L16.6367 262.349L17.1375 263.214ZM14.5231 265.872L13.6494 265.386L13.6466 265.391L14.5231 265.872ZM14.5872 273.599L13.7217 274.1L14.5872 273.599ZM17.2454 276.214L16.759 277.088L16.764 277.09L17.2454 276.214ZM48.8431 276.906L48.948 289.542L50.9479 289.526L50.8431 276.89L48.8431 276.906ZM49.9396 288.534L20.1225 288.781L20.1391 290.781L49.9562 290.534L49.9396 288.534ZM20.1225 288.781C16.7428 288.809 13.8648 288.027 11.4464 286.471L10.3645 288.153C13.1558 289.949 16.428 290.812 20.1391 290.781L20.1225 288.781ZM11.4452 286.47C9.02517 284.919 7.13293 282.735 5.7723 279.886L3.96749 280.748C5.47497 283.905 7.60642 286.385 10.3657 288.154L11.4452 286.47ZM5.77408 279.89C4.42818 277.041 3.72401 273.694 3.69191 269.826L1.69198 269.843C1.72601 273.944 2.4738 277.586 3.96572 280.744L5.77408 279.89ZM3.69191 269.826C3.65956 265.926 4.30842 262.554 5.60644 259.684L3.78416 258.86C2.34442 262.043 1.65772 265.712 1.69198 269.843L3.69191 269.826ZM5.60473 259.688C6.91789 256.816 8.77364 254.601 11.1676 253.01L10.0603 251.344C7.33076 253.159 5.24076 255.674 3.78587 258.856L5.60473 259.688ZM11.1619 253.014C13.5553 251.446 16.4226 250.629 19.8057 250.601L19.7891 248.601C16.0816 248.632 12.8265 249.532 10.0659 251.341L11.1619 253.014ZM19.8057 250.601L49.6229 250.353L49.6063 248.354L19.7891 248.601L19.8057 250.601ZM48.6146 249.362L48.7194 261.998L50.7194 261.981L50.6145 249.345L48.6146 249.362ZM49.7111 260.989L20.9848 261.228L21.0014 263.228L49.7277 262.989L49.7111 260.989ZM20.9848 261.228C19.3928 261.241 17.9365 261.607 16.6417 262.346L17.6334 264.083C18.6006 263.53 19.7147 263.238 21.0014 263.228L20.9848 261.228ZM16.6367 262.349C15.3646 263.085 14.3642 264.102 13.6494 265.386L15.3969 266.359C15.9361 265.39 16.6787 264.635 17.6383 264.08L16.6367 262.349ZM13.6466 265.391C12.9289 266.698 12.5875 268.16 12.6007 269.752L14.6006 269.736C14.59 268.449 14.8635 267.33 15.3997 266.354L13.6466 265.391ZM12.6007 269.752C12.614 271.357 12.9787 272.816 13.7217 274.1L15.4528 273.099C14.9045 272.151 14.6114 271.04 14.6006 269.736L12.6007 269.752ZM13.7217 274.1C14.4577 275.372 15.4748 276.373 16.759 277.088L17.7317 275.34C16.763 274.801 16.008 274.058 15.4528 273.099L13.7217 274.1ZM16.764 277.09C18.071 277.808 19.5331 278.15 21.1251 278.136L21.1085 276.136C19.8218 276.147 18.703 275.873 17.7267 275.337L16.764 277.09ZM21.1251 278.136L49.8514 277.898L49.8348 275.898L21.1085 276.136L21.1251 278.136ZM35.661 320.75L35.5729 319.754L34.6533 319.835L34.661 320.758L35.661 320.75ZM39.1921 319.016L38.4243 318.376L38.4196 318.381L39.1921 319.016ZM39.9231 311.237L38.9882 311.592L38.9919 311.602L39.9231 311.237ZM38.658 309.429L39.2477 308.622L39.2477 308.622L38.658 309.429ZM36.8348 308.831L36.7891 309.83L36.805 309.831L36.8209 309.831L36.8348 308.831ZM35.3146 309.139L34.86 308.248L34.8419 308.257L34.8243 308.267L35.3146 309.139ZM34.1195 310.285L33.2978 309.715L33.2921 309.724L33.2866 309.732L34.1195 310.285ZM32.4325 315.14L33.412 315.342L33.4137 315.333L32.4325 315.14ZM31.646 318.965L30.6665 318.764L30.666 318.766L31.646 318.965ZM29.5419 325.596L28.6394 325.166L29.5419 325.596ZM26.4202 330.123L25.7208 329.408L25.7163 329.412L26.4202 330.123ZM22.3962 332.724L22.0467 331.787L22.0384 331.79L22.3962 332.724ZM17.4944 333.629L17.4978 334.629L17.5113 334.628L17.4944 333.629ZM9.70294 331.398L9.12847 332.216L9.70294 331.398ZM4.80827 324.938L5.73608 324.565L5.7354 324.563L4.80827 324.938ZM4.77286 304.233L3.84101 303.87L3.84039 303.872L4.77286 304.233ZM10.2373 297.187L9.67921 296.358L9.67341 296.362L10.2373 297.187ZM19.8072 294.608L20.8071 294.6L20.7988 293.596L19.795 293.608L19.8072 294.608ZM19.9067 306.608L19.9681 307.606L20.9145 307.548L20.9067 306.599L19.9067 306.608ZM16.3248 307.706L15.7692 306.874L16.3248 307.706ZM14.1426 310.406L13.222 310.015L13.2202 310.019L14.1426 310.406ZM13.9552 317.953L13.0192 318.305L13.9552 317.953ZM15.3587 320.009L14.7429 320.797L15.3587 320.009ZM17.3873 320.72L17.3756 321.72L17.3963 321.72L17.4169 321.719L17.3873 320.72ZM19.2451 320L18.6113 319.226L18.5995 319.236L18.588 319.246L19.2451 320ZM20.6815 317.806L19.7604 317.416L19.7556 317.428L20.6815 317.806ZM21.8746 313.682L22.8531 313.889L22.8538 313.885L21.8746 313.682ZM22.8361 309.038L21.8571 308.834L21.8568 308.835L22.8361 309.038ZM27.2323 299.251L26.4802 298.592L26.4758 298.597L27.2323 299.251ZM35.8164 295.657L35.8205 296.657L35.8298 296.657L35.8164 295.657ZM43.5858 297.956L44.1639 297.14L44.1629 297.14L43.5858 297.956ZM48.8454 304.572L49.7586 304.165L49.7578 304.163L48.8454 304.572ZM48.9848 324.117L48.0724 323.708L48.9848 324.117ZM43.7194 330.502L43.168 329.667L43.1617 329.672L43.7194 330.502ZM35.7613 332.841L34.7613 332.849L34.7696 333.854L35.7745 333.84L35.7613 332.841ZM35.749 321.746C37.4872 321.593 38.9285 320.912 39.9647 319.651L38.4196 318.381C37.7757 319.165 36.8629 319.64 35.5729 319.754L35.749 321.746ZM39.96 319.657C41.0168 318.39 41.4448 316.586 41.4269 314.429L39.427 314.446C39.443 316.38 39.0478 317.628 38.4243 318.376L39.96 319.657ZM41.4269 314.429C41.4155 313.056 41.2393 311.856 40.8543 310.873L38.9919 311.602C39.2571 312.279 39.4167 313.214 39.427 314.446L41.4269 314.429ZM40.8579 310.882C40.501 309.942 39.9806 309.157 39.2477 308.622L38.0684 310.237C38.4026 310.481 38.7256 310.901 38.9883 311.592L40.8579 310.882ZM39.2477 308.622C38.5411 308.106 37.7307 307.843 36.8488 307.831L36.8209 309.831C37.3028 309.837 37.7079 309.974 38.0684 310.237L39.2477 308.622ZM36.8805 307.832C36.165 307.799 35.483 307.93 34.86 308.248L35.7692 310.03C36.0515 309.886 36.383 309.811 36.7891 309.83L36.8805 307.832ZM34.8243 308.267C34.2257 308.604 33.7219 309.104 33.2978 309.715L34.9413 310.855C35.2359 310.43 35.5288 310.166 35.8049 310.01L34.8243 308.267ZM33.2866 309.732C32.8826 310.34 32.5367 311.083 32.2373 311.941L34.1255 312.6C34.3886 311.847 34.668 311.267 34.9524 310.839L33.2866 309.732ZM32.2373 311.941C31.9365 312.802 31.6758 313.807 31.4513 314.947L33.4137 315.333C33.6254 314.258 33.8639 313.349 34.1255 312.6L32.2373 311.941ZM31.453 314.939L30.6665 318.764L32.6255 319.167L33.412 315.342L31.453 314.939ZM30.666 318.766C30.1538 321.288 29.4744 323.417 28.6394 325.166L30.4443 326.027C31.3667 324.095 32.0901 321.803 32.626 319.164L30.666 318.766ZM28.6394 325.166C27.8008 326.922 26.8237 328.329 25.7208 329.408L27.1196 330.837C28.4215 329.563 29.5255 327.952 30.4443 326.027L28.6394 325.166ZM25.7163 329.412C24.6249 330.494 23.403 331.281 22.0467 331.787L22.7457 333.661C24.3803 333.051 25.841 332.104 27.1241 330.833L25.7163 329.412ZM22.0384 331.79C20.663 332.317 19.1459 332.601 17.4776 332.629L17.5113 334.628C19.388 334.597 21.1388 334.277 22.754 333.658L22.0384 331.79ZM17.4911 332.629C14.6002 332.638 12.2139 331.938 10.2774 330.579L9.12847 332.216C11.4594 333.852 14.2674 334.639 17.4978 334.629L17.4911 332.629ZM10.2774 330.579C8.32636 329.21 6.8052 327.224 5.73608 324.565L3.88046 325.311C5.07015 328.27 6.8121 330.59 9.12847 332.216L10.2774 330.579ZM5.7354 324.563C4.66522 321.916 4.09724 318.68 4.0653 314.83L2.06537 314.847C2.09879 318.875 2.69277 322.373 3.88115 325.313L5.7354 324.563ZM4.0653 314.83C4.03253 310.881 4.5888 307.476 5.70533 304.594L3.84039 303.872C2.61309 307.04 2.031 310.705 2.06537 314.847L4.0653 314.83ZM5.7047 304.596C6.80969 301.758 8.51019 299.578 10.8012 298.013L9.67341 296.362C7.02258 298.172 5.08011 300.688 3.84101 303.87L5.7047 304.596ZM10.7954 298.017C13.0782 296.482 16.0628 295.654 19.8193 295.608L19.795 293.608C15.7642 293.657 12.3689 294.549 9.67923 296.358L10.7954 298.017ZM18.8072 294.616L18.9068 306.616L20.9067 306.599L20.8071 294.6L18.8072 294.616ZM19.8453 305.609C18.2855 305.705 16.911 306.111 15.7692 306.874L16.8804 308.537C17.6674 308.011 18.6808 307.685 19.9681 307.606L19.8453 305.609ZM15.7692 306.874C14.6294 307.636 13.782 308.695 13.222 310.015L15.0631 310.796C15.484 309.805 16.0914 309.064 16.8804 308.537L15.7692 306.874ZM13.2202 310.019C12.6657 311.343 12.413 312.872 12.4271 314.579L14.4271 314.562C14.4146 313.057 14.6389 311.809 15.065 310.792L13.2202 310.019ZM12.4271 314.579C12.4389 316.002 12.6242 317.255 13.0192 318.305L14.8912 317.601C14.6044 316.838 14.4376 315.836 14.4271 314.562L12.4271 314.579ZM13.0192 318.305C13.4067 319.335 13.9678 320.192 14.7429 320.797L15.9744 319.221C15.56 318.898 15.1854 318.383 14.8912 317.601L13.0192 318.305ZM14.7429 320.797C15.5111 321.398 16.3997 321.708 17.3756 321.72L17.399 319.72C16.8596 319.714 16.3958 319.551 15.9744 319.221L14.7429 320.797ZM17.4169 321.719C18.3552 321.692 19.1975 321.368 19.9021 320.754L18.588 319.246C18.2397 319.55 17.8434 319.706 17.3578 319.72L17.4169 321.719ZM19.8788 320.773C20.6026 320.18 21.1611 319.277 21.6073 318.184L19.7556 317.428C19.3703 318.372 18.9711 318.932 18.6113 319.226L19.8788 320.773ZM21.6025 318.196C22.0687 317.093 22.4823 315.649 22.8531 313.889L20.896 313.476C20.538 315.176 20.1561 316.481 19.7605 317.417L21.6025 318.196ZM22.8538 313.885L23.8153 309.241L21.8568 308.835L20.8953 313.48L22.8538 313.885ZM23.8151 309.242C24.6512 305.227 26.0598 302.137 27.9888 299.905L26.4758 298.597C24.2626 301.158 22.7404 304.592 21.8571 308.834L23.8151 309.242ZM27.9844 299.91C29.8528 297.778 32.4237 296.671 35.8205 296.657L35.8123 294.657C31.9364 294.673 28.7845 295.962 26.4802 298.592L27.9844 299.91ZM35.8298 296.657C38.5917 296.62 40.9707 297.333 43.0086 298.773L44.1629 297.14C41.7503 295.435 38.9498 294.615 35.803 294.657L35.8298 296.657ZM43.0076 298.772C45.0846 300.244 46.7307 302.3 47.9329 304.981L49.7578 304.163C48.4283 301.198 46.568 298.844 44.1639 297.14L43.0076 298.772ZM47.9321 304.979C49.1327 307.671 49.7606 310.791 49.7902 314.36L51.7902 314.343C51.7587 310.549 51.0901 307.149 49.7586 304.165L47.9321 304.979ZM49.7902 314.36C49.8205 318.008 49.2357 321.114 48.0724 323.708L49.8972 324.526C51.2035 321.614 51.8223 318.21 51.7902 314.343L49.7902 314.36ZM48.0724 323.708C46.9067 326.306 45.2688 328.279 43.1681 329.668L44.2708 331.336C46.721 329.717 48.5933 327.433 49.8972 324.526L48.0724 323.708ZM43.1617 329.672C41.0813 331.07 38.6229 331.803 35.748 331.841L35.7745 333.84C38.9901 333.798 41.8371 332.971 44.2772 331.332L43.1617 329.672ZM36.7612 332.832L36.6609 320.742L34.661 320.758L34.7613 332.849L36.7612 332.832Z" fill="#05C2DF" fill-opacity="0.2" mask="url(#path-1-outside-1_1_397)"/>
</svg>
